<svg width="41" height="26" viewBox="0 0 41 26" fill="none" xmlns="http://www.w3.org/2000/svg">
<path d="M40.2764 15.5167V17.5306C40.2742 19.6663 39.4247 21.7139 37.9146 23.224C36.4044 24.7342 34.3568 25.5836 32.2211 25.5859H20.1381V21.5583H32.2211C33.2889 21.557 34.3127 21.1323 35.0677 20.3772C35.8228 19.6222 36.2475 18.5984 36.2488 17.5306V15.5167C36.2475 14.4489 35.8228 13.4252 35.0677 12.6701C34.3127 11.915 33.2889 11.4903 32.2211 11.4891H6.87512L10.9028 15.5167L8.05503 18.3645L0.589725 10.899C0.212127 10.5213 0 10.0092 0 9.47512C0 8.94108 0.212127 8.4289 0.589725 8.05124L8.05503 0.585938L10.9028 3.43371L6.87512 7.46139H32.2211C34.3568 7.46368 36.4044 8.3131 37.9146 9.82328C39.4247 11.3335 40.2742 13.381 40.2764 15.5167Z" fill="black"/>
</svg>
