<svg width="90" height="127" viewBox="0 0 90 127" fill="none" xmlns="http://www.w3.org/2000/svg">
<path d="M45 88C33.951 88 23.82 85.997 15.979 79.366C6.212 71.105 0 58.764 0 45C0 20.187 20.187 0 45 0C69.813 0 90 20.187 90 45C90 58.765 83.788 71.105 74.021 79.366C66.181 85.998 56.049 88 45 88Z" fill="white"/>
<path d="M45 60.7102C33.521 60.7102 24.182 51.3712 24.182 39.8932C24.182 28.4142 33.521 19.0752 45 19.0752C56.479 19.0752 65.817 28.4142 65.817 39.8932C65.817 51.3712 56.479 60.7102 45 60.7102Z" fill="#A468E9"/>
<path d="M45 90C34.3869 90 24.0779 86.227 15.9719 79.375C15.3239 78.827 15.0919 77.931 15.3929 77.138C20.0339 64.919 31.9329 56.71 45 56.71C58.067 56.71 69.966 64.919 74.607 77.138C74.908 77.931 74.676 78.827 74.028 79.375C65.922 86.227 55.613 90 45 90Z" fill="#A468E9"/>
<path d="M18.9176 109.656H15.1847C15.1165 109.173 14.9773 108.744 14.767 108.369C14.5568 107.989 14.2869 107.665 13.9574 107.398C13.6278 107.131 13.2472 106.926 12.8153 106.784C12.3892 106.642 11.9261 106.571 11.4261 106.571C10.5227 106.571 9.7358 106.795 9.06534 107.244C8.39489 107.687 7.875 108.335 7.50568 109.188C7.13636 110.034 6.9517 111.062 6.9517 112.273C6.9517 113.517 7.13636 114.562 7.50568 115.409C7.88068 116.256 8.40341 116.895 9.07386 117.327C9.74432 117.759 10.5199 117.974 11.4006 117.974C11.8949 117.974 12.3523 117.909 12.7727 117.778C13.1989 117.648 13.5767 117.457 13.9062 117.207C14.2358 116.952 14.5085 116.642 14.7244 116.278C14.946 115.915 15.0994 115.5 15.1847 115.034L18.9176 115.051C18.821 115.852 18.5795 116.625 18.1932 117.369C17.8125 118.108 17.2983 118.77 16.6506 119.355C16.0085 119.935 15.2415 120.395 14.3494 120.736C13.4631 121.071 12.4602 121.239 11.3409 121.239C9.78409 121.239 8.39205 120.886 7.16477 120.182C5.94318 119.477 4.97727 118.457 4.26705 117.122C3.5625 115.787 3.21023 114.17 3.21023 112.273C3.21023 110.369 3.56818 108.75 4.28409 107.415C5 106.08 5.97159 105.062 7.19886 104.364C8.42614 103.659 9.80682 103.307 11.3409 103.307C12.3523 103.307 13.2898 103.449 14.1534 103.733C15.0227 104.017 15.7926 104.432 16.4631 104.977C17.1335 105.517 17.679 106.179 18.0994 106.963C18.5256 107.747 18.7983 108.645 18.9176 109.656ZM37.6037 112.273C37.6037 114.176 37.2429 115.795 36.5213 117.131C35.8054 118.466 34.8281 119.486 33.5895 120.19C32.3565 120.889 30.9702 121.239 29.4304 121.239C27.8793 121.239 26.4872 120.886 25.2543 120.182C24.0213 119.477 23.0469 118.457 22.331 117.122C21.6151 115.787 21.2571 114.17 21.2571 112.273C21.2571 110.369 21.6151 108.75 22.331 107.415C23.0469 106.08 24.0213 105.062 25.2543 104.364C26.4872 103.659 27.8793 103.307 29.4304 103.307C30.9702 103.307 32.3565 103.659 33.5895 104.364C34.8281 105.062 35.8054 106.08 36.5213 107.415C37.2429 108.75 37.6037 110.369 37.6037 112.273ZM33.8622 112.273C33.8622 111.04 33.6776 110 33.3082 109.153C32.9446 108.307 32.4304 107.665 31.7656 107.227C31.1009 106.79 30.3224 106.571 29.4304 106.571C28.5384 106.571 27.7599 106.79 27.0952 107.227C26.4304 107.665 25.9134 108.307 25.544 109.153C25.1804 110 24.9986 111.04 24.9986 112.273C24.9986 113.506 25.1804 114.545 25.544 115.392C25.9134 116.239 26.4304 116.881 27.0952 117.318C27.7599 117.756 28.5384 117.974 29.4304 117.974C30.3224 117.974 31.1009 117.756 31.7656 117.318C32.4304 116.881 32.9446 116.239 33.3082 115.392C33.6776 114.545 33.8622 113.506 33.8622 112.273ZM54.9368 103.545V121H51.7493L44.1555 110.014H44.0277V121H40.3374V103.545H43.576L51.1101 114.523H51.2635V103.545H54.9368ZM57.321 106.588V103.545H71.6562V106.588H66.3125V121H62.6648V106.588H57.321ZM74.8928 121H70.9382L76.9638 103.545H81.7195L87.7365 121H83.782L79.4098 107.534H79.2734L74.8928 121ZM74.6456 114.139H83.9865V117.02H74.6456V114.139Z" fill="white"/>
</svg>
