<svg width="155" height="143" viewBox="0 0 155 143" fill="none" xmlns="http://www.w3.org/2000/svg">
<path d="M13.5085 123.886H18.7358L21.3636 127.267L23.9489 130.278L28.821 136.386H23.0824L19.7301 132.267L18.0114 129.824L13.5085 123.886ZM29.2614 119.455C29.2614 122.627 28.66 125.326 27.4574 127.551C26.2642 129.777 24.6354 131.476 22.571 132.651C20.5161 133.815 18.2055 134.398 15.6392 134.398C13.054 134.398 10.7339 133.811 8.67898 132.636C6.62405 131.462 5 129.762 3.80682 127.537C2.61364 125.312 2.01705 122.617 2.01705 119.455C2.01705 116.282 2.61364 113.583 3.80682 111.358C5 109.133 6.62405 107.437 8.67898 106.273C10.7339 105.098 13.054 104.511 15.6392 104.511C18.2055 104.511 20.5161 105.098 22.571 106.273C24.6354 107.437 26.2642 109.133 27.4574 111.358C28.66 113.583 29.2614 116.282 29.2614 119.455ZM23.0256 119.455C23.0256 117.4 22.7178 115.667 22.1023 114.256C21.4962 112.845 20.6392 111.775 19.5312 111.045C18.4233 110.316 17.1259 109.952 15.6392 109.952C14.1525 109.952 12.8551 110.316 11.7472 111.045C10.6392 111.775 9.77746 112.845 9.16193 114.256C8.55587 115.667 8.25284 117.4 8.25284 119.455C8.25284 121.509 8.55587 123.242 9.16193 124.653C9.77746 126.064 10.6392 127.134 11.7472 127.864C12.8551 128.593 14.1525 128.957 15.6392 128.957C17.1259 128.957 18.4233 128.593 19.5312 127.864C20.6392 127.134 21.4962 126.064 22.1023 124.653C22.7178 123.242 23.0256 121.509 23.0256 119.455ZM33.8175 134V104.909H45.2947C47.4917 104.909 49.3667 105.302 50.9197 106.088C52.4822 106.865 53.6707 107.968 54.4851 109.398C55.3089 110.818 55.7209 112.49 55.7209 114.412C55.7209 116.344 55.3042 118.006 54.4709 119.398C53.6375 120.78 52.4302 121.841 50.8487 122.58C49.2768 123.318 47.3733 123.688 45.1385 123.688H37.4538V118.744H44.1442C45.3184 118.744 46.2938 118.583 47.0703 118.261C47.8468 117.939 48.4245 117.456 48.8033 116.812C49.1915 116.169 49.3857 115.368 49.3857 114.412C49.3857 113.446 49.1915 112.632 48.8033 111.969C48.4245 111.306 47.8421 110.804 47.0561 110.463C46.2796 110.113 45.2995 109.938 44.1158 109.938H39.968V134H33.8175ZM49.5277 120.761L56.7578 134H49.968L42.8942 120.761H49.5277ZM69.4602 134.426C67.2254 134.426 65.303 133.953 63.6932 133.006C62.0928 132.049 60.8617 130.723 60 129.028C59.1477 127.333 58.7216 125.383 58.7216 123.176C58.7216 120.941 59.1525 118.981 60.0142 117.295C60.8854 115.6 62.1212 114.279 63.7216 113.332C65.322 112.376 67.2254 111.898 69.4318 111.898C71.3352 111.898 73.0019 112.243 74.4318 112.935C75.8617 113.626 76.9934 114.597 77.8267 115.847C78.66 117.097 79.1193 118.564 79.2045 120.25H73.4943C73.3333 119.161 72.9072 118.285 72.2159 117.622C71.5341 116.95 70.6392 116.614 69.5312 116.614C68.5938 116.614 67.7746 116.869 67.0739 117.381C66.3826 117.883 65.8428 118.616 65.4545 119.582C65.0663 120.548 64.8722 121.718 64.8722 123.091C64.8722 124.483 65.0616 125.667 65.4403 126.642C65.8286 127.617 66.3731 128.361 67.0739 128.872C67.7746 129.384 68.5938 129.639 69.5312 129.639C70.2225 129.639 70.8428 129.497 71.392 129.213C71.9508 128.929 72.41 128.517 72.7699 127.977C73.1392 127.428 73.3807 126.77 73.4943 126.003H79.2045C79.1098 127.67 78.6553 129.137 77.8409 130.406C77.036 131.666 75.9233 132.651 74.5028 133.361C73.0824 134.071 71.4015 134.426 69.4602 134.426ZM92.9368 134.426C90.7304 134.426 88.8222 133.957 87.2124 133.02C85.612 132.073 84.3762 130.757 83.505 129.071C82.6338 127.376 82.1982 125.411 82.1982 123.176C82.1982 120.922 82.6338 118.953 83.505 117.267C84.3762 115.572 85.612 114.256 87.2124 113.318C88.8222 112.371 90.7304 111.898 92.9368 111.898C95.1432 111.898 97.0466 112.371 98.647 113.318C100.257 114.256 101.497 115.572 102.369 117.267C103.24 118.953 103.675 120.922 103.675 123.176C103.675 125.411 103.24 127.376 102.369 129.071C101.497 130.757 100.257 132.073 98.647 133.02C97.0466 133.957 95.1432 134.426 92.9368 134.426ZM92.9652 129.739C93.969 129.739 94.8071 129.455 95.4794 128.886C96.1518 128.309 96.6584 127.523 96.9993 126.528C97.3497 125.534 97.5249 124.402 97.5249 123.134C97.5249 121.865 97.3497 120.733 96.9993 119.739C96.6584 118.744 96.1518 117.958 95.4794 117.381C94.8071 116.803 93.969 116.514 92.9652 116.514C91.9519 116.514 91.0997 116.803 90.4084 117.381C89.7266 117.958 89.2105 118.744 88.8601 119.739C88.5192 120.733 88.3487 121.865 88.3487 123.134C88.3487 124.402 88.5192 125.534 88.8601 126.528C89.2105 127.523 89.7266 128.309 90.4084 128.886C91.0997 129.455 91.9519 129.739 92.9652 129.739ZM115.65 134.355C113.993 134.355 112.492 133.929 111.147 133.077C109.812 132.215 108.751 130.951 107.965 129.284C107.189 127.608 106.8 125.553 106.8 123.119C106.8 120.619 107.203 118.541 108.008 116.884C108.813 115.217 109.883 113.972 111.218 113.148C112.563 112.314 114.035 111.898 115.636 111.898C116.857 111.898 117.875 112.106 118.69 112.523C119.513 112.93 120.176 113.441 120.678 114.057C121.19 114.663 121.578 115.259 121.843 115.847H122.028V104.909H128.065V134H122.099V130.506H121.843C121.559 131.112 121.156 131.713 120.636 132.31C120.124 132.897 119.457 133.384 118.633 133.773C117.818 134.161 116.824 134.355 115.65 134.355ZM117.567 129.54C118.543 129.54 119.367 129.275 120.039 128.744C120.721 128.205 121.242 127.452 121.602 126.486C121.971 125.52 122.156 124.388 122.156 123.091C122.156 121.794 121.976 120.667 121.616 119.71C121.256 118.754 120.735 118.015 120.053 117.494C119.371 116.973 118.543 116.713 117.567 116.713C116.573 116.713 115.735 116.983 115.053 117.523C114.371 118.062 113.855 118.811 113.505 119.767C113.155 120.723 112.979 121.831 112.979 123.091C112.979 124.36 113.155 125.482 113.505 126.457C113.865 127.423 114.381 128.181 115.053 128.73C115.735 129.27 116.573 129.54 117.567 129.54ZM142.983 134.426C140.739 134.426 138.807 133.972 137.188 133.062C135.578 132.144 134.337 130.847 133.466 129.17C132.595 127.485 132.159 125.491 132.159 123.19C132.159 120.946 132.595 118.976 133.466 117.281C134.337 115.586 135.563 114.265 137.145 113.318C138.736 112.371 140.601 111.898 142.741 111.898C144.181 111.898 145.521 112.13 146.761 112.594C148.011 113.048 149.1 113.735 150.028 114.653C150.966 115.572 151.695 116.727 152.216 118.119C152.737 119.502 152.997 121.121 152.997 122.977V124.639H134.574V120.889H147.301C147.301 120.018 147.112 119.246 146.733 118.574C146.354 117.902 145.829 117.376 145.156 116.997C144.493 116.609 143.722 116.415 142.841 116.415C141.922 116.415 141.108 116.628 140.398 117.054C139.697 117.471 139.148 118.034 138.75 118.744C138.352 119.445 138.149 120.226 138.139 121.088V124.653C138.139 125.733 138.338 126.666 138.736 127.452C139.143 128.238 139.716 128.844 140.455 129.27C141.193 129.696 142.069 129.909 143.082 129.909C143.755 129.909 144.37 129.814 144.929 129.625C145.488 129.436 145.966 129.152 146.364 128.773C146.761 128.394 147.064 127.93 147.273 127.381L152.869 127.75C152.585 129.095 152.003 130.269 151.122 131.273C150.251 132.267 149.124 133.044 147.741 133.602C146.368 134.152 144.782 134.426 142.983 134.426Z" fill="#FF0000"/>
<path d="M54.962 77.8239H77.197L38.267 38.9329L60.493 16.6749L38.267 16.6689L16 38.9189L54.962 77.8239Z" fill="#FF0000"/>
<path d="M66.062 0H43.814L82.723 38.908L60.501 61.165H82.728L104.978 38.919L66.062 0Z" fill="#FF0000"/>
<rect x="99" y="53" width="8" height="42" fill="white"/>
<rect x="82" y="69" width="42" height="10" fill="white"/>
<rect x="104" y="57" width="9" height="42" fill="white"/>
<rect x="87" y="74" width="42" height="9" fill="white"/>
<path fill-rule="evenodd" clip-rule="evenodd" d="M106.989 53.1167H98.8551V68.796C98.8551 69.077 98.7436 69.3469 98.5451 69.5454C98.3466 69.7439 98.0768 69.8554 97.798 69.8554H82.1164V77.9894H97.798C98.0767 77.9894 98.3466 78.1009 98.5451 78.2994C98.7436 78.4979 98.8551 78.7678 98.8551 79.0488V94.7281H106.989V79.0488C106.989 78.4622 107.464 77.9894 108.049 77.9894H123.728V69.8554H108.049C107.464 69.8554 106.989 69.3803 106.989 68.796V53.1167ZM87.6591 80.1062H96.7363V82.1448H87.6591V80.1062ZM104.398 96.8447H108.051C108.635 96.8447 109.11 96.3696 109.11 95.7853V80.106H124.787C125.068 80.106 125.338 79.9967 125.537 79.7982C125.737 79.5997 125.849 79.3298 125.849 79.0488V74.0105H129.275V82.1444H113.589C113.004 82.1444 112.531 82.6195 112.531 83.2039V98.8832H104.397L104.398 96.8447ZM112.583 67.7368H109.108V57.2722H112.534V67.4114C112.534 67.5229 112.549 67.6322 112.585 67.737L112.583 67.7368ZM109.108 55.1556H113.589C113.87 55.1556 114.14 55.2671 114.338 55.4656C114.537 55.6641 114.648 55.934 114.648 56.215V67.4111C114.648 67.5226 114.63 67.6319 114.597 67.7367H124.788C125.069 67.7367 125.338 67.8482 125.537 68.0467C125.738 68.2452 125.849 68.5151 125.849 68.7961V71.8941H130.332C130.914 71.8963 131.387 72.3691 131.387 72.9513V83.2041C131.387 83.4851 131.276 83.755 131.077 83.9535C130.879 84.152 130.609 84.2635 130.328 84.2635H114.648V99.9428C114.648 100.224 114.537 100.491 114.338 100.69C114.14 100.888 113.87 101 113.589 101H103.338C102.754 101 102.281 100.527 102.279 99.9428V96.8449H97.7983C97.2117 96.8449 96.7388 96.372 96.7388 95.7854V84.2633H86.5996C86.0153 84.2633 85.5402 83.7883 85.5402 83.2039V80.106H81.0594C80.4729 80.106 80 79.6331 80 79.0488V68.7959C80 68.2116 80.4728 67.7365 81.0594 67.7365H96.7387V52.0572C96.7387 51.4729 97.2116 51 97.7982 51H108.049C108.633 51 109.106 51.4728 109.108 52.0572L109.108 55.1556ZM84.2111 73.712H84.2088C83.6245 73.712 83.1516 73.2369 83.1516 72.6526C83.1516 72.0682 83.6245 71.5954 84.2088 71.5954H87.5788C88.1632 71.5954 88.6383 72.0682 88.6383 72.6526C88.6383 73.2369 88.1632 73.712 87.5788 73.712H84.2111ZM90.4871 73.712C90.2016 73.7187 89.9251 73.6094 89.7221 73.4109C89.5192 73.2124 89.4032 72.9381 89.4032 72.6526C89.4032 72.3694 89.5192 72.095 89.7221 71.8965C89.9251 71.698 90.2017 71.5888 90.4871 71.5954H91.522H91.5198C91.8052 71.5888 92.0818 71.698 92.2847 71.8965C92.4877 72.095 92.6037 72.3694 92.6037 72.6526C92.6037 72.9381 92.4877 73.2124 92.2847 73.4109C92.0818 73.6094 91.8052 73.7187 91.5198 73.712H90.4871ZM97.7961 71.5954H97.7938C98.3804 71.5954 98.8533 72.0683 98.8533 72.6549C98.8533 73.2392 98.3804 73.7121 97.7938 73.7121H94.426C93.8417 73.7121 93.3666 73.2392 93.3666 72.6549C93.3666 72.0683 93.8417 71.5954 94.426 71.5954H97.7961Z" fill="black"/>
</svg>
