<svg width="230" height="147" viewBox="0 0 230 147" fill="none" xmlns="http://www.w3.org/2000/svg">
<path d="M29.2614 123.455C29.2614 126.627 28.66 129.326 27.4574 131.551C26.2642 133.777 24.6354 135.476 22.571 136.651C20.5161 137.815 18.2055 138.398 15.6392 138.398C13.054 138.398 10.7339 137.811 8.67898 136.636C6.62405 135.462 5 133.762 3.80682 131.537C2.61364 129.312 2.01705 126.617 2.01705 123.455C2.01705 120.282 2.61364 117.583 3.80682 115.358C5 113.133 6.62405 111.437 8.67898 110.273C10.7339 109.098 13.054 108.511 15.6392 108.511C18.2055 108.511 20.5161 109.098 22.571 110.273C24.6354 111.437 26.2642 113.133 27.4574 115.358C28.66 117.583 29.2614 120.282 29.2614 123.455ZM23.0256 123.455C23.0256 121.4 22.7178 119.667 22.1023 118.256C21.4962 116.845 20.6392 115.775 19.5312 115.045C18.4233 114.316 17.1259 113.952 15.6392 113.952C14.1525 113.952 12.8551 114.316 11.7472 115.045C10.6392 115.775 9.77746 116.845 9.16193 118.256C8.55587 119.667 8.25284 121.4 8.25284 123.455C8.25284 125.509 8.55587 127.242 9.16193 128.653C9.77746 130.064 10.6392 131.134 11.7472 131.864C12.8551 132.593 14.1525 132.957 15.6392 132.957C17.1259 132.957 18.4233 132.593 19.5312 131.864C20.6392 131.134 21.4962 130.064 22.1023 128.653C22.7178 127.242 23.0256 125.509 23.0256 123.455ZM51.7862 108.909H57.9368V127.801C57.9368 129.922 57.4302 131.778 56.4169 133.369C55.4131 134.96 54.0069 136.201 52.1982 137.091C50.3894 137.972 48.2824 138.412 45.8771 138.412C43.4624 138.412 41.3506 137.972 39.5419 137.091C37.7332 136.201 36.3269 134.96 35.3232 133.369C34.3194 131.778 33.8175 129.922 33.8175 127.801V108.909H39.968V127.276C39.968 128.384 40.2095 129.368 40.6925 130.23C41.1849 131.092 41.8762 131.769 42.7663 132.261C43.6565 132.754 44.6934 133 45.8771 133C47.0703 133 48.1072 132.754 48.9879 132.261C49.8781 131.769 50.5646 131.092 51.0476 130.23C51.54 129.368 51.7862 128.384 51.7862 127.276V108.909ZM68.2528 108.909L75.2841 131.011H75.554L82.5994 108.909H89.4176L79.3892 138H71.4631L61.4205 108.909H68.2528ZM99.0696 108.909V138H92.919V108.909H99.0696ZM114.442 138H104.13V108.909H114.528C117.454 108.909 119.973 109.491 122.085 110.656C124.196 111.812 125.82 113.473 126.957 115.642C128.103 117.811 128.675 120.405 128.675 123.426C128.675 126.456 128.103 129.061 126.957 131.239C125.82 133.417 124.187 135.088 122.056 136.253C119.935 137.418 117.397 138 114.442 138ZM110.281 132.73H114.187C116.005 132.73 117.534 132.408 118.775 131.764C120.025 131.111 120.962 130.102 121.587 128.739C122.222 127.366 122.539 125.595 122.539 123.426C122.539 121.277 122.222 119.52 121.587 118.156C120.962 116.793 120.03 115.789 118.789 115.145C117.549 114.501 116.019 114.179 114.201 114.179H110.281V132.73ZM159.964 123.455C159.964 126.627 159.363 129.326 158.161 131.551C156.967 133.777 155.339 135.476 153.274 136.651C151.219 137.815 148.909 138.398 146.342 138.398C143.757 138.398 141.437 137.811 139.382 136.636C137.327 135.462 135.703 133.762 134.51 131.537C133.317 129.312 132.72 126.617 132.72 123.455C132.72 120.282 133.317 117.583 134.51 115.358C135.703 113.133 137.327 111.437 139.382 110.273C141.437 109.098 143.757 108.511 146.342 108.511C148.909 108.511 151.219 109.098 153.274 110.273C155.339 111.437 156.967 113.133 158.161 115.358C159.363 117.583 159.964 120.282 159.964 123.455ZM153.729 123.455C153.729 121.4 153.421 119.667 152.805 118.256C152.199 116.845 151.342 115.775 150.234 115.045C149.126 114.316 147.829 113.952 146.342 113.952C144.856 113.952 143.558 114.316 142.45 115.045C141.342 115.775 140.481 116.845 139.865 118.256C139.259 119.667 138.956 121.4 138.956 123.455C138.956 125.509 139.259 127.242 139.865 128.653C140.481 130.064 141.342 131.134 142.45 131.864C143.558 132.593 144.856 132.957 146.342 132.957C147.829 132.957 149.126 132.593 150.234 131.864C151.342 131.134 152.199 130.064 152.805 128.653C153.421 127.242 153.729 125.509 153.729 123.455ZM164.521 138V108.909H175.998C178.195 108.909 180.07 109.302 181.623 110.088C183.185 110.865 184.374 111.968 185.188 113.398C186.012 114.818 186.424 116.49 186.424 118.412C186.424 120.344 186.007 122.006 185.174 123.398C184.341 124.78 183.133 125.841 181.552 126.58C179.98 127.318 178.076 127.688 175.842 127.688H168.157V122.744H174.847C176.022 122.744 176.997 122.583 177.773 122.261C178.55 121.939 179.128 121.456 179.506 120.812C179.895 120.169 180.089 119.368 180.089 118.412C180.089 117.446 179.895 116.632 179.506 115.969C179.128 115.306 178.545 114.804 177.759 114.463C176.983 114.113 176.003 113.938 174.819 113.938H170.671V138H164.521ZM180.231 124.761L187.461 138H180.671L173.597 124.761H180.231ZM196.921 108.909V138H190.771V108.909H196.921ZM206.996 138H200.405L210.447 108.909H218.374L228.402 138H221.811L214.524 115.557H214.297L206.996 138ZM206.584 126.565H222.152V131.366H206.584V126.565Z" fill="#FF0000"/>
<path d="M95.962 77.8239H118.197L79.267 38.9329L101.493 16.6749L79.267 16.6689L57 38.9189L95.962 77.8239Z" fill="#FF0000"/>
<path d="M107.062 0H84.814L123.723 38.908L101.501 61.165H123.728L145.978 38.919L107.062 0Z" fill="#FF0000"/>
<rect x="140" y="53" width="8" height="42" fill="white"/>
<rect x="123" y="69" width="42" height="10" fill="white"/>
<rect x="145" y="57" width="9" height="42" fill="white"/>
<rect x="128" y="74" width="42" height="9" fill="white"/>
<path fill-rule="evenodd" clip-rule="evenodd" d="M147.989 53.1167H139.855V68.796C139.855 69.077 139.744 69.3469 139.545 69.5454C139.347 69.7439 139.077 69.8554 138.798 69.8554H123.116V77.9894H138.798C139.077 77.9894 139.347 78.1009 139.545 78.2994C139.744 78.4979 139.855 78.7678 139.855 79.0488V94.7281H147.989V79.0488C147.989 78.4622 148.464 77.9894 149.049 77.9894H164.728V69.8554H149.049C148.464 69.8554 147.989 69.3803 147.989 68.796V53.1167ZM128.659 80.1062H137.736V82.1448H128.659V80.1062ZM145.398 96.8447H149.051C149.635 96.8447 150.11 96.3696 150.11 95.7853V80.106H165.787C166.068 80.106 166.338 79.9967 166.537 79.7982C166.737 79.5997 166.849 79.3298 166.849 79.0488V74.0105H170.275V82.1444H154.589C154.004 82.1444 153.531 82.6195 153.531 83.2039V98.8832H145.397L145.398 96.8447ZM153.583 67.7368H150.108V57.2722H153.534V67.4114C153.534 67.5229 153.549 67.6322 153.585 67.737L153.583 67.7368ZM150.108 55.1556H154.589C154.87 55.1556 155.14 55.2671 155.338 55.4656C155.537 55.6641 155.648 55.934 155.648 56.215V67.4111C155.648 67.5226 155.63 67.6319 155.597 67.7367H165.788C166.069 67.7367 166.338 67.8482 166.537 68.0467C166.738 68.2452 166.849 68.5151 166.849 68.7961V71.8941H171.332C171.914 71.8963 172.387 72.3691 172.387 72.9513V83.2041C172.387 83.4851 172.276 83.755 172.077 83.9535C171.879 84.152 171.609 84.2635 171.328 84.2635H155.648V99.9428C155.648 100.224 155.537 100.491 155.338 100.69C155.14 100.888 154.87 101 154.589 101H144.338C143.754 101 143.281 100.527 143.279 99.9428V96.8449H138.798C138.212 96.8449 137.739 96.372 137.739 95.7854V84.2633H127.6C127.015 84.2633 126.54 83.7883 126.54 83.2039V80.106H122.059C121.473 80.106 121 79.6331 121 79.0488V68.7959C121 68.2116 121.473 67.7365 122.059 67.7365H137.739V52.0572C137.739 51.4729 138.212 51 138.798 51H149.049C149.633 51 150.106 51.4728 150.108 52.0572L150.108 55.1556ZM125.211 73.712H125.209C124.625 73.712 124.152 73.2369 124.152 72.6526C124.152 72.0682 124.624 71.5954 125.209 71.5954H128.579C129.163 71.5954 129.638 72.0682 129.638 72.6526C129.638 73.2369 129.163 73.712 128.579 73.712H125.211ZM131.487 73.712C131.202 73.7187 130.925 73.6094 130.722 73.4109C130.519 73.2124 130.403 72.9381 130.403 72.6526C130.403 72.3694 130.519 72.095 130.722 71.8965C130.925 71.698 131.202 71.5888 131.487 71.5954H132.522H132.52C132.805 71.5888 133.082 71.698 133.285 71.8965C133.488 72.095 133.604 72.3694 133.604 72.6526C133.604 72.9381 133.488 73.2124 133.285 73.4109C133.082 73.6094 132.805 73.7187 132.52 73.712H131.487ZM138.796 71.5954H138.794C139.38 71.5954 139.853 72.0683 139.853 72.6549C139.853 73.2392 139.38 73.7121 138.794 73.7121H135.426C134.842 73.7121 134.367 73.2392 134.367 72.6549C134.367 72.0683 134.842 71.5954 135.426 71.5954H138.796Z" fill="black"/>
</svg>
