<svg width="134" height="147" viewBox="0 0 134 147" fill="none" xmlns="http://www.w3.org/2000/svg">
<path d="M2.52841 138V108.909H14.0057C16.2121 108.909 18.0919 109.33 19.6449 110.173C21.1979 111.007 22.3816 112.167 23.196 113.653C24.0199 115.131 24.4318 116.835 24.4318 118.767C24.4318 120.699 24.0152 122.403 23.1818 123.881C22.3485 125.358 21.1411 126.509 19.5597 127.332C17.9877 128.156 16.0843 128.568 13.8494 128.568H6.53409V123.639H12.8551C14.0388 123.639 15.0142 123.436 15.7812 123.028C16.5578 122.612 17.1354 122.039 17.5142 121.31C17.9025 120.571 18.0966 119.723 18.0966 118.767C18.0966 117.801 17.9025 116.958 17.5142 116.239C17.1354 115.509 16.5578 114.946 15.7812 114.548C15.0047 114.141 14.0199 113.938 12.8267 113.938H8.67898V138H2.52841ZM28.4268 138V108.909H48.0291V113.98H34.5774V120.912H47.0206V125.983H34.5774V132.929H48.0859V138H28.4268ZM52.919 138V108.909H64.3963C66.5933 108.909 68.4683 109.302 70.0213 110.088C71.5838 110.865 72.7723 111.968 73.5866 113.398C74.4105 114.818 74.8224 116.49 74.8224 118.412C74.8224 120.344 74.4058 122.006 73.5724 123.398C72.7391 124.78 71.5317 125.841 69.9503 126.58C68.3783 127.318 66.4749 127.688 64.2401 127.688H56.5554V122.744H63.2457C64.42 122.744 65.3954 122.583 66.1719 122.261C66.9484 121.939 67.526 121.456 67.9048 120.812C68.2931 120.169 68.4872 119.368 68.4872 118.412C68.4872 117.446 68.2931 116.632 67.9048 115.969C67.526 115.306 66.9437 114.804 66.1577 114.463C65.3812 114.113 64.401 113.938 63.2173 113.938H59.0696V138H52.919ZM68.6293 124.761L75.8594 138H69.0696L61.9957 124.761H68.6293ZM79.169 138V108.909H98.4304V113.98H85.3196V120.912H97.152V125.983H85.3196V138H79.169ZM108.718 108.909V138H102.567V108.909H108.718ZM113.778 138V108.909H119.929V132.929H132.401V138H113.778Z" fill="#FF0000"/>
<path d="M49.962 77.8239H72.197L33.267 38.9329L55.493 16.6749L33.267 16.6689L11 38.9189L49.962 77.8239Z" fill="#FF0000"/>
<path d="M61.062 0H38.814L77.723 38.908L55.501 61.165H77.728L99.978 38.919L61.062 0Z" fill="#FF0000"/>
<rect x="94" y="53" width="8" height="42" fill="white"/>
<rect x="77" y="69" width="42" height="10" fill="white"/>
<rect x="99" y="57" width="9" height="42" fill="white"/>
<rect x="82" y="74" width="42" height="9" fill="white"/>
<path fill-rule="evenodd" clip-rule="evenodd" d="M101.989 53.1167H93.8551V68.796C93.8551 69.077 93.7436 69.3469 93.5451 69.5454C93.3466 69.7439 93.0768 69.8554 92.798 69.8554H77.1164V77.9894H92.798C93.0767 77.9894 93.3466 78.1009 93.5451 78.2994C93.7436 78.4979 93.8551 78.7678 93.8551 79.0488V94.7281H101.989V79.0488C101.989 78.4622 102.464 77.9894 103.049 77.9894H118.728V69.8554H103.049C102.464 69.8554 101.989 69.3803 101.989 68.796V53.1167ZM82.6591 80.1062H91.7363V82.1448H82.6591V80.1062ZM99.3975 96.8447H103.051C103.635 96.8447 104.11 96.3696 104.11 95.7853V80.106H119.787C120.068 80.106 120.338 79.9967 120.537 79.7982C120.737 79.5997 120.849 79.3298 120.849 79.0488V74.0105H124.275V82.1444H108.589C108.004 82.1444 107.531 82.6195 107.531 83.2039V98.8832H99.3973L99.3975 96.8447ZM107.583 67.7368H104.108V57.2722H107.534V67.4114C107.534 67.5229 107.549 67.6322 107.585 67.737L107.583 67.7368ZM104.108 55.1556H108.589C108.87 55.1556 109.14 55.2671 109.338 55.4656C109.537 55.6641 109.648 55.934 109.648 56.215V67.4111C109.648 67.5226 109.63 67.6319 109.597 67.7367H119.788C120.069 67.7367 120.338 67.8482 120.537 68.0467C120.738 68.2452 120.849 68.5151 120.849 68.7961V71.8941H125.332C125.914 71.8963 126.387 72.3691 126.387 72.9513V83.2041C126.387 83.4851 126.276 83.755 126.077 83.9535C125.879 84.152 125.609 84.2635 125.328 84.2635H109.648V99.9428C109.648 100.224 109.537 100.491 109.338 100.69C109.14 100.888 108.87 101 108.589 101H98.3385C97.7541 101 97.2813 100.527 97.279 99.9428V96.8449H92.7983C92.2117 96.8449 91.7388 96.372 91.7388 95.7854V84.2633H81.5996C81.0153 84.2633 80.5402 83.7883 80.5402 83.2039V80.106H76.0594C75.4729 80.106 75 79.6331 75 79.0488V68.7959C75 68.2116 75.4728 67.7365 76.0594 67.7365H91.7387V52.0572C91.7387 51.4729 92.2116 51 92.7982 51H103.049C103.633 51 104.106 51.4728 104.108 52.0572L104.108 55.1556ZM79.2111 73.712H79.2088C78.6245 73.712 78.1516 73.2369 78.1516 72.6526C78.1516 72.0682 78.6245 71.5954 79.2088 71.5954H82.5788C83.1632 71.5954 83.6383 72.0682 83.6383 72.6526C83.6383 73.2369 83.1632 73.712 82.5788 73.712H79.2111ZM85.4871 73.712C85.2016 73.7187 84.9251 73.6094 84.7221 73.4109C84.5192 73.2124 84.4032 72.9381 84.4032 72.6526C84.4032 72.3694 84.5192 72.095 84.7221 71.8965C84.9251 71.698 85.2017 71.5888 85.4871 71.5954H86.522H86.5198C86.8052 71.5888 87.0818 71.698 87.2847 71.8965C87.4877 72.095 87.6037 72.3694 87.6037 72.6526C87.6037 72.9381 87.4877 73.2124 87.2847 73.4109C87.0818 73.6094 86.8052 73.7187 86.5198 73.712H85.4871ZM92.7961 71.5954H92.7938C93.3804 71.5954 93.8533 72.0683 93.8533 72.6549C93.8533 73.2392 93.3804 73.7121 92.7938 73.7121H89.426C88.8417 73.7121 88.3666 73.2392 88.3666 72.6549C88.3666 72.0683 88.8417 71.5954 89.426 71.5954H92.7961Z" fill="black"/>
</svg>
