<svg width="116" height="101" viewBox="0 0 116 101" fill="none" xmlns="http://www.w3.org/2000/svg">
<path d="M38.962 77.8239H61.197L22.267 38.9329L44.493 16.6749L22.267 16.6689L0 38.9189L38.962 77.8239Z" fill="white"/>
<path d="M50.062 0H27.814L66.723 38.908L44.501 61.165H66.728L88.978 38.919L50.062 0Z" fill="white"/>
<rect x="83" y="53" width="8" height="42" fill="white"/>
<rect x="66" y="69" width="42" height="10" fill="white"/>
<rect x="88" y="57" width="9" height="42" fill="white"/>
<rect x="71" y="74" width="42" height="9" fill="white"/>
<path fill-rule="evenodd" clip-rule="evenodd" d="M90.9891 53.1167H82.8551V68.796C82.8551 69.077 82.7436 69.3469 82.5451 69.5454C82.3466 69.7439 82.0768 69.8554 81.798 69.8554H66.1164V77.9894H81.798C82.0767 77.9894 82.3466 78.1009 82.5451 78.2994C82.7436 78.4979 82.8551 78.7678 82.8551 79.0488V94.7281H90.9891V79.0488C90.9891 78.4622 91.4642 77.9894 92.0485 77.9894H107.728V69.8554H92.0485C91.4642 69.8554 90.9891 69.3803 90.9891 68.796V53.1167ZM71.6591 80.1062H80.7363V82.1448H71.6591V80.1062ZM88.3975 96.8447H92.0508C92.6351 96.8447 93.1102 96.3696 93.1102 95.7853V80.106H108.787C109.068 80.106 109.338 79.9967 109.537 79.7982C109.737 79.5997 109.849 79.3298 109.849 79.0488V74.0105H113.275V82.1444H97.5885C97.0042 82.1444 96.5313 82.6195 96.5313 83.2039V98.8832H88.3973L88.3975 96.8447ZM96.5829 67.7368H93.108V57.2722H96.5338V67.4114C96.5338 67.5229 96.5494 67.6322 96.5851 67.737L96.5829 67.7368ZM93.108 55.1556H97.5888C97.8698 55.1556 98.1397 55.2671 98.3382 55.4656C98.5367 55.6641 98.6482 55.934 98.6482 56.215V67.4111C98.6482 67.5226 98.6304 67.6319 98.5969 67.7367H108.788C109.069 67.7367 109.338 67.8482 109.537 68.0467C109.738 68.2452 109.849 68.5151 109.849 68.7961V71.8941H114.332C114.914 71.8963 115.387 72.3691 115.387 72.9513V83.2041C115.387 83.4851 115.276 83.755 115.077 83.9535C114.879 84.152 114.609 84.2635 114.328 84.2635H98.6484V99.9428C98.6484 100.224 98.5369 100.491 98.3384 100.69C98.1399 100.888 97.87 101 97.589 101H87.3385C86.7541 101 86.2813 100.527 86.279 99.9428V96.8449H81.7983C81.2117 96.8449 80.7388 96.372 80.7388 95.7854V84.2633H70.5996C70.0153 84.2633 69.5402 83.7883 69.5402 83.2039V80.106H65.0594C64.4729 80.106 64 79.6331 64 79.0488V68.7959C64 68.2116 64.4728 67.7365 65.0594 67.7365H80.7387V52.0572C80.7387 51.4729 81.2116 51 81.7982 51H92.0487C92.633 51 93.1059 51.4728 93.1081 52.0572L93.108 55.1556ZM68.2111 73.712H68.2088C67.6245 73.712 67.1516 73.2369 67.1516 72.6526C67.1516 72.0682 67.6245 71.5954 68.2088 71.5954H71.5788C72.1632 71.5954 72.6383 72.0682 72.6383 72.6526C72.6383 73.2369 72.1632 73.712 71.5788 73.712H68.2111ZM74.4871 73.712C74.2016 73.7187 73.9251 73.6094 73.7221 73.4109C73.5192 73.2124 73.4032 72.9381 73.4032 72.6526C73.4032 72.3694 73.5192 72.095 73.7221 71.8965C73.9251 71.698 74.2017 71.5888 74.4871 71.5954H75.522H75.5198C75.8052 71.5888 76.0818 71.698 76.2847 71.8965C76.4877 72.095 76.6037 72.3694 76.6037 72.6526C76.6037 72.9381 76.4877 73.2124 76.2847 73.4109C76.0818 73.6094 75.8052 73.7187 75.5198 73.712H74.4871ZM81.7961 71.5954H81.7938C82.3804 71.5954 82.8533 72.0683 82.8533 72.6549C82.8533 73.2392 82.3804 73.7121 81.7938 73.7121H78.426C77.8417 73.7121 77.3666 73.2392 77.3666 72.6549C77.3666 72.0683 77.8417 71.5954 78.426 71.5954H81.7961Z" fill="black"/>
</svg>
