<svg width="104" height="90" viewBox="0 0 104 90" fill="none" xmlns="http://www.w3.org/2000/svg">
<rect x="71" y="42" width="8" height="42" fill="white"/>
<rect x="54" y="58" width="42" height="10" fill="white"/>
<rect x="76" y="46" width="9" height="42" fill="white"/>
<rect x="59" y="63" width="42" height="9" fill="white"/>
<path d="M38.962 77.8239H61.197L22.267 38.9329L44.493 16.6749L22.267 16.6689L0 38.9189L38.962 77.8239Z" fill="white"/>
<path d="M50.062 0H27.814L66.723 38.908L44.501 61.165H66.728L88.978 38.919L50.062 0Z" fill="white"/>
<path fill-rule="evenodd" clip-rule="evenodd" d="M78.9891 42.1167H70.8551V57.796C70.8551 58.077 70.7436 58.3469 70.5451 58.5454C70.3466 58.7439 70.0768 58.8554 69.798 58.8554H54.1164V66.9894H69.798C70.0767 66.9894 70.3466 67.1009 70.5451 67.2994C70.7436 67.4979 70.8551 67.7678 70.8551 68.0488V83.7281H78.9891V68.0488C78.9891 67.4622 79.4642 66.9894 80.0485 66.9894H95.7278V58.8554H80.0485C79.4642 58.8554 78.9891 58.3803 78.9891 57.796V42.1167ZM59.6591 69.1062H68.7363V71.1448H59.6591V69.1062ZM76.3975 85.8447H80.0508C80.6351 85.8447 81.1102 85.3696 81.1102 84.7853V69.106H96.7872C97.0682 69.106 97.3381 68.9967 97.5366 68.7982C97.7373 68.5997 97.8489 68.3298 97.8489 68.0488V63.0105H101.275V71.1444H85.5885C85.0042 71.1444 84.5313 71.6195 84.5313 72.2039V87.8832H76.3973L76.3975 85.8447ZM84.5829 56.7368H81.108V46.2722H84.5338V56.4114C84.5338 56.5229 84.5494 56.6322 84.5851 56.737L84.5829 56.7368ZM81.108 44.1556H85.5888C85.8698 44.1556 86.1397 44.2671 86.3382 44.4656C86.5367 44.6641 86.6482 44.934 86.6482 45.215V56.4111C86.6482 56.5226 86.6304 56.6319 86.5969 56.7367H96.7875C97.0685 56.7367 97.3384 56.8482 97.5369 57.0467C97.7376 57.2452 97.8492 57.5151 97.8492 57.7961V60.8941H102.332C102.914 60.8963 103.387 61.3691 103.387 61.9513V72.2041C103.387 72.4851 103.276 72.755 103.077 72.9535C102.879 73.152 102.609 73.2635 102.328 73.2635H86.6484V88.9428C86.6484 89.2238 86.5369 89.4915 86.3384 89.69C86.1399 89.8885 85.87 90 85.589 90H75.3385C74.7541 90 74.2813 89.5272 74.279 88.9428V85.8449H69.7983C69.2117 85.8449 68.7388 85.372 68.7388 84.7854V73.2633H58.5996C58.0153 73.2633 57.5402 72.7883 57.5402 72.2039V69.106H53.0594C52.4729 69.106 52 68.6331 52 68.0488V57.7959C52 57.2116 52.4728 56.7365 53.0594 56.7365H68.7387V41.0572C68.7387 40.4729 69.2116 40 69.7982 40H80.0487C80.633 40 81.1059 40.4728 81.1081 41.0572L81.108 44.1556ZM56.2111 62.712H56.2088C55.6245 62.712 55.1516 62.2369 55.1516 61.6526C55.1516 61.0682 55.6245 60.5954 56.2088 60.5954H59.5788C60.1632 60.5954 60.6383 61.0682 60.6383 61.6526C60.6383 62.2369 60.1632 62.712 59.5788 62.712H56.2111ZM62.4871 62.712C62.2016 62.7187 61.9251 62.6094 61.7221 62.4109C61.5192 62.2124 61.4032 61.9381 61.4032 61.6526C61.4032 61.3694 61.5192 61.095 61.7221 60.8965C61.9251 60.698 62.2017 60.5888 62.4871 60.5954H63.522H63.5198C63.8053 60.5888 64.0818 60.698 64.2847 60.8965C64.4877 61.095 64.6037 61.3694 64.6037 61.6526C64.6037 61.9381 64.4877 62.2124 64.2847 62.4109C64.0818 62.6094 63.8052 62.7187 63.5198 62.712H62.4871ZM69.7961 60.5954H69.7938C70.3804 60.5954 70.8533 61.0683 70.8533 61.6549C70.8533 62.2392 70.3804 62.7121 69.7938 62.7121H66.426C65.8417 62.7121 65.3666 62.2392 65.3666 61.6549C65.3666 61.0683 65.8417 60.5954 66.426 60.5954H69.7961Z" fill="black"/>
</svg>
