<svg width="273" height="149" viewBox="0 0 273 149" fill="none" xmlns="http://www.w3.org/2000/svg">
<path d="M2.52841 140V110.909H14.0057C16.2027 110.909 18.0777 111.302 19.6307 112.088C21.1932 112.865 22.3816 113.968 23.196 115.398C24.0199 116.818 24.4318 118.49 24.4318 120.412C24.4318 122.344 24.0152 124.006 23.1818 125.398C22.3485 126.78 21.1411 127.841 19.5597 128.58C17.9877 129.318 16.0843 129.688 13.8494 129.688H6.16477V124.744H12.8551C14.0294 124.744 15.0047 124.583 15.7812 124.261C16.5578 123.939 17.1354 123.456 17.5142 122.812C17.9025 122.169 18.0966 121.368 18.0966 120.412C18.0966 119.446 17.9025 118.632 17.5142 117.969C17.1354 117.306 16.553 116.804 15.767 116.463C14.9905 116.113 14.0104 115.938 12.8267 115.938H8.67898V140H2.52841ZM18.2386 126.761L25.4688 140H18.679L11.6051 126.761H18.2386ZM28.7784 140V110.909H48.3807V115.98H34.929V122.912H47.3722V127.983H34.929V134.929H48.4375V140H28.7784ZM72.5604 120.312C72.3615 119.621 72.0822 119.01 71.7223 118.48C71.3625 117.94 70.9221 117.486 70.4013 117.116C69.8899 116.738 69.3028 116.449 68.6399 116.25C67.9865 116.051 67.2621 115.952 66.4666 115.952C64.9799 115.952 63.6731 116.321 62.5462 117.06C61.4287 117.798 60.5575 118.873 59.9325 120.284C59.3075 121.686 58.995 123.4 58.995 125.426C58.995 127.453 59.3028 129.176 59.9183 130.597C60.5339 132.017 61.4051 133.101 62.532 133.849C63.6589 134.588 64.9893 134.957 66.5234 134.957C67.9155 134.957 69.1039 134.711 70.0888 134.219C71.0831 133.717 71.8407 133.011 72.3615 132.102C72.8918 131.193 73.157 130.118 73.157 128.878L74.407 129.062H66.907V124.432H79.0803V128.097C79.0803 130.653 78.5405 132.85 77.4609 134.688C76.3814 136.515 74.8946 137.926 73.0007 138.92C71.1068 139.905 68.9382 140.398 66.495 140.398C63.7678 140.398 61.3719 139.796 59.3075 138.594C57.2431 137.382 55.6333 135.663 54.478 133.438C53.3321 131.203 52.7592 128.551 52.7592 125.483C52.7592 123.125 53.1001 121.023 53.782 119.176C54.4732 117.32 55.4392 115.748 56.6797 114.46C57.9202 113.172 59.3643 112.192 61.0121 111.52C62.6598 110.848 64.4448 110.511 66.3672 110.511C68.0149 110.511 69.549 110.753 70.9695 111.236C72.3899 111.709 73.6494 112.382 74.7479 113.253C75.8558 114.124 76.7602 115.161 77.4609 116.364C78.1617 117.557 78.6115 118.873 78.8104 120.312H72.5604ZM87.8161 140H81.2251L91.2678 110.909H99.1939L109.222 140H102.631L95.3445 117.557H95.1172L87.8161 140ZM87.4041 128.565H102.972V133.366H87.4041V128.565ZM112.724 140V110.909H124.201C126.398 110.909 128.273 111.302 129.826 112.088C131.388 112.865 132.577 113.968 133.391 115.398C134.215 116.818 134.627 118.49 134.627 120.412C134.627 122.344 134.21 124.006 133.377 125.398C132.544 126.78 131.336 127.841 129.755 128.58C128.183 129.318 126.28 129.688 124.045 129.688H116.36V124.744H123.05C124.225 124.744 125.2 124.583 125.977 124.261C126.753 123.939 127.331 123.456 127.71 122.812C128.098 122.169 128.292 121.368 128.292 120.412C128.292 119.446 128.098 118.632 127.71 117.969C127.331 117.306 126.748 116.804 125.962 116.463C125.186 116.113 124.206 115.938 123.022 115.938H118.874V140H112.724ZM128.434 126.761L135.664 140H128.874L121.8 126.761H128.434ZM138.974 140V110.909H150.451C152.648 110.909 154.523 111.302 156.076 112.088C157.638 112.865 158.827 113.968 159.641 115.398C160.465 116.818 160.877 118.49 160.877 120.412C160.877 122.344 160.46 124.006 159.627 125.398C158.794 126.78 157.586 127.841 156.005 128.58C154.433 129.318 152.53 129.688 150.295 129.688H142.61V124.744H149.3C150.475 124.744 151.45 124.583 152.227 124.261C153.003 123.939 153.581 123.456 153.96 122.812C154.348 122.169 154.542 121.368 154.542 120.412C154.542 119.446 154.348 118.632 153.96 117.969C153.581 117.306 152.998 116.804 152.212 116.463C151.436 116.113 150.456 115.938 149.272 115.938H145.124V140H138.974ZM154.684 126.761L161.914 140H155.124L148.05 126.761H154.684ZM165.224 140V110.909H184.826V115.98H171.374V122.912H183.817V127.983H171.374V134.929H184.883V140H165.224ZM209.006 120.312C208.807 119.621 208.527 119.01 208.168 118.48C207.808 117.94 207.367 117.486 206.847 117.116C206.335 116.738 205.748 116.449 205.085 116.25C204.432 116.051 203.707 115.952 202.912 115.952C201.425 115.952 200.118 116.321 198.991 117.06C197.874 117.798 197.003 118.873 196.378 120.284C195.753 121.686 195.44 123.4 195.44 125.426C195.44 127.453 195.748 129.176 196.364 130.597C196.979 132.017 197.85 133.101 198.977 133.849C200.104 134.588 201.435 134.957 202.969 134.957C204.361 134.957 205.549 134.711 206.534 134.219C207.528 133.717 208.286 133.011 208.807 132.102C209.337 131.193 209.602 130.118 209.602 128.878L210.852 129.062H203.352V124.432H215.526V128.097C215.526 130.653 214.986 132.85 213.906 134.688C212.827 136.515 211.34 137.926 209.446 138.92C207.552 139.905 205.384 140.398 202.94 140.398C200.213 140.398 197.817 139.796 195.753 138.594C193.688 137.382 192.079 135.663 190.923 133.438C189.777 131.203 189.205 128.551 189.205 125.483C189.205 123.125 189.545 121.023 190.227 119.176C190.919 117.32 191.884 115.748 193.125 114.46C194.366 113.172 195.81 112.192 197.457 111.52C199.105 110.848 200.89 110.511 202.812 110.511C204.46 110.511 205.994 110.753 207.415 111.236C208.835 111.709 210.095 112.382 211.193 113.253C212.301 114.124 213.205 115.161 213.906 116.364C214.607 117.557 215.057 118.873 215.256 120.312H209.006ZM224.261 140H217.67L227.713 110.909H235.639L245.668 140H239.077L231.79 117.557H231.562L224.261 140ZM223.849 128.565H239.418V133.366H223.849V128.565ZM249.169 140V110.909H260.646C262.843 110.909 264.718 111.302 266.271 112.088C267.834 112.865 269.022 113.968 269.837 115.398C270.661 116.818 271.072 118.49 271.072 120.412C271.072 122.344 270.656 124.006 269.822 125.398C268.989 126.78 267.782 127.841 266.2 128.58C264.628 129.318 262.725 129.688 260.49 129.688H252.805V124.744H259.496C260.67 124.744 261.645 124.583 262.422 124.261C263.198 123.939 263.776 123.456 264.155 122.812C264.543 122.169 264.737 121.368 264.737 120.412C264.737 119.446 264.543 118.632 264.155 117.969C263.776 117.306 263.194 116.804 262.408 116.463C261.631 116.113 260.651 115.938 259.467 115.938H255.32V140H249.169ZM264.879 126.761L272.109 140H265.32L258.246 126.761H264.879Z" fill="#FF0000"/>
<path d="M116.962 77.8239H139.197L100.267 38.9329L122.493 16.6749L100.267 16.6689L78 38.9189L116.962 77.8239Z" fill="#FF0000"/>
<path d="M128.062 0H105.814L144.723 38.908L122.501 61.165H144.728L166.978 38.919L128.062 0Z" fill="#FF0000"/>
<rect x="161" y="53" width="8" height="42" fill="white"/>
<rect x="144" y="69" width="42" height="10" fill="white"/>
<rect x="166" y="57" width="9" height="42" fill="white"/>
<rect x="149" y="74" width="42" height="9" fill="white"/>
<path fill-rule="evenodd" clip-rule="evenodd" d="M168.989 53.1167H160.855V68.796C160.855 69.077 160.744 69.3469 160.545 69.5454C160.347 69.7439 160.077 69.8554 159.798 69.8554H144.116V77.9894H159.798C160.077 77.9894 160.347 78.1009 160.545 78.2994C160.744 78.4979 160.855 78.7678 160.855 79.0488V94.7281H168.989V79.0488C168.989 78.4622 169.464 77.9894 170.049 77.9894H185.728V69.8554H170.049C169.464 69.8554 168.989 69.3803 168.989 68.796V53.1167ZM149.659 80.1062H158.736V82.1448H149.659V80.1062ZM166.398 96.8447H170.051C170.635 96.8447 171.11 96.3696 171.11 95.7853V80.106H186.787C187.068 80.106 187.338 79.9967 187.537 79.7982C187.737 79.5997 187.849 79.3298 187.849 79.0488V74.0105H191.275V82.1444H175.589C175.004 82.1444 174.531 82.6195 174.531 83.2039V98.8832H166.397L166.398 96.8447ZM174.583 67.7368H171.108V57.2722H174.534V67.4114C174.534 67.5229 174.549 67.6322 174.585 67.737L174.583 67.7368ZM171.108 55.1556H175.589C175.87 55.1556 176.14 55.2671 176.338 55.4656C176.537 55.6641 176.648 55.934 176.648 56.215V67.4111C176.648 67.5226 176.63 67.6319 176.597 67.7367H186.788C187.069 67.7367 187.338 67.8482 187.537 68.0467C187.738 68.2452 187.849 68.5151 187.849 68.7961V71.8941H192.332C192.914 71.8963 193.387 72.3691 193.387 72.9513V83.2041C193.387 83.4851 193.276 83.755 193.077 83.9535C192.879 84.152 192.609 84.2635 192.328 84.2635H176.648V99.9428C176.648 100.224 176.537 100.491 176.338 100.69C176.14 100.888 175.87 101 175.589 101H165.338C164.754 101 164.281 100.527 164.279 99.9428V96.8449H159.798C159.212 96.8449 158.739 96.372 158.739 95.7854V84.2633H148.6C148.015 84.2633 147.54 83.7883 147.54 83.2039V80.106H143.059C142.473 80.106 142 79.6331 142 79.0488V68.7959C142 68.2116 142.473 67.7365 143.059 67.7365H158.739V52.0572C158.739 51.4729 159.212 51 159.798 51H170.049C170.633 51 171.106 51.4728 171.108 52.0572L171.108 55.1556ZM146.211 73.712H146.209C145.625 73.712 145.152 73.2369 145.152 72.6526C145.152 72.0682 145.624 71.5954 146.209 71.5954H149.579C150.163 71.5954 150.638 72.0682 150.638 72.6526C150.638 73.2369 150.163 73.712 149.579 73.712H146.211ZM152.487 73.712C152.202 73.7187 151.925 73.6094 151.722 73.4109C151.519 73.2124 151.403 72.9381 151.403 72.6526C151.403 72.3694 151.519 72.095 151.722 71.8965C151.925 71.698 152.202 71.5888 152.487 71.5954H153.522H153.52C153.805 71.5888 154.082 71.698 154.285 71.8965C154.488 72.095 154.604 72.3694 154.604 72.6526C154.604 72.9381 154.488 73.2124 154.285 73.4109C154.082 73.6094 153.805 73.7187 153.52 73.712H152.487ZM159.796 71.5954H159.794C160.38 71.5954 160.853 72.0683 160.853 72.6549C160.853 73.2392 160.38 73.7121 159.794 73.7121H156.426C155.842 73.7121 155.367 73.2392 155.367 72.6549C155.367 72.0683 155.842 71.5954 156.426 71.5954H159.796Z" fill="black"/>
</svg>
