<svg width="190" height="155" viewBox="0 0 190 155" fill="none" xmlns="http://www.w3.org/2000/svg">
<path d="M2.52841 146V116.909H22.1307V121.98H8.67898V128.912H21.1222V133.983H8.67898V140.929H22.1875V146H2.52841ZM32.7876 116.909L38.6541 126.824H38.8814L44.7763 116.909H51.7223L42.8445 131.455L51.9212 146H44.8473L38.8814 136.071H38.6541L32.6882 146H25.6428L34.7479 131.455L25.8132 116.909H32.7876ZM54.5064 121.98V116.909H78.3984V121.98H69.4922V146H63.4126V121.98H54.5064ZM82.3331 146V116.909H93.8104C96.0073 116.909 97.8823 117.302 99.4354 118.088C100.998 118.865 102.186 119.968 103.001 121.398C103.825 122.818 104.237 124.49 104.237 126.412C104.237 128.344 103.82 130.006 102.987 131.398C102.153 132.78 100.946 133.841 99.3643 134.58C97.7924 135.318 95.889 135.688 93.6541 135.688H85.9695V130.744H92.6598C93.834 130.744 94.8094 130.583 95.5859 130.261C96.3625 129.939 96.9401 129.456 97.3189 128.812C97.7071 128.169 97.9013 127.368 97.9013 126.412C97.9013 125.446 97.7071 124.632 97.3189 123.969C96.9401 123.306 96.3577 122.804 95.5717 122.463C94.7952 122.113 93.8151 121.938 92.6314 121.938H88.4837V146H82.3331ZM98.0433 132.761L105.273 146H98.4837L91.4098 132.761H98.0433ZM113.597 146H107.006L117.049 116.909H124.975L135.004 146H128.413L121.126 123.557H120.898L113.597 146ZM113.185 134.565H128.754V139.366H113.185V134.565ZM133.842 121.98V116.909H157.734V121.98H148.828V146H142.749V121.98H133.842ZM187.074 131.455C187.074 134.627 186.473 137.326 185.27 139.551C184.077 141.777 182.448 143.476 180.384 144.651C178.329 145.815 176.018 146.398 173.452 146.398C170.866 146.398 168.546 145.811 166.491 144.636C164.437 143.462 162.813 141.762 161.619 139.537C160.426 137.312 159.83 134.617 159.83 131.455C159.83 128.282 160.426 125.583 161.619 123.358C162.813 121.133 164.437 119.437 166.491 118.273C168.546 117.098 170.866 116.511 173.452 116.511C176.018 116.511 178.329 117.098 180.384 118.273C182.448 119.437 184.077 121.133 185.27 123.358C186.473 125.583 187.074 128.282 187.074 131.455ZM180.838 131.455C180.838 129.4 180.53 127.667 179.915 126.256C179.309 124.845 178.452 123.775 177.344 123.045C176.236 122.316 174.938 121.952 173.452 121.952C171.965 121.952 170.668 122.316 169.56 123.045C168.452 123.775 167.59 124.845 166.974 126.256C166.368 127.667 166.065 129.4 166.065 131.455C166.065 133.509 166.368 135.242 166.974 136.653C167.59 138.064 168.452 139.134 169.56 139.864C170.668 140.593 171.965 140.957 173.452 140.957C174.938 140.957 176.236 140.593 177.344 139.864C178.452 139.134 179.309 138.064 179.915 136.653C180.53 135.242 180.838 133.509 180.838 131.455Z" fill="#FF0000"/>
<path d="M75.962 77.8239H98.197L59.267 38.9329L81.493 16.6749L59.267 16.6689L37 38.9189L75.962 77.8239Z" fill="#FF0000"/>
<path d="M87.062 0H64.814L103.723 38.908L81.501 61.165H103.728L125.978 38.919L87.062 0Z" fill="#FF0000"/>
<rect x="120" y="53" width="8" height="42" fill="white"/>
<rect x="103" y="69" width="42" height="10" fill="white"/>
<rect x="125" y="57" width="9" height="42" fill="white"/>
<rect x="108" y="74" width="42" height="9" fill="white"/>
<path fill-rule="evenodd" clip-rule="evenodd" d="M127.989 53.1167H119.855V68.796C119.855 69.077 119.744 69.3469 119.545 69.5454C119.347 69.7439 119.077 69.8554 118.798 69.8554H103.116V77.9894H118.798C119.077 77.9894 119.347 78.1009 119.545 78.2994C119.744 78.4979 119.855 78.7678 119.855 79.0488V94.7281H127.989V79.0488C127.989 78.4622 128.464 77.9894 129.049 77.9894H144.728V69.8554H129.049C128.464 69.8554 127.989 69.3803 127.989 68.796V53.1167ZM108.659 80.1062H117.736V82.1448H108.659V80.1062ZM125.398 96.8447H129.051C129.635 96.8447 130.11 96.3696 130.11 95.7853V80.106H145.787C146.068 80.106 146.338 79.9967 146.537 79.7982C146.737 79.5997 146.849 79.3298 146.849 79.0488V74.0105H150.275V82.1444H134.589C134.004 82.1444 133.531 82.6195 133.531 83.2039V98.8832H125.397L125.398 96.8447ZM133.583 67.7368H130.108V57.2722H133.534V67.4114C133.534 67.5229 133.549 67.6322 133.585 67.737L133.583 67.7368ZM130.108 55.1556H134.589C134.87 55.1556 135.14 55.2671 135.338 55.4656C135.537 55.6641 135.648 55.934 135.648 56.215V67.4111C135.648 67.5226 135.63 67.6319 135.597 67.7367H145.788C146.069 67.7367 146.338 67.8482 146.537 68.0467C146.738 68.2452 146.849 68.5151 146.849 68.7961V71.8941H151.332C151.914 71.8963 152.387 72.3691 152.387 72.9513V83.2041C152.387 83.4851 152.276 83.755 152.077 83.9535C151.879 84.152 151.609 84.2635 151.328 84.2635H135.648V99.9428C135.648 100.224 135.537 100.491 135.338 100.69C135.14 100.888 134.87 101 134.589 101H124.338C123.754 101 123.281 100.527 123.279 99.9428V96.8449H118.798C118.212 96.8449 117.739 96.372 117.739 95.7854V84.2633H107.6C107.015 84.2633 106.54 83.7883 106.54 83.2039V80.106H102.059C101.473 80.106 101 79.6331 101 79.0488V68.7959C101 68.2116 101.473 67.7365 102.059 67.7365H117.739V52.0572C117.739 51.4729 118.212 51 118.798 51H129.049C129.633 51 130.106 51.4728 130.108 52.0572L130.108 55.1556ZM105.211 73.712H105.209C104.625 73.712 104.152 73.2369 104.152 72.6526C104.152 72.0682 104.624 71.5954 105.209 71.5954H108.579C109.163 71.5954 109.638 72.0682 109.638 72.6526C109.638 73.2369 109.163 73.712 108.579 73.712H105.211ZM111.487 73.712C111.202 73.7187 110.925 73.6094 110.722 73.4109C110.519 73.2124 110.403 72.9381 110.403 72.6526C110.403 72.3694 110.519 72.095 110.722 71.8965C110.925 71.698 111.202 71.5888 111.487 71.5954H112.522H112.52C112.805 71.5888 113.082 71.698 113.285 71.8965C113.488 72.095 113.604 72.3694 113.604 72.6526C113.604 72.9381 113.488 73.2124 113.285 73.4109C113.082 73.6094 112.805 73.7187 112.52 73.712H111.487ZM118.796 71.5954H118.794C119.38 71.5954 119.853 72.0683 119.853 72.6549C119.853 73.2392 119.38 73.7121 118.794 73.7121H115.426C114.842 73.7121 114.367 73.2392 114.367 72.6549C114.367 72.0683 114.842 71.5954 115.426 71.5954H118.796Z" fill="black"/>
</svg>
