<svg width="135" height="149" viewBox="0 0 135 149" fill="none" xmlns="http://www.w3.org/2000/svg">
<path d="M2.52841 140V110.909H14.0057C16.2027 110.909 18.0777 111.302 19.6307 112.088C21.1932 112.865 22.3816 113.968 23.196 115.398C24.0199 116.818 24.4318 118.49 24.4318 120.412C24.4318 122.344 24.0152 124.006 23.1818 125.398C22.3485 126.78 21.1411 127.841 19.5597 128.58C17.9877 129.318 16.0843 129.688 13.8494 129.688H6.16477V124.744H12.8551C14.0294 124.744 15.0047 124.583 15.7812 124.261C16.5578 123.939 17.1354 123.456 17.5142 122.812C17.9025 122.169 18.0966 121.368 18.0966 120.412C18.0966 119.446 17.9025 118.632 17.5142 117.969C17.1354 117.306 16.553 116.804 15.767 116.463C14.9905 116.113 14.0104 115.938 12.8267 115.938H8.67898V140H2.52841ZM18.2386 126.761L25.4688 140H18.679L11.6051 126.761H18.2386ZM55.5114 125.455C55.5114 128.627 54.91 131.326 53.7074 133.551C52.5142 135.777 50.8854 137.476 48.821 138.651C46.7661 139.815 44.4555 140.398 41.8892 140.398C39.304 140.398 36.9839 139.811 34.929 138.636C32.8741 137.462 31.25 135.762 30.0568 133.537C28.8636 131.312 28.267 128.617 28.267 125.455C28.267 122.282 28.8636 119.583 30.0568 117.358C31.25 115.133 32.8741 113.437 34.929 112.273C36.9839 111.098 39.304 110.511 41.8892 110.511C44.4555 110.511 46.7661 111.098 48.821 112.273C50.8854 113.437 52.5142 115.133 53.7074 117.358C54.91 119.583 55.5114 122.282 55.5114 125.455ZM49.2756 125.455C49.2756 123.4 48.9678 121.667 48.3523 120.256C47.7462 118.845 46.8892 117.775 45.7812 117.045C44.6733 116.316 43.3759 115.952 41.8892 115.952C40.4025 115.952 39.1051 116.316 37.9972 117.045C36.8892 117.775 36.0275 118.845 35.4119 120.256C34.8059 121.667 34.5028 123.4 34.5028 125.455C34.5028 127.509 34.8059 129.242 35.4119 130.653C36.0275 132.064 36.8892 133.134 37.9972 133.864C39.1051 134.593 40.4025 134.957 41.8892 134.957C43.3759 134.957 44.6733 134.593 45.7812 133.864C46.8892 133.134 47.7462 132.064 48.3523 130.653C48.9678 129.242 49.2756 127.509 49.2756 125.455ZM57.6314 115.98V110.909H81.5234V115.98H72.6172V140H66.5376V115.98H57.6314ZM86.9176 140H80.3267L90.3693 110.909H98.2955L108.324 140H101.733L94.446 117.557H94.2188L86.9176 140ZM86.5057 128.565H102.074V133.366H86.5057V128.565ZM126.942 119.276C126.829 118.13 126.341 117.24 125.479 116.605C124.618 115.971 123.448 115.653 121.971 115.653C120.967 115.653 120.12 115.795 119.428 116.08C118.737 116.354 118.207 116.738 117.837 117.23C117.478 117.723 117.298 118.281 117.298 118.906C117.279 119.427 117.388 119.882 117.624 120.27C117.871 120.658 118.207 120.994 118.633 121.278C119.059 121.553 119.551 121.795 120.11 122.003C120.669 122.202 121.265 122.372 121.9 122.514L124.513 123.139C125.782 123.423 126.947 123.802 128.008 124.276C129.068 124.749 129.987 125.331 130.763 126.023C131.54 126.714 132.141 127.528 132.567 128.466C133.003 129.403 133.226 130.478 133.235 131.69C133.226 133.471 132.771 135.014 131.871 136.321C130.981 137.618 129.693 138.627 128.008 139.347C126.332 140.057 124.31 140.412 121.942 140.412C119.594 140.412 117.549 140.052 115.806 139.332C114.073 138.613 112.719 137.547 111.744 136.136C110.778 134.716 110.271 132.959 110.224 130.866H116.175C116.242 131.842 116.521 132.656 117.013 133.31C117.515 133.954 118.183 134.441 119.016 134.773C119.859 135.095 120.811 135.256 121.871 135.256C122.913 135.256 123.817 135.104 124.585 134.801C125.361 134.498 125.962 134.077 126.388 133.537C126.815 132.997 127.028 132.377 127.028 131.676C127.028 131.023 126.834 130.473 126.445 130.028C126.067 129.583 125.508 129.205 124.769 128.892C124.04 128.58 123.145 128.295 122.085 128.04L118.917 127.244C116.464 126.648 114.528 125.715 113.107 124.446C111.687 123.177 110.981 121.468 110.991 119.318C110.981 117.557 111.45 116.018 112.397 114.702C113.353 113.385 114.665 112.358 116.332 111.619C117.998 110.881 119.892 110.511 122.013 110.511C124.173 110.511 126.057 110.881 127.667 111.619C129.286 112.358 130.546 113.385 131.445 114.702C132.345 116.018 132.809 117.543 132.837 119.276H126.942Z" fill="#FF0000"/>
<path d="M47.962 77.8239H70.197L31.267 38.9329L53.493 16.6749L31.267 16.6689L9 38.9189L47.962 77.8239Z" fill="#FF0000"/>
<path d="M59.062 0H36.814L75.723 38.908L53.501 61.165H75.728L97.978 38.919L59.062 0Z" fill="#FF0000"/>
<rect x="92" y="53" width="8" height="42" fill="white"/>
<rect x="75" y="69" width="42" height="10" fill="white"/>
<rect x="97" y="57" width="9" height="42" fill="white"/>
<rect x="80" y="74" width="42" height="9" fill="white"/>
<path fill-rule="evenodd" clip-rule="evenodd" d="M99.9891 53.1167H91.8551V68.796C91.8551 69.077 91.7436 69.3469 91.5451 69.5454C91.3466 69.7439 91.0768 69.8554 90.798 69.8554H75.1164V77.9894H90.798C91.0767 77.9894 91.3466 78.1009 91.5451 78.2994C91.7436 78.4979 91.8551 78.7678 91.8551 79.0488V94.7281H99.9891V79.0488C99.9891 78.4622 100.464 77.9894 101.049 77.9894H116.728V69.8554H101.049C100.464 69.8554 99.9891 69.3803 99.9891 68.796V53.1167ZM80.6591 80.1062H89.7363V82.1448H80.6591V80.1062ZM97.3975 96.8447H101.051C101.635 96.8447 102.11 96.3696 102.11 95.7853V80.106H117.787C118.068 80.106 118.338 79.9967 118.537 79.7982C118.737 79.5997 118.849 79.3298 118.849 79.0488V74.0105H122.275V82.1444H106.589C106.004 82.1444 105.531 82.6195 105.531 83.2039V98.8832H97.3973L97.3975 96.8447ZM105.583 67.7368H102.108V57.2722H105.534V67.4114C105.534 67.5229 105.549 67.6322 105.585 67.737L105.583 67.7368ZM102.108 55.1556H106.589C106.87 55.1556 107.14 55.2671 107.338 55.4656C107.537 55.6641 107.648 55.934 107.648 56.215V67.4111C107.648 67.5226 107.63 67.6319 107.597 67.7367H117.788C118.069 67.7367 118.338 67.8482 118.537 68.0467C118.738 68.2452 118.849 68.5151 118.849 68.7961V71.8941H123.332C123.914 71.8963 124.387 72.3691 124.387 72.9513V83.2041C124.387 83.4851 124.276 83.755 124.077 83.9535C123.879 84.152 123.609 84.2635 123.328 84.2635H107.648V99.9428C107.648 100.224 107.537 100.491 107.338 100.69C107.14 100.888 106.87 101 106.589 101H96.3385C95.7541 101 95.2813 100.527 95.279 99.9428V96.8449H90.7983C90.2117 96.8449 89.7388 96.372 89.7388 95.7854V84.2633H79.5996C79.0153 84.2633 78.5402 83.7883 78.5402 83.2039V80.106H74.0594C73.4729 80.106 73 79.6331 73 79.0488V68.7959C73 68.2116 73.4728 67.7365 74.0594 67.7365H89.7387V52.0572C89.7387 51.4729 90.2116 51 90.7982 51H101.049C101.633 51 102.106 51.4728 102.108 52.0572L102.108 55.1556ZM77.2111 73.712H77.2088C76.6245 73.712 76.1516 73.2369 76.1516 72.6526C76.1516 72.0682 76.6245 71.5954 77.2088 71.5954H80.5788C81.1632 71.5954 81.6383 72.0682 81.6383 72.6526C81.6383 73.2369 81.1632 73.712 80.5788 73.712H77.2111ZM83.4871 73.712C83.2016 73.7187 82.9251 73.6094 82.7221 73.4109C82.5192 73.2124 82.4032 72.9381 82.4032 72.6526C82.4032 72.3694 82.5192 72.095 82.7221 71.8965C82.9251 71.698 83.2017 71.5888 83.4871 71.5954H84.522H84.5198C84.8052 71.5888 85.0818 71.698 85.2847 71.8965C85.4877 72.095 85.6037 72.3694 85.6037 72.6526C85.6037 72.9381 85.4877 73.2124 85.2847 73.4109C85.0818 73.6094 84.8052 73.7187 84.5198 73.712H83.4871ZM90.7961 71.5954H90.7938C91.3804 71.5954 91.8533 72.0683 91.8533 72.6549C91.8533 73.2392 91.3804 73.7121 90.7938 73.7121H87.426C86.8417 73.7121 86.3666 73.2392 86.3666 72.6549C86.3666 72.0683 86.8417 71.5954 87.426 71.5954H90.7961Z" fill="black"/>
</svg>
