<svg width="158" height="143" viewBox="0 0 158 143" fill="none" xmlns="http://www.w3.org/2000/svg">
<path d="M18.3097 113.276C18.196 112.13 17.7083 111.24 16.8466 110.605C15.9848 109.971 14.8153 109.653 13.3381 109.653C12.3343 109.653 11.4867 109.795 10.7955 110.08C10.1042 110.354 9.57386 110.738 9.20455 111.23C8.8447 111.723 8.66477 112.281 8.66477 112.906C8.64583 113.427 8.75473 113.882 8.99148 114.27C9.23769 114.658 9.57386 114.994 10 115.278C10.4261 115.553 10.9186 115.795 11.4773 116.003C12.036 116.202 12.6326 116.372 13.267 116.514L15.8807 117.139C17.1496 117.423 18.3144 117.802 19.375 118.276C20.4356 118.749 21.3542 119.331 22.1307 120.023C22.9072 120.714 23.5085 121.528 23.9347 122.466C24.3703 123.403 24.5928 124.478 24.6023 125.69C24.5928 127.471 24.1383 129.014 23.2386 130.321C22.3485 131.618 21.0606 132.627 19.375 133.347C17.6989 134.057 15.6771 134.412 13.3097 134.412C10.9612 134.412 8.91572 134.052 7.1733 133.332C5.44034 132.613 4.08617 131.547 3.1108 130.136C2.14489 128.716 1.63826 126.959 1.59091 124.866H7.54261C7.6089 125.842 7.88826 126.656 8.38068 127.31C8.88258 127.954 9.55019 128.441 10.3835 128.773C11.2263 129.095 12.178 129.256 13.2386 129.256C14.2803 129.256 15.1847 129.104 15.9517 128.801C16.7282 128.498 17.3295 128.077 17.7557 127.537C18.1818 126.997 18.3949 126.377 18.3949 125.676C18.3949 125.023 18.2008 124.473 17.8125 124.028C17.4337 123.583 16.875 123.205 16.1364 122.892C15.4072 122.58 14.5123 122.295 13.4517 122.04L10.2841 121.244C7.83144 120.648 5.89489 119.715 4.47443 118.446C3.05398 117.177 2.34848 115.468 2.35795 113.318C2.34848 111.557 2.81723 110.018 3.7642 108.702C4.72064 107.385 6.0322 106.358 7.69886 105.619C9.36553 104.881 11.2595 104.511 13.3807 104.511C15.5398 104.511 17.4242 104.881 19.0341 105.619C20.6534 106.358 21.9129 107.385 22.8125 108.702C23.7121 110.018 24.1761 111.543 24.2045 113.276H18.3097ZM27.6314 109.98V104.909H51.5234V109.98H42.6172V134H36.5376V109.98H27.6314ZM56.9176 134H50.3267L60.3693 104.909H68.2955L78.3239 134H71.733L64.446 111.557H64.2188L56.9176 134ZM56.5057 122.565H72.0739V127.366H56.5057V122.565ZM77.1626 109.98V104.909H101.055V109.98H92.1484V134H86.0689V109.98H77.1626ZM122.958 104.909H129.109V123.801C129.109 125.922 128.602 127.778 127.589 129.369C126.585 130.96 125.179 132.201 123.37 133.091C121.561 133.972 119.454 134.412 117.049 134.412C114.634 134.412 112.522 133.972 110.714 133.091C108.905 132.201 107.499 130.96 106.495 129.369C105.491 127.778 104.989 125.922 104.989 123.801V104.909H111.14V123.276C111.14 124.384 111.381 125.368 111.864 126.23C112.357 127.092 113.048 127.769 113.938 128.261C114.828 128.754 115.865 129 117.049 129C118.242 129 119.279 128.754 120.16 128.261C121.05 127.769 121.737 127.092 122.219 126.23C122.712 125.368 122.958 124.384 122.958 123.276V104.909ZM149.95 113.276C149.837 112.13 149.349 111.24 148.487 110.605C147.625 109.971 146.456 109.653 144.979 109.653C143.975 109.653 143.127 109.795 142.436 110.08C141.745 110.354 141.214 110.738 140.845 111.23C140.485 111.723 140.305 112.281 140.305 112.906C140.286 113.427 140.395 113.882 140.632 114.27C140.878 114.658 141.214 114.994 141.641 115.278C142.067 115.553 142.559 115.795 143.118 116.003C143.677 116.202 144.273 116.372 144.908 116.514L147.521 117.139C148.79 117.423 149.955 117.802 151.016 118.276C152.076 118.749 152.995 119.331 153.771 120.023C154.548 120.714 155.149 121.528 155.575 122.466C156.011 123.403 156.233 124.478 156.243 125.69C156.233 127.471 155.779 129.014 154.879 130.321C153.989 131.618 152.701 132.627 151.016 133.347C149.339 134.057 147.318 134.412 144.95 134.412C142.602 134.412 140.556 134.052 138.814 133.332C137.081 132.613 135.727 131.547 134.751 130.136C133.786 128.716 133.279 126.959 133.232 124.866H139.183C139.25 125.842 139.529 126.656 140.021 127.31C140.523 127.954 141.191 128.441 142.024 128.773C142.867 129.095 143.819 129.256 144.879 129.256C145.921 129.256 146.825 129.104 147.592 128.801C148.369 128.498 148.97 128.077 149.396 127.537C149.822 126.997 150.036 126.377 150.036 125.676C150.036 125.023 149.841 124.473 149.453 124.028C149.074 123.583 148.516 123.205 147.777 122.892C147.048 122.58 146.153 122.295 145.092 122.04L141.925 121.244C139.472 120.648 137.536 119.715 136.115 118.446C134.695 117.177 133.989 115.468 133.999 113.318C133.989 111.557 134.458 110.018 135.405 108.702C136.361 107.385 137.673 106.358 139.339 105.619C141.006 104.881 142.9 104.511 145.021 104.511C147.18 104.511 149.065 104.881 150.675 105.619C152.294 106.358 153.554 107.385 154.453 108.702C155.353 110.018 155.817 111.543 155.845 113.276H149.95Z" fill="#FF0000"/>
<path d="M54.962 77.8239H77.197L38.267 38.9329L60.493 16.6749L38.267 16.6689L16 38.9189L54.962 77.8239Z" fill="#FF0000"/>
<path d="M66.062 0H43.814L82.723 38.908L60.501 61.165H82.728L104.978 38.919L66.062 0Z" fill="#FF0000"/>
<rect x="99" y="53" width="8" height="42" fill="white"/>
<rect x="82" y="69" width="42" height="10" fill="white"/>
<rect x="104" y="57" width="9" height="42" fill="white"/>
<rect x="87" y="74" width="42" height="9" fill="white"/>
<path fill-rule="evenodd" clip-rule="evenodd" d="M106.989 53.1167H98.8551V68.796C98.8551 69.077 98.7436 69.3469 98.5451 69.5454C98.3466 69.7439 98.0768 69.8554 97.798 69.8554H82.1164V77.9894H97.798C98.0767 77.9894 98.3466 78.1009 98.5451 78.2994C98.7436 78.4979 98.8551 78.7678 98.8551 79.0488V94.7281H106.989V79.0488C106.989 78.4622 107.464 77.9894 108.049 77.9894H123.728V69.8554H108.049C107.464 69.8554 106.989 69.3803 106.989 68.796V53.1167ZM87.6591 80.1062H96.7363V82.1448H87.6591V80.1062ZM104.398 96.8447H108.051C108.635 96.8447 109.11 96.3696 109.11 95.7853V80.106H124.787C125.068 80.106 125.338 79.9967 125.537 79.7982C125.737 79.5997 125.849 79.3298 125.849 79.0488V74.0105H129.275V82.1444H113.589C113.004 82.1444 112.531 82.6195 112.531 83.2039V98.8832H104.397L104.398 96.8447ZM112.583 67.7368H109.108V57.2722H112.534V67.4114C112.534 67.5229 112.549 67.6322 112.585 67.737L112.583 67.7368ZM109.108 55.1556H113.589C113.87 55.1556 114.14 55.2671 114.338 55.4656C114.537 55.6641 114.648 55.934 114.648 56.215V67.4111C114.648 67.5226 114.63 67.6319 114.597 67.7367H124.788C125.069 67.7367 125.338 67.8482 125.537 68.0467C125.738 68.2452 125.849 68.5151 125.849 68.7961V71.8941H130.332C130.914 71.8963 131.387 72.3691 131.387 72.9513V83.2041C131.387 83.4851 131.276 83.755 131.077 83.9535C130.879 84.152 130.609 84.2635 130.328 84.2635H114.648V99.9428C114.648 100.224 114.537 100.491 114.338 100.69C114.14 100.888 113.87 101 113.589 101H103.338C102.754 101 102.281 100.527 102.279 99.9428V96.8449H97.7983C97.2117 96.8449 96.7388 96.372 96.7388 95.7854V84.2633H86.5996C86.0153 84.2633 85.5402 83.7883 85.5402 83.2039V80.106H81.0594C80.4729 80.106 80 79.6331 80 79.0488V68.7959C80 68.2116 80.4728 67.7365 81.0594 67.7365H96.7387V52.0572C96.7387 51.4729 97.2116 51 97.7982 51H108.049C108.633 51 109.106 51.4728 109.108 52.0572L109.108 55.1556ZM84.2111 73.712H84.2088C83.6245 73.712 83.1516 73.2369 83.1516 72.6526C83.1516 72.0682 83.6245 71.5954 84.2088 71.5954H87.5788C88.1632 71.5954 88.6383 72.0682 88.6383 72.6526C88.6383 73.2369 88.1632 73.712 87.5788 73.712H84.2111ZM90.4871 73.712C90.2016 73.7187 89.9251 73.6094 89.7221 73.4109C89.5192 73.2124 89.4032 72.9381 89.4032 72.6526C89.4032 72.3694 89.5192 72.095 89.7221 71.8965C89.9251 71.698 90.2017 71.5888 90.4871 71.5954H91.522H91.5198C91.8052 71.5888 92.0818 71.698 92.2847 71.8965C92.4877 72.095 92.6037 72.3694 92.6037 72.6526C92.6037 72.9381 92.4877 73.2124 92.2847 73.4109C92.0818 73.6094 91.8052 73.7187 91.5198 73.712H90.4871ZM97.7961 71.5954H97.7938C98.3804 71.5954 98.8533 72.0683 98.8533 72.6549C98.8533 73.2392 98.3804 73.7121 97.7938 73.7121H94.426C93.8417 73.7121 93.3666 73.2392 93.3666 72.6549C93.3666 72.0683 93.8417 71.5954 94.426 71.5954H97.7961Z" fill="black"/>
</svg>
