<svg width="330" height="40" viewBox="0 0 330 40" fill="none" xmlns="http://www.w3.org/2000/svg">
<path d="M51.517 29V11.5455H63.2784V14.5881H55.2074V18.7472H62.6733V21.7898H55.2074V25.9574H63.3125V29H51.517ZM72.3999 29H66.2124V11.5455H72.451C74.2067 11.5455 75.718 11.8949 76.9851 12.5938C78.2521 13.2869 79.2266 14.2841 79.9084 15.5852C80.5959 16.8864 80.9396 18.4432 80.9396 20.2557C80.9396 22.0739 80.5959 23.6364 79.9084 24.9432C79.2266 26.25 78.2464 27.2528 76.968 27.9517C75.6953 28.6506 74.1726 29 72.3999 29ZM69.9027 25.8381H72.2464C73.3374 25.8381 74.255 25.6449 74.9993 25.2585C75.7493 24.8665 76.3118 24.2614 76.6868 23.4432C77.0675 22.6193 77.2578 21.5568 77.2578 20.2557C77.2578 18.9659 77.0675 17.9119 76.6868 17.0938C76.3118 16.2756 75.7521 15.6733 75.0078 15.2869C74.2635 14.9006 73.3459 14.7074 72.255 14.7074H69.9027V25.8381ZM87.3636 11.5455V29H83.6733V11.5455H87.3636ZM89.7351 14.5881V11.5455H104.07V14.5881H98.7266V29H95.0788V14.5881H89.7351ZM106.431 29V11.5455H118.192V14.5881H110.121V18.7472H117.587V21.7898H110.121V25.9574H118.227V29H106.431ZM136.15 16.5653C136.082 15.8778 135.789 15.3437 135.272 14.9631C134.755 14.5824 134.053 14.392 133.167 14.392C132.565 14.392 132.056 14.4773 131.641 14.6477C131.227 14.8125 130.908 15.0426 130.687 15.3381C130.471 15.6335 130.363 15.9688 130.363 16.3438C130.352 16.6562 130.417 16.929 130.559 17.1619C130.707 17.3949 130.908 17.5966 131.164 17.767C131.42 17.9318 131.715 18.0767 132.05 18.2017C132.386 18.321 132.744 18.4233 133.124 18.5085L134.692 18.8835C135.454 19.054 136.153 19.2812 136.789 19.5653C137.425 19.8494 137.977 20.1989 138.442 20.6136C138.908 21.0284 139.269 21.517 139.525 22.0795C139.786 22.642 139.92 23.2869 139.925 24.0142C139.92 25.0824 139.647 26.0085 139.107 26.7926C138.573 27.571 137.8 28.1761 136.789 28.608C135.783 29.0341 134.57 29.2472 133.15 29.2472C131.741 29.2472 130.513 29.0312 129.468 28.5994C128.428 28.1676 127.616 27.5284 127.031 26.6818C126.451 25.8295 126.147 24.7756 126.119 23.5199H129.69C129.729 24.1051 129.897 24.5937 130.192 24.9858C130.494 25.3722 130.894 25.6648 131.394 25.8636C131.9 26.0568 132.471 26.1534 133.107 26.1534C133.732 26.1534 134.275 26.0625 134.735 25.8807C135.201 25.6989 135.562 25.446 135.817 25.1222C136.073 24.7983 136.201 24.4261 136.201 24.0057C136.201 23.6136 136.085 23.2841 135.852 23.017C135.624 22.75 135.289 22.5227 134.846 22.3352C134.408 22.1477 133.871 21.9773 133.235 21.8239L131.335 21.3466C129.863 20.9886 128.701 20.429 127.849 19.6676C126.996 18.9062 126.573 17.8807 126.579 16.5909C126.573 15.5341 126.854 14.6108 127.423 13.821C127.996 13.0312 128.783 12.4148 129.783 11.9716C130.783 11.5284 131.92 11.3068 133.192 11.3068C134.488 11.3068 135.619 11.5284 136.585 11.9716C137.556 12.4148 138.312 13.0312 138.852 13.821C139.391 14.6108 139.67 15.5256 139.687 16.5653H136.15ZM142.408 29V11.5455H154.169V14.5881H146.098V18.7472H153.564V21.7898H146.098V25.9574H154.203V29H142.408ZM167.884 11.5455H171.575V22.8807C171.575 24.1534 171.271 25.267 170.663 26.2216C170.06 27.1761 169.217 27.9205 168.131 28.4545C167.046 28.983 165.782 29.2472 164.339 29.2472C162.89 29.2472 161.623 28.983 160.538 28.4545C159.452 27.9205 158.609 27.1761 158.006 26.2216C157.404 25.267 157.103 24.1534 157.103 22.8807V11.5455H160.793V22.5653C160.793 23.2301 160.938 23.821 161.228 24.3381C161.523 24.8551 161.938 25.2614 162.472 25.5568C163.006 25.8523 163.629 26 164.339 26C165.055 26 165.677 25.8523 166.205 25.5568C166.739 25.2614 167.151 24.8551 167.441 24.3381C167.737 23.821 167.884 23.2301 167.884 22.5653V11.5455ZM184.08 16.5653C184.011 15.8778 183.719 15.3437 183.202 14.9631C182.685 14.5824 181.983 14.392 181.097 14.392C180.494 14.392 179.986 14.4773 179.571 14.6477C179.156 14.8125 178.838 15.0426 178.616 15.3381C178.401 15.6335 178.293 15.9688 178.293 16.3438C178.281 16.6562 178.347 16.929 178.489 17.1619C178.636 17.3949 178.838 17.5966 179.094 17.767C179.349 17.9318 179.645 18.0767 179.98 18.2017C180.315 18.321 180.673 18.4233 181.054 18.5085L182.622 18.8835C183.384 19.054 184.082 19.2812 184.719 19.5653C185.355 19.8494 185.906 20.1989 186.372 20.6136C186.838 21.0284 187.199 21.517 187.455 22.0795C187.716 22.642 187.849 23.2869 187.855 24.0142C187.849 25.0824 187.577 26.0085 187.037 26.7926C186.503 27.571 185.73 28.1761 184.719 28.608C183.713 29.0341 182.5 29.2472 181.08 29.2472C179.67 29.2472 178.443 29.0312 177.398 28.5994C176.358 28.1676 175.545 27.5284 174.96 26.6818C174.381 25.8295 174.077 24.7756 174.048 23.5199H177.619C177.659 24.1051 177.827 24.5937 178.122 24.9858C178.423 25.3722 178.824 25.6648 179.324 25.8636C179.83 26.0568 180.401 26.1534 181.037 26.1534C181.662 26.1534 182.205 26.0625 182.665 25.8807C183.131 25.6989 183.491 25.446 183.747 25.1222C184.003 24.7983 184.131 24.4261 184.131 24.0057C184.131 23.6136 184.014 23.2841 183.781 23.017C183.554 22.75 183.219 22.5227 182.776 22.3352C182.338 22.1477 181.801 21.9773 181.165 21.8239L179.264 21.3466C177.793 20.9886 176.631 20.429 175.778 19.6676C174.926 18.9062 174.503 17.8807 174.509 16.5909C174.503 15.5341 174.784 14.6108 175.352 13.821C175.926 13.0312 176.713 12.4148 177.713 11.9716C178.713 11.5284 179.849 11.3068 181.122 11.3068C182.418 11.3068 183.548 11.5284 184.514 11.9716C185.486 12.4148 186.241 13.0312 186.781 13.821C187.321 14.6108 187.599 15.5256 187.616 16.5653H184.08ZM202.08 29H195.892V11.5455H202.131C203.886 11.5455 205.398 11.8949 206.665 12.5938C207.932 13.2869 208.906 14.2841 209.588 15.5852C210.276 16.8864 210.619 18.4432 210.619 20.2557C210.619 22.0739 210.276 23.6364 209.588 24.9432C208.906 26.25 207.926 27.2528 206.648 27.9517C205.375 28.6506 203.852 29 202.08 29ZM199.582 25.8381H201.926C203.017 25.8381 203.935 25.6449 204.679 25.2585C205.429 24.8665 205.991 24.2614 206.366 23.4432C206.747 22.6193 206.938 21.5568 206.938 20.2557C206.938 18.9659 206.747 17.9119 206.366 17.0938C205.991 16.2756 205.432 15.6733 204.688 15.2869C203.943 14.9006 203.026 14.7074 201.935 14.7074H199.582V25.8381ZM215.377 29H211.423L217.448 11.5455H222.204L228.221 29H224.266L219.894 15.5341H219.758L215.377 29ZM215.13 22.1392H224.471V25.0199H215.13V22.1392ZM236.509 29H230.322V11.5455H236.56C238.316 11.5455 239.827 11.8949 241.094 12.5938C242.362 13.2869 243.336 14.2841 244.018 15.5852C244.705 16.8864 245.049 18.4432 245.049 20.2557C245.049 22.0739 244.705 23.6364 244.018 24.9432C243.336 26.25 242.356 27.2528 241.077 27.9517C239.805 28.6506 238.282 29 236.509 29ZM234.012 25.8381H236.356C237.447 25.8381 238.364 25.6449 239.109 25.2585C239.859 24.8665 240.421 24.2614 240.796 23.4432C241.177 22.6193 241.367 21.5568 241.367 20.2557C241.367 18.9659 241.177 17.9119 240.796 17.0938C240.421 16.2756 239.862 15.6733 239.117 15.2869C238.373 14.9006 237.455 14.7074 236.364 14.7074H234.012V25.8381ZM263.822 20.2727C263.822 22.1761 263.462 23.7955 262.74 25.1307C262.024 26.4659 261.047 27.4858 259.808 28.1903C258.575 28.8892 257.189 29.2386 255.649 29.2386C254.098 29.2386 252.706 28.8864 251.473 28.1818C250.24 27.4773 249.266 26.4574 248.55 25.1222C247.834 23.7869 247.476 22.1705 247.476 20.2727C247.476 18.3693 247.834 16.75 248.55 15.4148C249.266 14.0795 250.24 13.0625 251.473 12.3636C252.706 11.6591 254.098 11.3068 255.649 11.3068C257.189 11.3068 258.575 11.6591 259.808 12.3636C261.047 13.0625 262.024 14.0795 262.74 15.4148C263.462 16.75 263.822 18.3693 263.822 20.2727ZM260.081 20.2727C260.081 19.0398 259.896 18 259.527 17.1534C259.163 16.3068 258.649 15.6648 257.984 15.2273C257.32 14.7898 256.541 14.571 255.649 14.571C254.757 14.571 253.979 14.7898 253.314 15.2273C252.649 15.6648 252.132 16.3068 251.763 17.1534C251.399 18 251.217 19.0398 251.217 20.2727C251.217 21.5057 251.399 22.5455 251.763 23.392C252.132 24.2386 252.649 24.8807 253.314 25.3182C253.979 25.7557 254.757 25.9744 255.649 25.9744C256.541 25.9744 257.32 25.7557 257.984 25.3182C258.649 24.8807 259.163 24.2386 259.527 23.392C259.896 22.5455 260.081 21.5057 260.081 20.2727ZM276.025 16.5653C275.957 15.8778 275.664 15.3437 275.147 14.9631C274.63 14.5824 273.928 14.392 273.042 14.392C272.44 14.392 271.931 14.4773 271.516 14.6477C271.102 14.8125 270.783 15.0426 270.562 15.3381C270.346 15.6335 270.238 15.9688 270.238 16.3438C270.227 16.6562 270.292 16.929 270.434 17.1619C270.582 17.3949 270.783 17.5966 271.039 17.767C271.295 17.9318 271.59 18.0767 271.925 18.2017C272.261 18.321 272.619 18.4233 272.999 18.5085L274.567 18.8835C275.329 19.054 276.028 19.2812 276.664 19.5653C277.3 19.8494 277.852 20.1989 278.317 20.6136C278.783 21.0284 279.144 21.517 279.4 22.0795C279.661 22.642 279.795 23.2869 279.8 24.0142C279.795 25.0824 279.522 26.0085 278.982 26.7926C278.448 27.571 277.675 28.1761 276.664 28.608C275.658 29.0341 274.445 29.2472 273.025 29.2472C271.616 29.2472 270.388 29.0312 269.343 28.5994C268.303 28.1676 267.491 27.5284 266.906 26.6818C266.326 25.8295 266.022 24.7756 265.994 23.5199H269.565C269.604 24.1051 269.772 24.5937 270.067 24.9858C270.369 25.3722 270.769 25.6648 271.269 25.8636C271.775 26.0568 272.346 26.1534 272.982 26.1534C273.607 26.1534 274.15 26.0625 274.61 25.8807C275.076 25.6989 275.437 25.446 275.692 25.1222C275.948 24.7983 276.076 24.4261 276.076 24.0057C276.076 23.6136 275.96 23.2841 275.727 23.017C275.499 22.75 275.164 22.5227 274.721 22.3352C274.283 22.1477 273.746 21.9773 273.11 21.8239L271.21 21.3466C269.738 20.9886 268.576 20.429 267.724 19.6676C266.871 18.9062 266.448 17.8807 266.454 16.5909C266.448 15.5341 266.729 14.6108 267.298 13.821C267.871 13.0312 268.658 12.4148 269.658 11.9716C270.658 11.5284 271.795 11.3068 273.067 11.3068C274.363 11.3068 275.494 11.5284 276.46 11.9716C277.431 12.4148 278.187 13.0312 278.727 13.821C279.266 14.6108 279.545 15.5256 279.562 16.5653H276.025Z" fill="#A468E9"/>
<path fill-rule="evenodd" clip-rule="evenodd" d="M22.9323 10.6458L15.6586 6.44591L0.00709128 33.5547C-0.0946369 33.7309 0.929922 39.1808 1.04437 39.8383L1.32231 40C1.94905 39.7693 7.17906 37.9327 7.28044 37.7565L22.9323 10.6458ZM17.3262 3.55948L18.9284 0.783736C19.3608 0.0352955 20.3236 -0.222664 21.072 0.209687L25.628 2.84006C26.3764 3.27241 26.6344 4.23519 26.202 4.98363L24.5998 7.75938L17.3262 3.55948Z" fill="#A468E9"/>
</svg>
