<svg width="330" height="40" viewBox="0 0 330 40" fill="none" xmlns="http://www.w3.org/2000/svg">
<path d="M147.986 16.5653C147.918 15.8778 147.625 15.3437 147.108 14.9631C146.591 14.5824 145.889 14.392 145.003 14.392C144.401 14.392 143.892 14.4773 143.477 14.6477C143.063 14.8125 142.744 15.0426 142.523 15.3381C142.307 15.6335 142.199 15.9688 142.199 16.3438C142.188 16.6562 142.253 16.929 142.395 17.1619C142.543 17.3949 142.744 17.5966 143 17.767C143.256 17.9318 143.551 18.0767 143.886 18.2017C144.222 18.321 144.58 18.4233 144.96 18.5085L146.528 18.8835C147.29 19.054 147.989 19.2812 148.625 19.5653C149.261 19.8494 149.813 20.1989 150.278 20.6136C150.744 21.0284 151.105 21.517 151.361 22.0795C151.622 22.642 151.756 23.2869 151.761 24.0142C151.756 25.0824 151.483 26.0085 150.943 26.7926C150.409 27.571 149.636 28.1761 148.625 28.608C147.619 29.0341 146.406 29.2472 144.986 29.2472C143.577 29.2472 142.349 29.0312 141.304 28.5994C140.264 28.1676 139.452 27.5284 138.866 26.6818C138.287 25.8295 137.983 24.7756 137.955 23.5199H141.526C141.565 24.1051 141.733 24.5937 142.028 24.9858C142.33 25.3722 142.73 25.6648 143.23 25.8636C143.736 26.0568 144.307 26.1534 144.943 26.1534C145.568 26.1534 146.111 26.0625 146.571 25.8807C147.037 25.6989 147.398 25.446 147.653 25.1222C147.909 24.7983 148.037 24.4261 148.037 24.0057C148.037 23.6136 147.92 23.2841 147.688 23.017C147.46 22.75 147.125 22.5227 146.682 22.3352C146.244 22.1477 145.707 21.9773 145.071 21.8239L143.17 21.3466C141.699 20.9886 140.537 20.429 139.685 19.6676C138.832 18.9062 138.409 17.8807 138.415 16.5909C138.409 15.5341 138.69 14.6108 139.259 13.821C139.832 13.0312 140.619 12.4148 141.619 11.9716C142.619 11.5284 143.756 11.3068 145.028 11.3068C146.324 11.3068 147.455 11.5284 148.42 11.9716C149.392 12.4148 150.148 13.0312 150.688 13.821C151.227 14.6108 151.506 15.5256 151.523 16.5653H147.986ZM156.854 29H152.899L158.925 11.5455H163.68L169.697 29H165.743L161.371 15.5341H161.234L156.854 29ZM156.607 22.1392H165.947V25.0199H156.607V22.1392ZM175.489 11.5455V29H171.798V11.5455H175.489ZM178.525 29V11.5455H185.411C186.729 11.5455 187.854 11.7812 188.786 12.2528C189.724 12.7187 190.437 13.3807 190.925 14.2386C191.42 15.0909 191.667 16.0937 191.667 17.2472C191.667 18.4062 191.417 19.4034 190.917 20.2386C190.417 21.0682 189.692 21.7045 188.744 22.1477C187.8 22.5909 186.658 22.8125 185.317 22.8125H180.707V19.8466H184.721C185.425 19.8466 186.011 19.75 186.477 19.5568C186.942 19.3636 187.289 19.0739 187.516 18.6875C187.749 18.3011 187.866 17.821 187.866 17.2472C187.866 16.6676 187.749 16.179 187.516 15.7812C187.289 15.3835 186.94 15.0824 186.468 14.8778C186.002 14.6676 185.414 14.5625 184.704 14.5625H182.215V29H178.525ZM187.951 21.0568L192.289 29H188.215L183.971 21.0568H187.951Z" fill="#A468E9"/>
<path d="M8.00013 7.9995H20.0013V0H0V40H20.0013V32.0011H8.00013V7.9995Z" fill="#A468E9"/>
<path d="M48.2859 20.0002L31.0174 10.0283V16.0005H20.0012V24.0006H31.0174V29.9728L48.2859 20.0002Z" fill="#A468E9"/>
</svg>
