<svg width="114" height="127" viewBox="0 0 114 127" fill="none" xmlns="http://www.w3.org/2000/svg">
<path d="M92.6222 26.5524V71.3164C92.6222 73.491 91.7344 75.4643 90.3074 76.8913L90.1205 77.0638C88.7618 78.3398 86.9539 79.1414 84.9697 79.2025V82.1104C84.9697 84.2778 84.0819 86.2475 82.655 87.6745C81.228 89.1122 79.2547 90 77.0801 90H29.8896C27.715 90 25.7417 89.1122 24.3148 87.6852C22.8878 86.2583 22 84.285 22 82.1104V18.68C22 16.5161 22.8878 14.5429 24.3183 13.1123C25.6878 11.732 27.5713 10.8586 29.6524 10.7975V7.88964C29.6524 5.71503 30.5402 3.74174 31.9672 2.31476C33.3942 0.887771 35.3674 0 37.5421 0H66.0671C66.8291 0 67.5192 0.309119 68.0188 0.808738L91.8169 24.6032C92.3561 25.1423 92.6257 25.8505 92.6257 26.5549L92.6222 26.5524ZM65.9053 54.0238L69.7764 60.7274C69.9202 60.5944 70.0604 60.4614 70.2006 60.3248C71.9043 58.6319 73.1264 56.4573 73.6583 54.0238H65.9053ZM65.0175 63.4803L58.8819 52.8515C58.5656 52.4022 58.3751 51.8523 58.3751 51.2592V38.7404C55.9992 39.258 53.8749 40.4333 52.2 42.0617L52.0741 42.1982C49.7558 44.5166 48.3216 47.7228 48.3216 51.2597C48.3216 54.8074 49.7522 58.0099 52.0634 60.3212L52.0742 60.332C54.3853 62.6431 57.5915 64.0737 61.1356 64.0737C62.4872 64.0737 63.7919 63.8652 65.0139 63.477L65.0175 63.4803ZM63.8997 38.7436V48.4992H73.6552C73.1233 46.0694 71.8975 43.8948 70.201 42.1982C68.5045 40.5016 66.3296 39.2756 63.8997 38.7436ZM61.1392 32.9244C66.2001 32.9244 70.7862 34.9768 74.1043 38.2943C77.4224 41.6119 79.4742 46.1983 79.4742 51.2594C79.4742 56.3131 77.4182 60.8962 74.097 64.2208C70.7829 67.5456 66.2002 69.598 61.1356 69.598C56.0855 69.598 51.5025 67.5456 48.1816 64.228L48.1708 64.2173C44.8496 60.8889 42.8008 56.3096 42.8008 51.2632C42.8008 46.2024 44.8533 41.6163 48.1708 38.2982L48.3361 38.1472C51.6466 34.9195 56.1647 32.9282 61.1356 32.9282L61.1392 32.9244ZM79.4486 79.202H37.5417C35.3671 79.202 33.3938 78.3142 31.9668 76.8873L31.7943 76.6967C30.4679 75.2805 29.652 73.3863 29.652 71.3123V16.318C29.0949 16.3755 28.5917 16.6271 28.2179 17.0009C27.783 17.4215 27.5206 18.0146 27.5206 18.6723V82.1027C27.5206 82.7533 27.7866 83.3464 28.2179 83.7741C28.6456 84.2018 29.2423 84.4714 29.8893 84.4714H77.0797C77.7303 84.4714 78.3234 84.2054 78.7511 83.7741C79.1824 83.3499 79.4484 82.7532 79.4484 82.1027V79.1985L79.4486 79.202ZM87.101 29.3081H66.067C64.5431 29.3081 63.3065 28.0716 63.3065 26.5476V5.5137H37.542C36.8915 5.5137 36.2984 5.77968 35.8707 6.211C35.4429 6.63873 35.1734 7.23542 35.1734 7.88238V71.3164C35.1734 71.9203 35.3998 72.4738 35.7664 72.8871L35.8707 72.9878C36.2984 73.4155 36.8951 73.6851 37.542 73.6851H84.7325C85.3363 73.6851 85.8935 73.4586 86.3104 73.0848L86.4038 72.9878C86.8316 72.5601 87.1011 71.967 87.1011 71.3164L87.101 29.3081ZM68.8275 9.41702V23.7872H83.1977L68.8275 9.41702Z" fill="white"/>
<path d="M1.51705 121V103.545H13.2784V106.588H5.20739V110.747H12.6733V113.79H5.20739V117.957H13.3125V121H1.51705ZM19.6726 103.545L23.1925 109.494H23.3288L26.8658 103.545H31.0334L25.7067 112.273L31.1527 121H26.9084L23.3288 115.043H23.1925L19.6129 121H15.3857L20.8487 112.273L15.4879 103.545H19.6726ZM32.7038 106.588V103.545H47.0391V106.588H41.6953V121H38.0476V106.588H32.7038ZM49.3999 121V103.545H56.2862C57.6044 103.545 58.7294 103.781 59.6612 104.253C60.5987 104.719 61.3118 105.381 61.8004 106.239C62.2947 107.091 62.5419 108.094 62.5419 109.247C62.5419 110.406 62.2919 111.403 61.7919 112.239C61.2919 113.068 60.5675 113.705 59.6186 114.148C58.6754 114.591 57.5334 114.812 56.1925 114.812H51.5817V111.847H55.5959C56.3004 111.847 56.8857 111.75 57.3516 111.557C57.8175 111.364 58.1641 111.074 58.3913 110.688C58.6243 110.301 58.7408 109.821 58.7408 109.247C58.7408 108.668 58.6243 108.179 58.3913 107.781C58.1641 107.384 57.8146 107.082 57.343 106.878C56.8771 106.668 56.2891 106.562 55.5788 106.562H53.0902V121H49.3999ZM58.826 113.057L63.1641 121H59.0902L54.8459 113.057H58.826ZM68.1584 121H64.2038L70.2294 103.545H74.9851L81.0021 121H77.0476L72.6754 107.534H72.5391L68.1584 121ZM67.9112 114.139H77.2521V117.02H67.9112V114.139ZM80.3054 106.588V103.545H94.6406V106.588H89.2969V121H85.6491V106.588H80.3054ZM112.244 112.273C112.244 114.176 111.884 115.795 111.162 117.131C110.446 118.466 109.469 119.486 108.23 120.19C106.997 120.889 105.611 121.239 104.071 121.239C102.52 121.239 101.128 120.886 99.8949 120.182C98.6619 119.477 97.6875 118.457 96.9716 117.122C96.2557 115.787 95.8977 114.17 95.8977 112.273C95.8977 110.369 96.2557 108.75 96.9716 107.415C97.6875 106.08 98.6619 105.062 99.8949 104.364C101.128 103.659 102.52 103.307 104.071 103.307C105.611 103.307 106.997 103.659 108.23 104.364C109.469 105.062 110.446 106.08 111.162 107.415C111.884 108.75 112.244 110.369 112.244 112.273ZM108.503 112.273C108.503 111.04 108.318 110 107.949 109.153C107.585 108.307 107.071 107.665 106.406 107.227C105.741 106.79 104.963 106.571 104.071 106.571C103.179 106.571 102.401 106.79 101.736 107.227C101.071 107.665 100.554 108.307 100.185 109.153C99.821 110 99.6392 111.04 99.6392 112.273C99.6392 113.506 99.821 114.545 100.185 115.392C100.554 116.239 101.071 116.881 101.736 117.318C102.401 117.756 103.179 117.974 104.071 117.974C104.963 117.974 105.741 117.756 106.406 117.318C107.071 116.881 107.585 116.239 107.949 115.392C108.318 114.545 108.503 113.506 108.503 112.273Z" fill="white"/>
</svg>
