<svg width="274" height="143" viewBox="0 0 274 143" fill="none" xmlns="http://www.w3.org/2000/svg">
<path d="M21.8182 114.312C21.6193 113.621 21.34 113.01 20.9801 112.48C20.6203 111.94 20.1799 111.486 19.6591 111.116C19.1477 110.738 18.5606 110.449 17.8977 110.25C17.2443 110.051 16.5199 109.952 15.7244 109.952C14.2377 109.952 12.9309 110.321 11.804 111.06C10.6866 111.798 9.81534 112.873 9.19034 114.284C8.56534 115.686 8.25284 117.4 8.25284 119.426C8.25284 121.453 8.56061 123.176 9.17614 124.597C9.79167 126.017 10.6629 127.101 11.7898 127.849C12.9167 128.588 14.2472 128.957 15.7812 128.957C17.1733 128.957 18.3617 128.711 19.3466 128.219C20.3409 127.717 21.0985 127.011 21.6193 126.102C22.1496 125.193 22.4148 124.118 22.4148 122.878L23.6648 123.062H16.1648V118.432H28.3381V122.097C28.3381 124.653 27.7983 126.85 26.7188 128.688C25.6392 130.515 24.1525 131.926 22.2585 132.92C20.3646 133.905 18.196 134.398 15.7528 134.398C13.0256 134.398 10.6297 133.796 8.56534 132.594C6.50095 131.382 4.8911 129.663 3.7358 127.438C2.58996 125.203 2.01705 122.551 2.01705 119.483C2.01705 117.125 2.35795 115.023 3.03977 113.176C3.73106 111.32 4.69697 109.748 5.9375 108.46C7.17803 107.172 8.62216 106.192 10.2699 105.52C11.9176 104.848 13.7027 104.511 15.625 104.511C17.2727 104.511 18.8068 104.753 20.2273 105.236C21.6477 105.709 22.9072 106.382 24.0057 107.253C25.1136 108.124 26.018 109.161 26.7188 110.364C27.4195 111.557 27.8693 112.873 28.0682 114.312H21.8182ZM42.7876 134.426C40.5433 134.426 38.6115 133.972 36.9922 133.062C35.3823 132.144 34.1418 130.847 33.2706 129.17C32.3994 127.485 31.9638 125.491 31.9638 123.19C31.9638 120.946 32.3994 118.976 33.2706 117.281C34.1418 115.586 35.3681 114.265 36.9496 113.318C38.5405 112.371 40.406 111.898 42.5462 111.898C43.9856 111.898 45.3255 112.13 46.5661 112.594C47.8161 113.048 48.9051 113.735 49.8331 114.653C50.7706 115.572 51.4998 116.727 52.0206 118.119C52.5414 119.502 52.8018 121.121 52.8018 122.977V124.639H34.3786V120.889H47.1058C47.1058 120.018 46.9164 119.246 46.5376 118.574C46.1589 117.902 45.6333 117.376 44.9609 116.997C44.2981 116.609 43.5263 116.415 42.6456 116.415C41.727 116.415 40.9126 116.628 40.2024 117.054C39.5017 117.471 38.9524 118.034 38.5547 118.744C38.157 119.445 37.9534 120.226 37.9439 121.088V124.653C37.9439 125.733 38.1428 126.666 38.5405 127.452C38.9477 128.238 39.5206 128.844 40.2592 129.27C40.9979 129.696 41.8738 129.909 42.8871 129.909C43.5594 129.909 44.175 129.814 44.7337 129.625C45.2924 129.436 45.7706 129.152 46.1683 128.773C46.5661 128.394 46.8691 127.93 47.0774 127.381L52.674 127.75C52.3899 129.095 51.8075 130.269 50.9268 131.273C50.0556 132.267 48.9287 133.044 47.5462 133.602C46.1731 134.152 44.5869 134.426 42.7876 134.426ZM56.7507 134V112.182H62.6172V115.989H62.8445C63.2422 114.634 63.9098 113.612 64.8473 112.92C65.7848 112.22 66.8643 111.869 68.0859 111.869C68.389 111.869 68.7157 111.888 69.0661 111.926C69.4164 111.964 69.7242 112.016 69.9893 112.082V117.452C69.7053 117.366 69.3123 117.291 68.8104 117.224C68.3085 117.158 67.8492 117.125 67.4325 117.125C66.5424 117.125 65.7469 117.319 65.0462 117.707C64.3549 118.086 63.8056 118.616 63.3984 119.298C63.0007 119.98 62.8018 120.766 62.8018 121.656V134H56.7507ZM78.7145 134.412C77.3224 134.412 76.0819 134.17 74.9929 133.688C73.9039 133.195 73.0421 132.471 72.4077 131.514C71.7827 130.548 71.4702 129.346 71.4702 127.906C71.4702 126.694 71.6927 125.676 72.1378 124.852C72.5829 124.028 73.1889 123.366 73.956 122.864C74.723 122.362 75.5942 121.983 76.5696 121.727C77.5545 121.472 78.5866 121.292 79.6662 121.188C80.9351 121.055 81.9579 120.932 82.7344 120.818C83.5109 120.695 84.0743 120.515 84.4247 120.278C84.7751 120.042 84.9503 119.691 84.9503 119.227V119.142C84.9503 118.242 84.6662 117.546 84.098 117.054C83.5393 116.562 82.7438 116.315 81.7116 116.315C80.6226 116.315 79.7562 116.557 79.1122 117.04C78.4683 117.513 78.0421 118.11 77.8338 118.83L72.2372 118.375C72.5213 117.049 73.08 115.903 73.9134 114.938C74.7467 113.962 75.8215 113.214 77.1378 112.693C78.4635 112.163 79.9976 111.898 81.7401 111.898C82.9522 111.898 84.1122 112.04 85.2202 112.324C86.3376 112.608 87.3272 113.048 88.1889 113.645C89.0601 114.241 89.7467 115.009 90.2486 115.946C90.7505 116.874 91.0014 117.987 91.0014 119.284V134H85.2628V130.974H85.0923C84.742 131.656 84.2732 132.258 83.6861 132.778C83.099 133.29 82.3935 133.692 81.5696 133.986C80.7457 134.27 79.794 134.412 78.7145 134.412ZM80.4474 130.236C81.3376 130.236 82.1236 130.061 82.8054 129.71C83.4872 129.35 84.0223 128.867 84.4105 128.261C84.7988 127.655 84.9929 126.969 84.9929 126.202V123.886C84.8035 124.009 84.5431 124.123 84.2116 124.227C83.8897 124.322 83.5251 124.412 83.1179 124.497C82.7107 124.573 82.3035 124.644 81.8963 124.71C81.4891 124.767 81.1198 124.819 80.7884 124.866C80.0781 124.971 79.4579 125.136 78.9276 125.364C78.3973 125.591 77.9853 125.899 77.6918 126.287C77.3982 126.666 77.2514 127.139 77.2514 127.707C77.2514 128.531 77.5497 129.161 78.1463 129.597C78.7524 130.023 79.5194 130.236 80.4474 130.236ZM95.696 134V112.182H101.562V115.989H101.79C102.188 114.634 102.855 113.612 103.793 112.92C104.73 112.22 105.81 111.869 107.031 111.869C107.334 111.869 107.661 111.888 108.011 111.926C108.362 111.964 108.67 112.016 108.935 112.082V117.452C108.651 117.366 108.258 117.291 107.756 117.224C107.254 117.158 106.795 117.125 106.378 117.125C105.488 117.125 104.692 117.319 103.991 117.707C103.3 118.086 102.751 118.616 102.344 119.298C101.946 119.98 101.747 120.766 101.747 121.656V134H95.696ZM132.415 123.886H137.642L140.27 127.267L142.855 130.278L147.727 136.386H141.989L138.636 132.267L136.918 129.824L132.415 123.886ZM148.168 119.455C148.168 122.627 147.566 125.326 146.364 127.551C145.17 129.777 143.542 131.476 141.477 132.651C139.422 133.815 137.112 134.398 134.545 134.398C131.96 134.398 129.64 133.811 127.585 132.636C125.53 131.462 123.906 129.762 122.713 127.537C121.52 125.312 120.923 122.617 120.923 119.455C120.923 116.282 121.52 113.583 122.713 111.358C123.906 109.133 125.53 107.437 127.585 106.273C129.64 105.098 131.96 104.511 134.545 104.511C137.112 104.511 139.422 105.098 141.477 106.273C143.542 107.437 145.17 109.133 146.364 111.358C147.566 113.583 148.168 116.282 148.168 119.455ZM141.932 119.455C141.932 117.4 141.624 115.667 141.009 114.256C140.402 112.845 139.545 111.775 138.438 111.045C137.33 110.316 136.032 109.952 134.545 109.952C133.059 109.952 131.761 110.316 130.653 111.045C129.545 111.775 128.684 112.845 128.068 114.256C127.462 115.667 127.159 117.4 127.159 119.455C127.159 121.509 127.462 123.242 128.068 124.653C128.684 126.064 129.545 127.134 130.653 127.864C131.761 128.593 133.059 128.957 134.545 128.957C136.032 128.957 137.33 128.593 138.438 127.864C139.545 127.134 140.402 126.064 141.009 124.653C141.624 123.242 141.932 121.509 141.932 119.455ZM152.724 134V104.909H164.201C166.398 104.909 168.273 105.302 169.826 106.088C171.388 106.865 172.577 107.968 173.391 109.398C174.215 110.818 174.627 112.49 174.627 114.412C174.627 116.344 174.21 118.006 173.377 119.398C172.544 120.78 171.336 121.841 169.755 122.58C168.183 123.318 166.28 123.688 164.045 123.688H156.36V118.744H163.05C164.225 118.744 165.2 118.583 165.977 118.261C166.753 117.939 167.331 117.456 167.71 116.812C168.098 116.169 168.292 115.368 168.292 114.412C168.292 113.446 168.098 112.632 167.71 111.969C167.331 111.306 166.748 110.804 165.962 110.463C165.186 110.113 164.206 109.938 163.022 109.938H158.874V134H152.724ZM168.434 120.761L175.664 134H168.874L161.8 120.761H168.434ZM188.366 134.426C186.132 134.426 184.209 133.953 182.599 133.006C180.999 132.049 179.768 130.723 178.906 129.028C178.054 127.333 177.628 125.383 177.628 123.176C177.628 120.941 178.059 118.981 178.92 117.295C179.792 115.6 181.027 114.279 182.628 113.332C184.228 112.376 186.132 111.898 188.338 111.898C190.241 111.898 191.908 112.243 193.338 112.935C194.768 113.626 195.9 114.597 196.733 115.847C197.566 117.097 198.026 118.564 198.111 120.25H192.401C192.24 119.161 191.813 118.285 191.122 117.622C190.44 116.95 189.545 116.614 188.438 116.614C187.5 116.614 186.681 116.869 185.98 117.381C185.289 117.883 184.749 118.616 184.361 119.582C183.973 120.548 183.778 121.718 183.778 123.091C183.778 124.483 183.968 125.667 184.347 126.642C184.735 127.617 185.279 128.361 185.98 128.872C186.681 129.384 187.5 129.639 188.438 129.639C189.129 129.639 189.749 129.497 190.298 129.213C190.857 128.929 191.316 128.517 191.676 127.977C192.045 127.428 192.287 126.77 192.401 126.003H198.111C198.016 127.67 197.562 129.137 196.747 130.406C195.942 131.666 194.83 132.651 193.409 133.361C191.989 134.071 190.308 134.426 188.366 134.426ZM211.843 134.426C209.637 134.426 207.728 133.957 206.119 133.02C204.518 132.073 203.282 130.757 202.411 129.071C201.54 127.376 201.104 125.411 201.104 123.176C201.104 120.922 201.54 118.953 202.411 117.267C203.282 115.572 204.518 114.256 206.119 113.318C207.728 112.371 209.637 111.898 211.843 111.898C214.049 111.898 215.953 112.371 217.553 113.318C219.163 114.256 220.404 115.572 221.275 117.267C222.146 118.953 222.582 120.922 222.582 123.176C222.582 125.411 222.146 127.376 221.275 129.071C220.404 130.757 219.163 132.073 217.553 133.02C215.953 133.957 214.049 134.426 211.843 134.426ZM211.871 129.739C212.875 129.739 213.713 129.455 214.386 128.886C215.058 128.309 215.565 127.523 215.906 126.528C216.256 125.534 216.431 124.402 216.431 123.134C216.431 121.865 216.256 120.733 215.906 119.739C215.565 118.744 215.058 117.958 214.386 117.381C213.713 116.803 212.875 116.514 211.871 116.514C210.858 116.514 210.006 116.803 209.315 117.381C208.633 117.958 208.117 118.744 207.766 119.739C207.425 120.733 207.255 121.865 207.255 123.134C207.255 124.402 207.425 125.534 207.766 126.528C208.117 127.523 208.633 128.309 209.315 128.886C210.006 129.455 210.858 129.739 211.871 129.739ZM234.556 134.355C232.899 134.355 231.398 133.929 230.053 133.077C228.718 132.215 227.657 130.951 226.871 129.284C226.095 127.608 225.707 125.553 225.707 123.119C225.707 120.619 226.109 118.541 226.914 116.884C227.719 115.217 228.789 113.972 230.124 113.148C231.469 112.314 232.942 111.898 234.542 111.898C235.763 111.898 236.781 112.106 237.596 112.523C238.42 112.93 239.083 113.441 239.585 114.057C240.096 114.663 240.484 115.259 240.749 115.847H240.934V104.909H246.971V134H241.005V130.506H240.749C240.465 131.112 240.063 131.713 239.542 132.31C239.031 132.897 238.363 133.384 237.539 133.773C236.725 134.161 235.73 134.355 234.556 134.355ZM236.474 129.54C237.449 129.54 238.273 129.275 238.945 128.744C239.627 128.205 240.148 127.452 240.508 126.486C240.877 125.52 241.062 124.388 241.062 123.091C241.062 121.794 240.882 120.667 240.522 119.71C240.162 118.754 239.641 118.015 238.96 117.494C238.278 116.973 237.449 116.713 236.474 116.713C235.479 116.713 234.641 116.983 233.96 117.523C233.278 118.062 232.762 118.811 232.411 119.767C232.061 120.723 231.886 121.831 231.886 123.091C231.886 124.36 232.061 125.482 232.411 126.457C232.771 127.423 233.287 128.181 233.96 128.73C234.641 129.27 235.479 129.54 236.474 129.54ZM261.889 134.426C259.645 134.426 257.713 133.972 256.094 133.062C254.484 132.144 253.243 130.847 252.372 129.17C251.501 127.485 251.065 125.491 251.065 123.19C251.065 120.946 251.501 118.976 252.372 117.281C253.243 115.586 254.47 114.265 256.051 113.318C257.642 112.371 259.508 111.898 261.648 111.898C263.087 111.898 264.427 112.13 265.668 112.594C266.918 113.048 268.007 113.735 268.935 114.653C269.872 115.572 270.601 116.727 271.122 118.119C271.643 119.502 271.903 121.121 271.903 122.977V124.639H253.48V120.889H266.207C266.207 120.018 266.018 119.246 265.639 118.574C265.26 117.902 264.735 117.376 264.062 116.997C263.4 116.609 262.628 116.415 261.747 116.415C260.829 116.415 260.014 116.628 259.304 117.054C258.603 117.471 258.054 118.034 257.656 118.744C257.259 119.445 257.055 120.226 257.045 121.088V124.653C257.045 125.733 257.244 126.666 257.642 127.452C258.049 128.238 258.622 128.844 259.361 129.27C260.099 129.696 260.975 129.909 261.989 129.909C262.661 129.909 263.277 129.814 263.835 129.625C264.394 129.436 264.872 129.152 265.27 128.773C265.668 128.394 265.971 127.93 266.179 127.381L271.776 127.75C271.491 129.095 270.909 130.269 270.028 131.273C269.157 132.267 268.03 133.044 266.648 133.602C265.275 134.152 263.688 134.426 261.889 134.426Z" fill="#FF0000"/>
<path d="M117.962 77.8239H140.197L101.267 38.9329L123.493 16.6749L101.267 16.6689L79 38.9189L117.962 77.8239Z" fill="#FF0000"/>
<path d="M129.062 0H106.814L145.723 38.908L123.501 61.165H145.728L167.978 38.919L129.062 0Z" fill="#FF0000"/>
<rect x="162" y="53" width="8" height="42" fill="white"/>
<rect x="145" y="69" width="42" height="10" fill="white"/>
<rect x="167" y="57" width="9" height="42" fill="white"/>
<rect x="150" y="74" width="42" height="9" fill="white"/>
<path fill-rule="evenodd" clip-rule="evenodd" d="M169.989 53.1167H161.855V68.796C161.855 69.077 161.744 69.3469 161.545 69.5454C161.347 69.7439 161.077 69.8554 160.798 69.8554H145.116V77.9894H160.798C161.077 77.9894 161.347 78.1009 161.545 78.2994C161.744 78.4979 161.855 78.7678 161.855 79.0488V94.7281H169.989V79.0488C169.989 78.4622 170.464 77.9894 171.049 77.9894H186.728V69.8554H171.049C170.464 69.8554 169.989 69.3803 169.989 68.796V53.1167ZM150.659 80.1062H159.736V82.1448H150.659V80.1062ZM167.398 96.8447H171.051C171.635 96.8447 172.11 96.3696 172.11 95.7853V80.106H187.787C188.068 80.106 188.338 79.9967 188.537 79.7982C188.737 79.5997 188.849 79.3298 188.849 79.0488V74.0105H192.275V82.1444H176.589C176.004 82.1444 175.531 82.6195 175.531 83.2039V98.8832H167.397L167.398 96.8447ZM175.583 67.7368H172.108V57.2722H175.534V67.4114C175.534 67.5229 175.549 67.6322 175.585 67.737L175.583 67.7368ZM172.108 55.1556H176.589C176.87 55.1556 177.14 55.2671 177.338 55.4656C177.537 55.6641 177.648 55.934 177.648 56.215V67.4111C177.648 67.5226 177.63 67.6319 177.597 67.7367H187.788C188.069 67.7367 188.338 67.8482 188.537 68.0467C188.738 68.2452 188.849 68.5151 188.849 68.7961V71.8941H193.332C193.914 71.8963 194.387 72.3691 194.387 72.9513V83.2041C194.387 83.4851 194.276 83.755 194.077 83.9535C193.879 84.152 193.609 84.2635 193.328 84.2635H177.648V99.9428C177.648 100.224 177.537 100.491 177.338 100.69C177.14 100.888 176.87 101 176.589 101H166.338C165.754 101 165.281 100.527 165.279 99.9428V96.8449H160.798C160.212 96.8449 159.739 96.372 159.739 95.7854V84.2633H149.6C149.015 84.2633 148.54 83.7883 148.54 83.2039V80.106H144.059C143.473 80.106 143 79.6331 143 79.0488V68.7959C143 68.2116 143.473 67.7365 144.059 67.7365H159.739V52.0572C159.739 51.4729 160.212 51 160.798 51H171.049C171.633 51 172.106 51.4728 172.108 52.0572L172.108 55.1556ZM147.211 73.712H147.209C146.625 73.712 146.152 73.2369 146.152 72.6526C146.152 72.0682 146.624 71.5954 147.209 71.5954H150.579C151.163 71.5954 151.638 72.0682 151.638 72.6526C151.638 73.2369 151.163 73.712 150.579 73.712H147.211ZM153.487 73.712C153.202 73.7187 152.925 73.6094 152.722 73.4109C152.519 73.2124 152.403 72.9381 152.403 72.6526C152.403 72.3694 152.519 72.095 152.722 71.8965C152.925 71.698 153.202 71.5888 153.487 71.5954H154.522H154.52C154.805 71.5888 155.082 71.698 155.285 71.8965C155.488 72.095 155.604 72.3694 155.604 72.6526C155.604 72.9381 155.488 73.2124 155.285 73.4109C155.082 73.6094 154.805 73.7187 154.52 73.712H153.487ZM160.796 71.5954H160.794C161.38 71.5954 161.853 72.0683 161.853 72.6549C161.853 73.2392 161.38 73.7121 160.794 73.7121H157.426C156.842 73.7121 156.367 73.2392 156.367 72.6549C156.367 72.0683 156.842 71.5954 157.426 71.5954H160.796Z" fill="black"/>
</svg>
