<svg width="330" height="40" viewBox="0 0 330 40" fill="none" xmlns="http://www.w3.org/2000/svg">
<path d="M28.7034 13.7752H27.1852V10.1857C27.1852 4.56945 22.6156 0 16.9995 0C11.3832 0 6.81377 4.56958 6.81377 10.1857V13.7752H5.29555C2.92806 13.7752 1 15.7033 1 18.0708V35.7045C1 38.0719 2.92806 40 5.29555 40H28.7062C31.0737 40 33.0018 38.0719 33.0018 35.7045V18.0708C33.0018 15.7033 31.0737 13.7752 28.7062 13.7752H28.7034ZM11.2549 10.1857C11.2549 7.0184 13.8298 4.44356 16.9971 4.44356C20.1644 4.44356 22.7393 7.0184 22.7393 10.1857V13.7752H11.2548L11.2549 10.1857ZM28.5556 35.5568H5.43876V18.2189H28.553V35.5568H28.5556ZM14.7751 28.8274V24.9467C14.7751 23.7197 15.77 22.7248 16.9969 22.7248C18.2238 22.7248 19.2187 23.7197 19.2187 24.9467V28.8274C19.2187 30.0544 18.2238 31.0492 16.9969 31.0492C15.77 31.0492 14.7751 30.0544 14.7751 28.8274Z" fill="#A468E9"/>
<path d="M57.5256 34H53.571L59.5966 16.5455H64.3523L70.3693 34H66.4148L62.0426 20.5341H61.9062L57.5256 34ZM57.2784 27.1392H66.6193V30.0199H57.2784V27.1392ZM72.4702 34V16.5455H76.1605V30.9574H83.6435V34H72.4702ZM83.2429 19.5881V16.5455H97.5781V19.5881H92.2344V34H88.5866V19.5881H83.2429ZM99.9389 34V16.5455H111.7V19.5881H103.629V23.7472H111.095V26.7898H103.629V30.9574H111.734V34H99.9389ZM114.634 34V16.5455H121.521C122.839 16.5455 123.964 16.7812 124.896 17.2528C125.833 17.7187 126.546 18.3807 127.035 19.2386C127.529 20.0909 127.776 21.0937 127.776 22.2472C127.776 23.4062 127.526 24.4034 127.026 25.2386C126.526 26.0682 125.802 26.7045 124.853 27.1477C123.91 27.5909 122.768 27.8125 121.427 27.8125H116.816V24.8466H120.83C121.535 24.8466 122.12 24.75 122.586 24.5568C123.052 24.3636 123.398 24.0739 123.626 23.6875C123.859 23.3011 123.975 22.821 123.975 22.2472C123.975 21.6676 123.859 21.179 123.626 20.7812C123.398 20.3835 123.049 20.0824 122.577 19.8778C122.112 19.6676 121.523 19.5625 120.813 19.5625H118.325V34H114.634ZM124.06 26.0568L128.398 34H124.325L120.08 26.0568H124.06ZM133.393 34H129.438L135.464 16.5455H140.219L146.237 34H142.282L137.91 20.5341H137.773L133.393 34ZM133.146 27.1392H142.487V30.0199H133.146V27.1392ZM148.337 34V16.5455H155.224C156.542 16.5455 157.667 16.7812 158.599 17.2528C159.536 17.7187 160.249 18.3807 160.738 19.2386C161.232 20.0909 161.479 21.0937 161.479 22.2472C161.479 23.4062 161.229 24.4034 160.729 25.2386C160.229 26.0682 159.505 26.7045 158.556 27.1477C157.613 27.5909 156.471 27.8125 155.13 27.8125H150.519V24.8466H154.533C155.238 24.8466 155.823 24.75 156.289 24.5568C156.755 24.3636 157.102 24.0739 157.329 23.6875C157.562 23.3011 157.678 22.821 157.678 22.2472C157.678 21.6676 157.562 21.179 157.329 20.7812C157.102 20.3835 156.752 20.0824 156.281 19.8778C155.815 19.6676 155.227 19.5625 154.516 19.5625H152.028V34H148.337ZM157.763 26.0568L162.102 34H158.028L153.783 26.0568H157.763ZM179.111 21.5653C179.043 20.8778 178.75 20.3437 178.233 19.9631C177.716 19.5824 177.014 19.392 176.128 19.392C175.526 19.392 175.017 19.4773 174.602 19.6477C174.188 19.8125 173.869 20.0426 173.648 20.3381C173.432 20.6335 173.324 20.9688 173.324 21.3438C173.313 21.6562 173.378 21.929 173.52 22.1619C173.668 22.3949 173.869 22.5966 174.125 22.767C174.381 22.9318 174.676 23.0767 175.011 23.2017C175.347 23.321 175.705 23.4233 176.085 23.5085L177.653 23.8835C178.415 24.054 179.114 24.2812 179.75 24.5653C180.386 24.8494 180.938 25.1989 181.403 25.6136C181.869 26.0284 182.23 26.517 182.486 27.0795C182.747 27.642 182.881 28.2869 182.886 29.0142C182.881 30.0824 182.608 31.0085 182.068 31.7926C181.534 32.571 180.761 33.1761 179.75 33.608C178.744 34.0341 177.531 34.2472 176.111 34.2472C174.702 34.2472 173.474 34.0312 172.429 33.5994C171.389 33.1676 170.577 32.5284 169.991 31.6818C169.412 30.8295 169.108 29.7756 169.08 28.5199H172.651C172.69 29.1051 172.858 29.5937 173.153 29.9858C173.455 30.3722 173.855 30.6648 174.355 30.8636C174.861 31.0568 175.432 31.1534 176.068 31.1534C176.693 31.1534 177.236 31.0625 177.696 30.8807C178.162 30.6989 178.523 30.446 178.778 30.1222C179.034 29.7983 179.162 29.4261 179.162 29.0057C179.162 28.6136 179.045 28.2841 178.812 28.017C178.585 27.75 178.25 27.5227 177.807 27.3352C177.369 27.1477 176.832 26.9773 176.196 26.8239L174.295 26.3466C172.824 25.9886 171.662 25.429 170.81 24.6676C169.957 23.9062 169.534 22.8807 169.54 21.5909C169.534 20.5341 169.815 19.6108 170.384 18.821C170.957 18.0312 171.744 17.4148 172.744 16.9716C173.744 16.5284 174.881 16.3068 176.153 16.3068C177.449 16.3068 178.58 16.5284 179.545 16.9716C180.517 17.4148 181.273 18.0312 181.812 18.821C182.352 19.6108 182.631 20.5256 182.648 21.5653H179.111ZM196.15 16.5455H199.84V27.8807C199.84 29.1534 199.536 30.267 198.928 31.2216C198.326 32.1761 197.482 32.9205 196.397 33.4545C195.312 33.983 194.048 34.2472 192.604 34.2472C191.156 34.2472 189.888 33.983 188.803 33.4545C187.718 32.9205 186.874 32.1761 186.272 31.2216C185.67 30.267 185.369 29.1534 185.369 27.8807V16.5455H189.059V27.5653C189.059 28.2301 189.204 28.821 189.494 29.3381C189.789 29.8551 190.204 30.2614 190.738 30.5568C191.272 30.8523 191.894 31 192.604 31C193.32 31 193.942 30.8523 194.471 30.5568C195.005 30.2614 195.417 29.8551 195.707 29.3381C196.002 28.821 196.15 28.2301 196.15 27.5653V16.5455ZM205.885 34H201.93L207.956 16.5455H212.712L218.729 34H214.774L210.402 20.5341H210.266L205.885 34ZM205.638 27.1392H214.979V30.0199H205.638V27.1392ZM235.853 21.5653C235.785 20.8778 235.492 20.3437 234.975 19.9631C234.458 19.5824 233.756 19.392 232.87 19.392C232.268 19.392 231.759 19.4773 231.344 19.6477C230.93 19.8125 230.612 20.0426 230.39 20.3381C230.174 20.6335 230.066 20.9688 230.066 21.3438C230.055 21.6562 230.12 21.929 230.262 22.1619C230.41 22.3949 230.612 22.5966 230.867 22.767C231.123 22.9318 231.418 23.0767 231.754 23.2017C232.089 23.321 232.447 23.4233 232.827 23.5085L234.396 23.8835C235.157 24.054 235.856 24.2812 236.492 24.5653C237.129 24.8494 237.68 25.1989 238.146 25.6136C238.612 26.0284 238.972 26.517 239.228 27.0795C239.489 27.642 239.623 28.2869 239.629 29.0142C239.623 30.0824 239.35 31.0085 238.81 31.7926C238.276 32.571 237.504 33.1761 236.492 33.608C235.487 34.0341 234.273 34.2472 232.853 34.2472C231.444 34.2472 230.217 34.0312 229.171 33.5994C228.131 33.1676 227.319 32.5284 226.734 31.6818C226.154 30.8295 225.85 29.7756 225.822 28.5199H229.393C229.433 29.1051 229.6 29.5937 229.896 29.9858C230.197 30.3722 230.597 30.6648 231.097 30.8636C231.603 31.0568 232.174 31.1534 232.81 31.1534C233.435 31.1534 233.978 31.0625 234.438 30.8807C234.904 30.6989 235.265 30.446 235.521 30.1222C235.776 29.7983 235.904 29.4261 235.904 29.0057C235.904 28.6136 235.788 28.2841 235.555 28.017C235.327 27.75 234.992 27.5227 234.549 27.3352C234.112 27.1477 233.575 26.9773 232.938 26.8239L231.038 26.3466C229.566 25.9886 228.404 25.429 227.552 24.6676C226.7 23.9062 226.276 22.8807 226.282 21.5909C226.276 20.5341 226.558 19.6108 227.126 18.821C227.7 18.0312 228.487 17.4148 229.487 16.9716C230.487 16.5284 231.623 16.3068 232.896 16.3068C234.191 16.3068 235.322 16.5284 236.288 16.9716C237.259 17.4148 238.015 18.0312 238.555 18.821C239.094 19.6108 239.373 20.5256 239.39 21.5653H235.853ZM242.111 34V16.5455H253.872V19.5881H245.801V23.7472H253.267V26.7898H245.801V30.9574H253.906V34H242.111ZM271.406 16.5455V34H268.218L260.624 23.0142H260.496V34H256.806V16.5455H260.045L267.579 27.5227H267.732V16.5455H271.406ZM274.455 34V16.5455H278.145V23.7472H285.636V16.5455H289.318V34H285.636V26.7898H278.145V34H274.455ZM295.369 34H291.415L297.44 16.5455H302.196L308.213 34H304.259L299.886 20.5341H299.75L295.369 34ZM295.122 27.1392H304.463V30.0199H295.122V27.1392Z" fill="#A468E9"/>
</svg>
