<svg width="308" height="40" viewBox="0 0 308 40" fill="none" xmlns="http://www.w3.org/2000/svg">
<path d="M27.7034 13.7752H26.1852V10.1857C26.1852 4.56945 21.6156 0 15.9995 0C10.3832 0 5.81377 4.56958 5.81377 10.1857V13.7752H4.29555C1.92806 13.7752 0 15.7033 0 18.0708V35.7045C0 38.0719 1.92806 40 4.29555 40H27.7062C30.0737 40 32.0018 38.0719 32.0018 35.7045V18.0708C32.0018 15.7033 30.0737 13.7752 27.7062 13.7752H27.7034ZM10.2549 10.1857C10.2549 7.0184 12.8298 4.44356 15.9971 4.44356C19.1644 4.44356 21.7393 7.0184 21.7393 10.1857V13.7752H10.2548L10.2549 10.1857ZM27.5556 35.5568H4.43876V18.2189H27.553V35.5568H27.5556ZM13.7751 28.8274V24.9467C13.7751 23.7197 14.77 22.7248 15.9969 22.7248C17.2238 22.7248 18.2187 23.7197 18.2187 24.9467V28.8274C18.2187 30.0544 17.2238 31.0492 15.9969 31.0492C14.77 31.0492 13.7751 30.0544 13.7751 28.8274Z" fill="#D51217"/>
<path d="M56.5256 34H52.571L58.5966 16.5455H63.3523L69.3693 34H65.4148L61.0426 20.5341H60.9062L56.5256 34ZM56.2784 27.1392H65.6193V30.0199H56.2784V27.1392ZM71.4702 34V16.5455H75.1605V30.9574H82.6435V34H71.4702ZM82.2429 19.5881V16.5455H96.5781V19.5881H91.2344V34H87.5866V19.5881H82.2429ZM98.9389 34V16.5455H110.7V19.5881H102.629V23.7472H110.095V26.7898H102.629V30.9574H110.734V34H98.9389ZM113.634 34V16.5455H120.521C121.839 16.5455 122.964 16.7812 123.896 17.2528C124.833 17.7187 125.546 18.3807 126.035 19.2386C126.529 20.0909 126.776 21.0937 126.776 22.2472C126.776 23.4062 126.526 24.4034 126.026 25.2386C125.526 26.0682 124.802 26.7045 123.853 27.1477C122.91 27.5909 121.768 27.8125 120.427 27.8125H115.816V24.8466H119.83C120.535 24.8466 121.12 24.75 121.586 24.5568C122.052 24.3636 122.398 24.0739 122.626 23.6875C122.859 23.3011 122.975 22.821 122.975 22.2472C122.975 21.6676 122.859 21.179 122.626 20.7812C122.398 20.3835 122.049 20.0824 121.577 19.8778C121.112 19.6676 120.523 19.5625 119.813 19.5625H117.325V34H113.634ZM123.06 26.0568L127.398 34H123.325L119.08 26.0568H123.06ZM132.393 34H128.438L134.464 16.5455H139.219L145.237 34H141.282L136.91 20.5341H136.773L132.393 34ZM132.146 27.1392H141.487V30.0199H132.146V27.1392ZM147.337 34V16.5455H154.224C155.542 16.5455 156.667 16.7812 157.599 17.2528C158.536 17.7187 159.249 18.3807 159.738 19.2386C160.232 20.0909 160.479 21.0937 160.479 22.2472C160.479 23.4062 160.229 24.4034 159.729 25.2386C159.229 26.0682 158.505 26.7045 157.556 27.1477C156.613 27.5909 155.471 27.8125 154.13 27.8125H149.519V24.8466H153.533C154.238 24.8466 154.823 24.75 155.289 24.5568C155.755 24.3636 156.102 24.0739 156.329 23.6875C156.562 23.3011 156.678 22.821 156.678 22.2472C156.678 21.6676 156.562 21.179 156.329 20.7812C156.102 20.3835 155.752 20.0824 155.281 19.8778C154.815 19.6676 154.227 19.5625 153.516 19.5625H151.028V34H147.337ZM156.763 26.0568L161.102 34H157.028L152.783 26.0568H156.763ZM178.111 21.5653C178.043 20.8778 177.75 20.3437 177.233 19.9631C176.716 19.5824 176.014 19.392 175.128 19.392C174.526 19.392 174.017 19.4773 173.602 19.6477C173.188 19.8125 172.869 20.0426 172.648 20.3381C172.432 20.6335 172.324 20.9688 172.324 21.3438C172.313 21.6562 172.378 21.929 172.52 22.1619C172.668 22.3949 172.869 22.5966 173.125 22.767C173.381 22.9318 173.676 23.0767 174.011 23.2017C174.347 23.321 174.705 23.4233 175.085 23.5085L176.653 23.8835C177.415 24.054 178.114 24.2812 178.75 24.5653C179.386 24.8494 179.938 25.1989 180.403 25.6136C180.869 26.0284 181.23 26.517 181.486 27.0795C181.747 27.642 181.881 28.2869 181.886 29.0142C181.881 30.0824 181.608 31.0085 181.068 31.7926C180.534 32.571 179.761 33.1761 178.75 33.608C177.744 34.0341 176.531 34.2472 175.111 34.2472C173.702 34.2472 172.474 34.0312 171.429 33.5994C170.389 33.1676 169.577 32.5284 168.991 31.6818C168.412 30.8295 168.108 29.7756 168.08 28.5199H171.651C171.69 29.1051 171.858 29.5937 172.153 29.9858C172.455 30.3722 172.855 30.6648 173.355 30.8636C173.861 31.0568 174.432 31.1534 175.068 31.1534C175.693 31.1534 176.236 31.0625 176.696 30.8807C177.162 30.6989 177.523 30.446 177.778 30.1222C178.034 29.7983 178.162 29.4261 178.162 29.0057C178.162 28.6136 178.045 28.2841 177.812 28.017C177.585 27.75 177.25 27.5227 176.807 27.3352C176.369 27.1477 175.832 26.9773 175.196 26.8239L173.295 26.3466C171.824 25.9886 170.662 25.429 169.81 24.6676C168.957 23.9062 168.534 22.8807 168.54 21.5909C168.534 20.5341 168.815 19.6108 169.384 18.821C169.957 18.0312 170.744 17.4148 171.744 16.9716C172.744 16.5284 173.881 16.3068 175.153 16.3068C176.449 16.3068 177.58 16.5284 178.545 16.9716C179.517 17.4148 180.273 18.0312 180.812 18.821C181.352 19.6108 181.631 20.5256 181.648 21.5653H178.111ZM195.15 16.5455H198.84V27.8807C198.84 29.1534 198.536 30.267 197.928 31.2216C197.326 32.1761 196.482 32.9205 195.397 33.4545C194.312 33.983 193.048 34.2472 191.604 34.2472C190.156 34.2472 188.888 33.983 187.803 33.4545C186.718 32.9205 185.874 32.1761 185.272 31.2216C184.67 30.267 184.369 29.1534 184.369 27.8807V16.5455H188.059V27.5653C188.059 28.2301 188.204 28.821 188.494 29.3381C188.789 29.8551 189.204 30.2614 189.738 30.5568C190.272 30.8523 190.894 31 191.604 31C192.32 31 192.942 30.8523 193.471 30.5568C194.005 30.2614 194.417 29.8551 194.707 29.3381C195.002 28.821 195.15 28.2301 195.15 27.5653V16.5455ZM204.885 34H200.93L206.956 16.5455H211.712L217.729 34H213.774L209.402 20.5341H209.266L204.885 34ZM204.638 27.1392H213.979V30.0199H204.638V27.1392ZM234.853 21.5653C234.785 20.8778 234.492 20.3437 233.975 19.9631C233.458 19.5824 232.756 19.392 231.87 19.392C231.268 19.392 230.759 19.4773 230.344 19.6477C229.93 19.8125 229.612 20.0426 229.39 20.3381C229.174 20.6335 229.066 20.9688 229.066 21.3438C229.055 21.6562 229.12 21.929 229.262 22.1619C229.41 22.3949 229.612 22.5966 229.867 22.767C230.123 22.9318 230.418 23.0767 230.754 23.2017C231.089 23.321 231.447 23.4233 231.827 23.5085L233.396 23.8835C234.157 24.054 234.856 24.2812 235.492 24.5653C236.129 24.8494 236.68 25.1989 237.146 25.6136C237.612 26.0284 237.972 26.517 238.228 27.0795C238.489 27.642 238.623 28.2869 238.629 29.0142C238.623 30.0824 238.35 31.0085 237.81 31.7926C237.276 32.571 236.504 33.1761 235.492 33.608C234.487 34.0341 233.273 34.2472 231.853 34.2472C230.444 34.2472 229.217 34.0312 228.171 33.5994C227.131 33.1676 226.319 32.5284 225.734 31.6818C225.154 30.8295 224.85 29.7756 224.822 28.5199H228.393C228.433 29.1051 228.6 29.5937 228.896 29.9858C229.197 30.3722 229.597 30.6648 230.097 30.8636C230.603 31.0568 231.174 31.1534 231.81 31.1534C232.435 31.1534 232.978 31.0625 233.438 30.8807C233.904 30.6989 234.265 30.446 234.521 30.1222C234.776 29.7983 234.904 29.4261 234.904 29.0057C234.904 28.6136 234.788 28.2841 234.555 28.017C234.327 27.75 233.992 27.5227 233.549 27.3352C233.112 27.1477 232.575 26.9773 231.938 26.8239L230.038 26.3466C228.566 25.9886 227.404 25.429 226.552 24.6676C225.7 23.9062 225.276 22.8807 225.282 21.5909C225.276 20.5341 225.558 19.6108 226.126 18.821C226.7 18.0312 227.487 17.4148 228.487 16.9716C229.487 16.5284 230.623 16.3068 231.896 16.3068C233.191 16.3068 234.322 16.5284 235.288 16.9716C236.259 17.4148 237.015 18.0312 237.555 18.821C238.094 19.6108 238.373 20.5256 238.39 21.5653H234.853ZM241.111 34V16.5455H252.872V19.5881H244.801V23.7472H252.267V26.7898H244.801V30.9574H252.906V34H241.111ZM270.406 16.5455V34H267.218L259.624 23.0142H259.496V34H255.806V16.5455H259.045L266.579 27.5227H266.732V16.5455H270.406ZM273.455 34V16.5455H277.145V23.7472H284.636V16.5455H288.318V34H284.636V26.7898H277.145V34H273.455ZM294.369 34H290.415L296.44 16.5455H301.196L307.213 34H303.259L298.886 20.5341H298.75L294.369 34ZM294.122 27.1392H303.463V30.0199H294.122V27.1392Z" fill="#D51217"/>
</svg>
