<svg width="164" height="127" viewBox="0 0 164 127" fill="none" xmlns="http://www.w3.org/2000/svg">
<path d="M83.075 42.5848C75.985 41.1928 72.646 40.1438 72.646 36.5938C72.646 34.0278 73.757 32.2448 76.041 31.1368C80.011 29.2168 86.6 29.9638 90.14 32.7488C91.461 33.7918 93.366 33.5608 94.4 32.2388C95.437 30.9238 95.209 29.0158 93.89 27.9848C91.466 26.0788 88.313 24.8648 85.032 24.3268V18.9368C85.032 17.2598 83.675 15.9028 81.998 15.9028C80.321 15.9028 78.964 17.2598 78.964 18.9368V24.1518C76.978 24.3788 75.07 24.8648 73.391 25.6798C68.997 27.8128 66.577 31.6878 66.577 36.5938C66.577 45.5228 75.435 47.2658 81.9 48.5388C88.877 49.9078 91.354 50.8498 91.354 53.3978C91.354 55.8928 90.302 57.6518 88.14 58.7658C84.33 60.7448 77.957 60.1578 74.212 57.5038C72.843 56.5438 70.95 56.8578 69.984 58.2268C69.015 59.5958 69.335 61.4858 70.704 62.4578C73.03 64.1068 75.945 65.1668 78.964 65.6568V72.9108C78.964 74.5878 80.321 75.9448 81.998 75.9448C83.675 75.9448 85.032 74.5878 85.032 72.9108V65.7378C87.148 65.4998 89.194 65.0548 90.928 64.1588C95.114 61.9958 97.422 58.1738 97.422 53.3988C97.424 45.4058 89.469 43.8418 83.075 42.5848Z" fill="#D51217"/>
<path d="M82 0C57.2 0 37 20.2 37 45C37 69.8 57.2 90 82 90C106.8 90 127 69.8 127 45C127 20.2 106.8 0 82 0ZM82 81C62.1 81 46 64.9 46 45C46 25.1 62.1 9 82 9C101.9 9 118 25.1 118 45C118 64.9 101.9 81 82 81Z" fill="#D51217"/>
<path d="M1.51705 121V103.545H8.40341C9.72159 103.545 10.8466 103.781 11.7784 104.253C12.7159 104.719 13.429 105.381 13.9176 106.239C14.4119 107.091 14.6591 108.094 14.6591 109.247C14.6591 110.406 14.4091 111.403 13.9091 112.239C13.4091 113.068 12.6847 113.705 11.7358 114.148C10.7926 114.591 9.65057 114.812 8.30966 114.812H3.69886V111.847H7.71307C8.41761 111.847 9.00284 111.75 9.46875 111.557C9.93466 111.364 10.2813 111.074 10.5085 110.688C10.7415 110.301 10.858 109.821 10.858 109.247C10.858 108.668 10.7415 108.179 10.5085 107.781C10.2813 107.384 9.93182 107.082 9.46023 106.878C8.99432 106.668 8.40625 106.562 7.69602 106.562H5.20739V121H1.51705ZM10.9432 113.057L15.2812 121H11.2074L6.96307 113.057H10.9432ZM17.267 121V103.545H29.0284V106.588H20.9574V110.747H28.4233V113.79H20.9574V117.957H29.0625V121H17.267ZM47.3629 109.656H43.63C43.5618 109.173 43.4226 108.744 43.2124 108.369C43.0021 107.989 42.7322 107.665 42.4027 107.398C42.0732 107.131 41.6925 106.926 41.2607 106.784C40.8345 106.642 40.3714 106.571 39.8714 106.571C38.968 106.571 38.1811 106.795 37.5107 107.244C36.8402 107.687 36.3203 108.335 35.951 109.188C35.5817 110.034 35.397 111.062 35.397 112.273C35.397 113.517 35.5817 114.562 35.951 115.409C36.326 116.256 36.8487 116.895 37.5192 117.327C38.1896 117.759 38.9652 117.974 39.8459 117.974C40.3402 117.974 40.7976 117.909 41.218 117.778C41.6442 117.648 42.022 117.457 42.3516 117.207C42.6811 116.952 42.9538 116.642 43.1697 116.278C43.3913 115.915 43.5447 115.5 43.63 115.034L47.3629 115.051C47.2663 115.852 47.0249 116.625 46.6385 117.369C46.2578 118.108 45.7436 118.77 45.0959 119.355C44.4538 119.935 43.6868 120.395 42.7947 120.736C41.9084 121.071 40.9055 121.239 39.7862 121.239C38.2294 121.239 36.8374 120.886 35.6101 120.182C34.3885 119.477 33.4226 118.457 32.7124 117.122C32.0078 115.787 31.6555 114.17 31.6555 112.273C31.6555 110.369 32.0135 108.75 32.7294 107.415C33.4453 106.08 34.4169 105.062 35.6442 104.364C36.8714 103.659 38.2521 103.307 39.7862 103.307C40.7976 103.307 41.7351 103.449 42.5987 103.733C43.468 104.017 44.2379 104.432 44.9084 104.977C45.5788 105.517 46.1243 106.179 46.5447 106.963C46.9709 107.747 47.2436 108.645 47.3629 109.656ZM52.6896 121H48.7351L54.7607 103.545H59.5163L65.5334 121H61.5788L57.2067 107.534H57.0703L52.6896 121ZM52.4425 114.139H61.7834V117.02H52.4425V114.139ZM67.6342 121V103.545H74.5206C75.8388 103.545 76.9638 103.781 77.8956 104.253C78.8331 104.719 79.5462 105.381 80.0348 106.239C80.5291 107.091 80.7763 108.094 80.7763 109.247C80.7763 110.406 80.5263 111.403 80.0263 112.239C79.5263 113.068 78.8018 113.705 77.853 114.148C76.9098 114.591 75.7678 114.812 74.4268 114.812H69.8161V111.847H73.8303C74.5348 111.847 75.12 111.75 75.5859 111.557C76.0518 111.364 76.3984 111.074 76.6257 110.688C76.8587 110.301 76.9751 109.821 76.9751 109.247C76.9751 108.668 76.8587 108.179 76.6257 107.781C76.3984 107.384 76.049 107.082 75.5774 106.878C75.1115 106.668 74.5234 106.562 73.8132 106.562H71.3246V121H67.6342ZM77.0604 113.057L81.3984 121H77.3246L73.0803 113.057H77.0604ZM83.3842 121V103.545H90.2706C91.5888 103.545 92.7138 103.781 93.6456 104.253C94.5831 104.719 95.2962 105.381 95.7848 106.239C96.2791 107.091 96.5263 108.094 96.5263 109.247C96.5263 110.406 96.2763 111.403 95.7763 112.239C95.2763 113.068 94.5518 113.705 93.603 114.148C92.6598 114.591 91.5178 114.812 90.1768 114.812H85.5661V111.847H89.5803C90.2848 111.847 90.87 111.75 91.3359 111.557C91.8018 111.364 92.1484 111.074 92.3757 110.688C92.6087 110.301 92.7251 109.821 92.7251 109.247C92.7251 108.668 92.6087 108.179 92.3757 107.781C92.1484 107.384 91.799 107.082 91.3274 106.878C90.8615 106.668 90.2734 106.562 89.5632 106.562H87.0746V121H83.3842ZM92.8104 113.057L97.1484 121H93.0746L88.8303 113.057H92.8104ZM99.1342 121V103.545H110.896V106.588H102.825V110.747H110.29V113.79H102.825V117.957H110.93V121H99.1342ZM125.403 109.188C125.284 108.773 125.116 108.406 124.901 108.088C124.685 107.764 124.42 107.491 124.108 107.27C123.801 107.043 123.449 106.869 123.051 106.75C122.659 106.631 122.224 106.571 121.747 106.571C120.855 106.571 120.071 106.793 119.395 107.236C118.724 107.679 118.202 108.324 117.827 109.17C117.452 110.011 117.264 111.04 117.264 112.256C117.264 113.472 117.449 114.506 117.818 115.358C118.188 116.21 118.71 116.861 119.386 117.31C120.062 117.753 120.861 117.974 121.781 117.974C122.616 117.974 123.33 117.827 123.92 117.531C124.517 117.23 124.972 116.807 125.284 116.261C125.602 115.716 125.761 115.071 125.761 114.327L126.511 114.438H122.011V111.659H129.315V113.858C129.315 115.392 128.991 116.71 128.344 117.812C127.696 118.909 126.804 119.756 125.668 120.352C124.531 120.943 123.23 121.239 121.764 121.239C120.128 121.239 118.69 120.878 117.452 120.156C116.213 119.429 115.247 118.398 114.554 117.062C113.866 115.722 113.523 114.131 113.523 112.29C113.523 110.875 113.727 109.614 114.136 108.506C114.551 107.392 115.131 106.449 115.875 105.676C116.619 104.903 117.486 104.315 118.474 103.912C119.463 103.509 120.534 103.307 121.688 103.307C122.676 103.307 123.597 103.452 124.449 103.741C125.301 104.026 126.057 104.429 126.716 104.952C127.381 105.474 127.923 106.097 128.344 106.818C128.764 107.534 129.034 108.324 129.153 109.188H125.403ZM134.557 121H130.602L136.628 103.545H141.384L147.401 121H143.446L139.074 107.534H138.938L134.557 121ZM134.31 114.139H143.651V117.02H134.31V114.139ZM149.501 121V103.545H156.388C157.706 103.545 158.831 103.781 159.763 104.253C160.7 104.719 161.413 105.381 161.902 106.239C162.396 107.091 162.643 108.094 162.643 109.247C162.643 110.406 162.393 111.403 161.893 112.239C161.393 113.068 160.669 113.705 159.72 114.148C158.777 114.591 157.635 114.812 156.294 114.812H151.683V111.847H155.697C156.402 111.847 156.987 111.75 157.453 111.557C157.919 111.364 158.266 111.074 158.493 110.688C158.726 110.301 158.842 109.821 158.842 109.247C158.842 108.668 158.726 108.179 158.493 107.781C158.266 107.384 157.916 107.082 157.445 106.878C156.979 106.668 156.391 106.562 155.68 106.562H153.192V121H149.501ZM158.928 113.057L163.266 121H159.192L154.947 113.057H158.928Z" fill="#D51217"/>
</svg>
