<svg width="90" height="127" viewBox="0 0 90 127" fill="none" xmlns="http://www.w3.org/2000/svg">
<path d="M46.075 42.5848C38.985 41.1928 35.646 40.1438 35.646 36.5938C35.646 34.0278 36.757 32.2448 39.041 31.1368C43.011 29.2168 49.6 29.9638 53.14 32.7488C54.461 33.7918 56.366 33.5608 57.4 32.2388C58.437 30.9238 58.209 29.0158 56.89 27.9848C54.466 26.0788 51.313 24.8648 48.032 24.3268V18.9368C48.032 17.2598 46.675 15.9028 44.998 15.9028C43.321 15.9028 41.964 17.2598 41.964 18.9368V24.1518C39.978 24.3788 38.07 24.8648 36.391 25.6798C31.997 27.8128 29.577 31.6878 29.577 36.5938C29.577 45.5228 38.435 47.2658 44.9 48.5388C51.877 49.9078 54.354 50.8498 54.354 53.3978C54.354 55.8928 53.302 57.6518 51.14 58.7658C47.33 60.7448 40.957 60.1578 37.212 57.5038C35.843 56.5438 33.95 56.8578 32.984 58.2268C32.015 59.5958 32.335 61.4858 33.704 62.4578C36.03 64.1068 38.945 65.1668 41.964 65.6568V72.9108C41.964 74.5878 43.321 75.9448 44.998 75.9448C46.675 75.9448 48.032 74.5878 48.032 72.9108V65.7378C50.148 65.4998 52.194 65.0548 53.928 64.1588C58.114 61.9958 60.422 58.1738 60.422 53.3988C60.424 45.4058 52.469 43.8418 46.075 42.5848Z" fill="white"/>
<path d="M45 0C20.2 0 0 20.2 0 45C0 69.8 20.2 90 45 90C69.8 90 90 69.8 90 45C90 20.2 69.8 0 45 0ZM45 81C25.1 81 9 64.9 9 45C9 25.1 25.1 9 45 9C64.9 9 81 25.1 81 45C81 64.9 64.9 81 45 81Z" fill="white"/>
<path d="M13.9858 108.565C13.9176 107.878 13.625 107.344 13.108 106.963C12.5909 106.582 11.8892 106.392 11.0028 106.392C10.4006 106.392 9.89205 106.477 9.47727 106.648C9.0625 106.812 8.74432 107.043 8.52273 107.338C8.30682 107.634 8.19886 107.969 8.19886 108.344C8.1875 108.656 8.25284 108.929 8.39489 109.162C8.54261 109.395 8.74432 109.597 9 109.767C9.25568 109.932 9.55114 110.077 9.88636 110.202C10.2216 110.321 10.5795 110.423 10.9602 110.509L12.5284 110.884C13.2898 111.054 13.9886 111.281 14.625 111.565C15.2614 111.849 15.8125 112.199 16.2784 112.614C16.7443 113.028 17.1051 113.517 17.3608 114.08C17.6222 114.642 17.7557 115.287 17.7614 116.014C17.7557 117.082 17.483 118.009 16.9432 118.793C16.4091 119.571 15.6364 120.176 14.625 120.608C13.6193 121.034 12.4063 121.247 10.9858 121.247C9.5767 121.247 8.34943 121.031 7.30398 120.599C6.2642 120.168 5.4517 119.528 4.86648 118.682C4.28693 117.83 3.98295 116.776 3.95455 115.52H7.52557C7.56534 116.105 7.73295 116.594 8.02841 116.986C8.32955 117.372 8.73011 117.665 9.23011 117.864C9.7358 118.057 10.3068 118.153 10.9432 118.153C11.5682 118.153 12.1108 118.062 12.571 117.881C13.0369 117.699 13.3977 117.446 13.6534 117.122C13.9091 116.798 14.0369 116.426 14.0369 116.006C14.0369 115.614 13.9205 115.284 13.6875 115.017C13.4602 114.75 13.125 114.523 12.6818 114.335C12.2443 114.148 11.7074 113.977 11.071 113.824L9.17045 113.347C7.69886 112.989 6.53693 112.429 5.68466 111.668C4.83239 110.906 4.40909 109.881 4.41477 108.591C4.40909 107.534 4.69034 106.611 5.25852 105.821C5.83239 105.031 6.61932 104.415 7.61932 103.972C8.61932 103.528 9.75568 103.307 11.0284 103.307C12.3239 103.307 13.4545 103.528 14.4205 103.972C15.392 104.415 16.1477 105.031 16.6875 105.821C17.2273 106.611 17.5057 107.526 17.5227 108.565H13.9858ZM22.8537 121H18.8991L24.9247 103.545H29.6804L35.6974 121H31.7429L27.3707 107.534H27.2344L22.8537 121ZM22.6065 114.139H31.9474V117.02H22.6065V114.139ZM37.7983 121V103.545H41.4886V117.957H48.9716V121H37.7983ZM57.603 121H51.4155V103.545H57.6541C59.4098 103.545 60.9212 103.895 62.1882 104.594C63.4553 105.287 64.4297 106.284 65.1115 107.585C65.799 108.886 66.1428 110.443 66.1428 112.256C66.1428 114.074 65.799 115.636 65.1115 116.943C64.4297 118.25 63.4496 119.253 62.1712 119.952C60.8984 120.651 59.3757 121 57.603 121ZM55.1058 117.838H57.4496C58.5405 117.838 59.4581 117.645 60.2024 117.259C60.9524 116.866 61.5149 116.261 61.8899 115.443C62.2706 114.619 62.4609 113.557 62.4609 112.256C62.4609 110.966 62.2706 109.912 61.8899 109.094C61.5149 108.276 60.9553 107.673 60.2109 107.287C59.4666 106.901 58.549 106.707 57.4581 106.707H55.1058V117.838ZM84.9162 112.273C84.9162 114.176 84.5554 115.795 83.8338 117.131C83.1179 118.466 82.1406 119.486 80.902 120.19C79.669 120.889 78.2827 121.239 76.7429 121.239C75.1918 121.239 73.7997 120.886 72.5668 120.182C71.3338 119.477 70.3594 118.457 69.6435 117.122C68.9276 115.787 68.5696 114.17 68.5696 112.273C68.5696 110.369 68.9276 108.75 69.6435 107.415C70.3594 106.08 71.3338 105.062 72.5668 104.364C73.7997 103.659 75.1918 103.307 76.7429 103.307C78.2827 103.307 79.669 103.659 80.902 104.364C82.1406 105.062 83.1179 106.08 83.8338 107.415C84.5554 108.75 84.9162 110.369 84.9162 112.273ZM81.1747 112.273C81.1747 111.04 80.9901 110 80.6207 109.153C80.2571 108.307 79.7429 107.665 79.0781 107.227C78.4134 106.79 77.6349 106.571 76.7429 106.571C75.8509 106.571 75.0724 106.79 74.4077 107.227C73.7429 107.665 73.2259 108.307 72.8565 109.153C72.4929 110 72.3111 111.04 72.3111 112.273C72.3111 113.506 72.4929 114.545 72.8565 115.392C73.2259 116.239 73.7429 116.881 74.4077 117.318C75.0724 117.756 75.8509 117.974 76.7429 117.974C77.6349 117.974 78.4134 117.756 79.0781 117.318C79.7429 116.881 80.2571 116.239 80.6207 115.392C80.9901 114.545 81.1747 113.506 81.1747 112.273Z" fill="white"/>
</svg>
