<svg width="275" height="31" viewBox="0 0 275 31" fill="none" xmlns="http://www.w3.org/2000/svg">
<path d="M63.2784 13.4375H60.7898C60.7443 13.1155 60.6515 12.8295 60.5114 12.5795C60.3712 12.3258 60.1913 12.1098 59.9716 11.9318C59.7519 11.7538 59.4981 11.6174 59.2102 11.5227C58.9261 11.428 58.6174 11.3807 58.2841 11.3807C57.6818 11.3807 57.1572 11.5303 56.7102 11.8295C56.2633 12.125 55.9167 12.5568 55.6705 13.125C55.4242 13.6894 55.3011 14.375 55.3011 15.1818C55.3011 16.0114 55.4242 16.7083 55.6705 17.2727C55.9205 17.8371 56.2689 18.2633 56.7159 18.5511C57.1629 18.839 57.6799 18.983 58.267 18.983C58.5966 18.983 58.9015 18.9394 59.1818 18.8523C59.4659 18.7652 59.7178 18.6383 59.9375 18.4716C60.1572 18.3011 60.339 18.0947 60.483 17.8523C60.6307 17.6098 60.733 17.3333 60.7898 17.0227L63.2784 17.0341C63.214 17.5682 63.053 18.0833 62.7955 18.5795C62.5417 19.072 62.1989 19.5133 61.767 19.9034C61.339 20.2898 60.8277 20.5966 60.233 20.8239C59.642 21.0473 58.9735 21.1591 58.2273 21.1591C57.1894 21.1591 56.2614 20.9242 55.4432 20.4545C54.6288 19.9848 53.9848 19.3049 53.5114 18.4148C53.0417 17.5246 52.8068 16.447 52.8068 15.1818C52.8068 13.9129 53.0455 12.8333 53.5227 11.9432C54 11.053 54.6477 10.375 55.4659 9.90909C56.2841 9.43939 57.2045 9.20455 58.2273 9.20455C58.9015 9.20455 59.5265 9.29924 60.1023 9.48864C60.6818 9.67803 61.1951 9.95455 61.642 10.3182C62.089 10.678 62.4527 11.1193 62.733 11.642C63.017 12.1648 63.1989 12.7633 63.2784 13.4375ZM66.8295 21H64.1932L68.2102 9.36364H71.3807L75.392 21H72.7557L69.8409 12.0227H69.75L66.8295 21ZM66.6648 16.4261H72.892V18.3466H66.6648V16.4261ZM80.9176 21H76.7926V9.36364H80.9517C82.1222 9.36364 83.1297 9.59659 83.9744 10.0625C84.8191 10.5246 85.4688 11.1894 85.9233 12.0568C86.3816 12.9242 86.6108 13.9621 86.6108 15.1705C86.6108 16.3826 86.3816 17.4242 85.9233 18.2955C85.4688 19.1667 84.8153 19.8352 83.9631 20.3011C83.1146 20.767 82.0994 21 80.9176 21ZM79.2528 18.892H80.8153C81.5426 18.892 82.1544 18.7633 82.6506 18.5057C83.1506 18.2443 83.5256 17.8409 83.7756 17.2955C84.0294 16.7462 84.1562 16.0379 84.1562 15.1705C84.1562 14.3106 84.0294 13.608 83.7756 13.0625C83.5256 12.517 83.1525 12.1155 82.6562 11.858C82.16 11.6004 81.5483 11.4716 80.821 11.4716H79.2528V18.892ZM89.7827 21H87.1463L91.1634 9.36364H94.3338L98.3452 21H95.7088L92.794 12.0227H92.7031L89.7827 21ZM89.6179 16.4261H95.8452V18.3466H89.6179V16.4261ZM105.793 12.7102C105.747 12.2519 105.552 11.8958 105.207 11.642C104.863 11.3883 104.395 11.2614 103.804 11.2614C103.402 11.2614 103.063 11.3182 102.787 11.4318C102.51 11.5417 102.298 11.6951 102.151 11.892C102.007 12.089 101.935 12.3125 101.935 12.5625C101.927 12.7708 101.971 12.9527 102.065 13.108C102.164 13.2633 102.298 13.3977 102.469 13.5114C102.639 13.6212 102.836 13.7178 103.06 13.8011C103.283 13.8807 103.522 13.9489 103.776 14.0057L104.821 14.2557C105.329 14.3693 105.795 14.5208 106.219 14.7102C106.643 14.8996 107.01 15.1326 107.321 15.4091C107.632 15.6856 107.872 16.0114 108.043 16.3864C108.217 16.7614 108.306 17.1913 108.31 17.6761C108.306 18.3883 108.124 19.0057 107.764 19.5284C107.408 20.0473 106.893 20.4508 106.219 20.7386C105.548 21.0227 104.74 21.1648 103.793 21.1648C102.853 21.1648 102.035 21.0208 101.338 20.733C100.645 20.4451 100.103 20.0189 99.7131 19.4545C99.3267 18.8864 99.1241 18.1837 99.1051 17.3466H101.486C101.512 17.7367 101.624 18.0625 101.821 18.3239C102.022 18.5814 102.289 18.7765 102.622 18.9091C102.959 19.0379 103.34 19.1023 103.764 19.1023C104.181 19.1023 104.543 19.0417 104.849 18.9205C105.16 18.7992 105.401 18.6307 105.571 18.4148C105.741 18.1989 105.827 17.9508 105.827 17.6705C105.827 17.4091 105.749 17.1894 105.594 17.0114C105.442 16.8333 105.219 16.6818 104.923 16.5568C104.632 16.4318 104.274 16.3182 103.849 16.2159L102.582 15.8977C101.601 15.6591 100.827 15.286 100.259 14.7784C99.6903 14.2708 99.4081 13.5871 99.4119 12.7273C99.4081 12.0227 99.5956 11.4072 99.9744 10.8807C100.357 10.3542 100.882 9.94318 101.548 9.64773C102.215 9.35227 102.973 9.20455 103.821 9.20455C104.685 9.20455 105.438 9.35227 106.082 9.64773C106.73 9.94318 107.234 10.3542 107.594 10.8807C107.954 11.4072 108.139 12.017 108.151 12.7102H105.793ZM109.521 11.392V9.36364H119.078V11.392H115.516V21H113.084V11.392H109.521ZM120.652 21V9.36364H125.243C126.122 9.36364 126.872 9.52083 127.493 9.83523C128.118 10.1458 128.593 10.5871 128.919 11.1591C129.249 11.7273 129.413 12.3958 129.413 13.1648C129.413 13.9375 129.247 14.6023 128.913 15.1591C128.58 15.7121 128.097 16.1364 127.464 16.4318C126.836 16.7273 126.074 16.875 125.18 16.875H122.107V14.8977H124.783C125.252 14.8977 125.643 14.8333 125.953 14.7045C126.264 14.5758 126.495 14.3826 126.646 14.125C126.802 13.8674 126.879 13.5473 126.879 13.1648C126.879 12.7784 126.802 12.4527 126.646 12.1875C126.495 11.9223 126.262 11.7216 125.947 11.5852C125.637 11.4451 125.245 11.375 124.771 11.375H123.112V21H120.652ZM126.936 15.7045L129.828 21H127.112L124.283 15.7045H126.936ZM133.158 21H130.521L134.538 9.36364H137.709L141.72 21H139.084L136.169 12.0227H136.078L133.158 21ZM132.993 16.4261H139.22V18.3466H132.993V16.4261ZM143.121 21V9.36364H147.712C148.59 9.36364 149.34 9.52083 149.962 9.83523C150.587 10.1458 151.062 10.5871 151.388 11.1591C151.717 11.7273 151.882 12.3958 151.882 13.1648C151.882 13.9375 151.715 14.6023 151.382 15.1591C151.049 15.7121 150.566 16.1364 149.933 16.4318C149.304 16.7273 148.543 16.875 147.649 16.875H144.575V14.8977H147.251C147.721 14.8977 148.111 14.8333 148.422 14.7045C148.732 14.5758 148.964 14.3826 149.115 14.125C149.27 13.8674 149.348 13.5473 149.348 13.1648C149.348 12.7784 149.27 12.4527 149.115 12.1875C148.964 11.9223 148.731 11.7216 148.416 11.5852C148.106 11.4451 147.714 11.375 147.24 11.375H145.581V21H143.121ZM149.405 15.7045L152.297 21H149.581L146.751 15.7045H149.405ZM167.057 9.36364V21H164.932L159.869 13.6761H159.784V21H157.324V9.36364H159.483L164.506 16.6818H164.608V9.36364H167.057ZM179.783 15.1818C179.783 16.4508 179.542 17.5303 179.061 18.4205C178.584 19.3106 177.932 19.9905 177.107 20.4602C176.285 20.9261 175.36 21.1591 174.334 21.1591C173.3 21.1591 172.372 20.9242 171.55 20.4545C170.728 19.9848 170.078 19.3049 169.601 18.4148C169.124 17.5246 168.885 16.447 168.885 15.1818C168.885 13.9129 169.124 12.8333 169.601 11.9432C170.078 11.053 170.728 10.375 171.55 9.90909C172.372 9.43939 173.3 9.20455 174.334 9.20455C175.36 9.20455 176.285 9.43939 177.107 9.90909C177.932 10.375 178.584 11.053 179.061 11.9432C179.542 12.8333 179.783 13.9129 179.783 15.1818ZM177.288 15.1818C177.288 14.3598 177.165 13.6667 176.919 13.1023C176.677 12.5379 176.334 12.1098 175.891 11.8182C175.447 11.5265 174.929 11.3807 174.334 11.3807C173.739 11.3807 173.22 11.5265 172.777 11.8182C172.334 12.1098 171.989 12.5379 171.743 13.1023C171.5 13.6667 171.379 14.3598 171.379 15.1818C171.379 16.0038 171.5 16.697 171.743 17.2614C171.989 17.8258 172.334 18.2538 172.777 18.5455C173.22 18.8371 173.739 18.983 174.334 18.983C174.929 18.983 175.447 18.8371 175.891 18.5455C176.334 18.2538 176.677 17.8258 176.919 17.2614C177.165 16.697 177.288 16.0038 177.288 15.1818ZM183.051 9.36364L185.864 18.2045H185.972L188.79 9.36364H191.517L187.506 21H184.335L180.318 9.36364H183.051ZM202.955 15.1818C202.955 16.4508 202.714 17.5303 202.233 18.4205C201.756 19.3106 201.104 19.9905 200.278 20.4602C199.456 20.9261 198.532 21.1591 197.506 21.1591C196.472 21.1591 195.544 20.9242 194.722 20.4545C193.9 19.9848 193.25 19.3049 192.773 18.4148C192.295 17.5246 192.057 16.447 192.057 15.1818C192.057 13.9129 192.295 12.8333 192.773 11.9432C193.25 11.053 193.9 10.375 194.722 9.90909C195.544 9.43939 196.472 9.20455 197.506 9.20455C198.532 9.20455 199.456 9.43939 200.278 9.90909C201.104 10.375 201.756 11.053 202.233 11.9432C202.714 12.8333 202.955 13.9129 202.955 15.1818ZM200.46 15.1818C200.46 14.3598 200.337 13.6667 200.091 13.1023C199.848 12.5379 199.506 12.1098 199.062 11.8182C198.619 11.5265 198.1 11.3807 197.506 11.3807C196.911 11.3807 196.392 11.5265 195.949 11.8182C195.506 12.1098 195.161 12.5379 194.915 13.1023C194.672 13.6667 194.551 14.3598 194.551 15.1818C194.551 16.0038 194.672 16.697 194.915 17.2614C195.161 17.8258 195.506 18.2538 195.949 18.5455C196.392 18.8371 196.911 18.983 197.506 18.983C198.1 18.983 198.619 18.8371 199.062 18.5455C199.506 18.2538 199.848 17.8258 200.091 17.2614C200.337 16.697 200.46 16.0038 200.46 15.1818ZM218.747 13.4375H216.259C216.213 13.1155 216.12 12.8295 215.98 12.5795C215.84 12.3258 215.66 12.1098 215.44 11.9318C215.221 11.7538 214.967 11.6174 214.679 11.5227C214.395 11.428 214.086 11.3807 213.753 11.3807C213.151 11.3807 212.626 11.5303 212.179 11.8295C211.732 12.125 211.385 12.5568 211.139 13.125C210.893 13.6894 210.77 14.375 210.77 15.1818C210.77 16.0114 210.893 16.7083 211.139 17.2727C211.389 17.8371 211.738 18.2633 212.185 18.5511C212.632 18.839 213.149 18.983 213.736 18.983C214.065 18.983 214.37 18.9394 214.651 18.8523C214.935 18.7652 215.187 18.6383 215.406 18.4716C215.626 18.3011 215.808 18.0947 215.952 17.8523C216.099 17.6098 216.202 17.3333 216.259 17.0227L218.747 17.0341C218.683 17.5682 218.522 18.0833 218.264 18.5795C218.01 19.072 217.668 19.5133 217.236 19.9034C216.808 20.2898 216.296 20.5966 215.702 20.8239C215.111 21.0473 214.442 21.1591 213.696 21.1591C212.658 21.1591 211.73 20.9242 210.912 20.4545C210.098 19.9848 209.454 19.3049 208.98 18.4148C208.51 17.5246 208.276 16.447 208.276 15.1818C208.276 13.9129 208.514 12.8333 208.991 11.9432C209.469 11.053 210.116 10.375 210.935 9.90909C211.753 9.43939 212.673 9.20455 213.696 9.20455C214.37 9.20455 214.995 9.29924 215.571 9.48864C216.151 9.67803 216.664 9.95455 217.111 10.3182C217.558 10.678 217.921 11.1193 218.202 11.642C218.486 12.1648 218.668 12.7633 218.747 13.4375ZM222.298 21H219.662L223.679 9.36364H226.849L230.861 21H228.224L225.31 12.0227H225.219L222.298 21ZM222.134 16.4261H228.361V18.3466H222.134V16.4261ZM232.261 21V9.36364H236.852C237.731 9.36364 238.481 9.52083 239.102 9.83523C239.727 10.1458 240.203 10.5871 240.528 11.1591C240.858 11.7273 241.023 12.3958 241.023 13.1648C241.023 13.9375 240.856 14.6023 240.523 15.1591C240.189 15.7121 239.706 16.1364 239.074 16.4318C238.445 16.7273 237.684 16.875 236.79 16.875H233.716V14.8977H236.392C236.862 14.8977 237.252 14.8333 237.562 14.7045C237.873 14.5758 238.104 14.3826 238.256 14.125C238.411 13.8674 238.489 13.5473 238.489 13.1648C238.489 12.7784 238.411 12.4527 238.256 12.1875C238.104 11.9223 237.871 11.7216 237.557 11.5852C237.246 11.4451 236.854 11.375 236.381 11.375H234.722V21H232.261ZM238.545 15.7045L241.438 21H238.722L235.892 15.7045H238.545ZM242.318 11.392V9.36364H251.875V11.392H248.312V21H245.881V11.392H242.318ZM254.033 21H251.396L255.413 9.36364H258.584L262.595 21H259.959L257.044 12.0227H256.953L254.033 21ZM253.868 16.4261H260.095V18.3466H253.868V16.4261ZM255.368 8.21591L254.027 8.19886C254.027 7.47538 254.205 6.92045 254.561 6.53409C254.917 6.14773 255.355 5.95265 255.874 5.94886C256.139 5.94886 256.366 5.99242 256.555 6.07955C256.745 6.16288 256.917 6.26136 257.072 6.375C257.228 6.48864 257.375 6.58901 257.516 6.67614C257.656 6.75947 257.807 6.80114 257.97 6.80114C258.19 6.79735 258.357 6.71591 258.47 6.55682C258.588 6.39394 258.646 6.18182 258.646 5.92045L259.97 5.96023C259.963 6.67614 259.781 7.22917 259.425 7.61932C259.069 8.00568 258.633 8.20076 258.118 8.20455C257.838 8.20833 257.601 8.16667 257.408 8.07955C257.218 7.99242 257.052 7.89394 256.908 7.78409C256.764 7.67045 256.624 7.57008 256.487 7.48295C256.351 7.39583 256.197 7.35227 256.027 7.35227C255.83 7.35227 255.671 7.42992 255.55 7.58523C255.429 7.74053 255.368 7.95076 255.368 8.21591ZM274.142 15.1818C274.142 16.4508 273.902 17.5303 273.42 18.4205C272.943 19.3106 272.292 19.9905 271.466 20.4602C270.644 20.9261 269.72 21.1591 268.693 21.1591C267.659 21.1591 266.731 20.9242 265.909 20.4545C265.087 19.9848 264.438 19.3049 263.96 18.4148C263.483 17.5246 263.244 16.447 263.244 15.1818C263.244 13.9129 263.483 12.8333 263.96 11.9432C264.438 11.053 265.087 10.375 265.909 9.90909C266.731 9.43939 267.659 9.20455 268.693 9.20455C269.72 9.20455 270.644 9.43939 271.466 9.90909C272.292 10.375 272.943 11.053 273.42 11.9432C273.902 12.8333 274.142 13.9129 274.142 15.1818ZM271.648 15.1818C271.648 14.3598 271.525 13.6667 271.278 13.1023C271.036 12.5379 270.693 12.1098 270.25 11.8182C269.807 11.5265 269.288 11.3807 268.693 11.3807C268.098 11.3807 267.58 11.5265 267.136 11.8182C266.693 12.1098 266.348 12.5379 266.102 13.1023C265.86 13.6667 265.739 14.3598 265.739 15.1818C265.739 16.0038 265.86 16.697 266.102 17.2614C266.348 17.8258 266.693 18.2538 267.136 18.5455C267.58 18.8371 268.098 18.983 268.693 18.983C269.288 18.983 269.807 18.8371 270.25 18.5455C270.693 18.2538 271.036 17.8258 271.278 17.2614C271.525 16.697 271.648 16.0038 271.648 15.1818Z" fill="#EE3338"/>
<path d="M15.25 0C12.2338 0 9.28541 0.894397 6.77756 2.57009C4.26971 4.24578 2.31508 6.6275 1.16084 9.41408C0.00660752 12.2006 -0.295393 15.2669 0.293031 18.2251C0.881456 21.1833 2.33388 23.9006 4.46663 26.0334C6.59938 28.1661 9.31667 29.6185 12.2749 30.207C15.2331 30.7954 18.2994 30.4934 21.0859 29.3392C23.8725 28.1849 26.2542 26.2303 27.9299 23.7224C29.6056 21.2146 30.5 18.2662 30.5 15.25C30.4959 11.2067 28.8878 7.33023 26.0288 4.47119C23.1698 1.61216 19.2933 0.00414059 15.25 0ZM15.25 28.1538C12.6979 28.1538 10.203 27.397 8.08101 25.9792C5.95899 24.5613 4.30507 22.546 3.32841 20.1881C2.35175 17.8302 2.09621 15.2357 2.5941 12.7326C3.092 10.2295 4.32097 7.93024 6.12561 6.1256C7.93024 4.32097 10.2295 3.09199 12.7326 2.5941C15.2357 2.0962 17.8302 2.35174 20.1881 3.3284C22.546 4.30506 24.5613 5.95898 25.9792 8.08101C27.3971 10.203 28.1538 12.6979 28.1538 15.25C28.1497 18.671 26.7889 21.9508 24.3698 24.3698C21.9508 26.7889 18.671 28.1497 15.25 28.1538Z" fill="#EE3338"/>
<path d="M21.5064 14.0767H16.4231V8.99339C16.4231 8.68227 16.2995 8.38389 16.0795 8.1639C15.8595 7.9439 15.5611 7.82031 15.25 7.82031C14.9389 7.82031 14.6405 7.9439 14.4205 8.1639C14.2005 8.38389 14.0769 8.68227 14.0769 8.99339V14.0767H8.99357C8.68245 14.0767 8.38408 14.2003 8.16408 14.4203C7.94409 14.6403 7.8205 14.9387 7.8205 15.2498C7.8205 15.5609 7.94409 15.8593 8.16408 16.0793C8.38408 16.2993 8.68245 16.4229 8.99357 16.4229H14.0769V21.5062C14.0769 21.8173 14.2005 22.1157 14.4205 22.3357C14.6405 22.5557 14.9389 22.6793 15.25 22.6793C15.5611 22.6793 15.8595 22.5557 16.0795 22.3357C16.2995 22.1157 16.4231 21.8173 16.4231 21.5062V16.4229H21.5064C21.8175 16.4229 22.1159 16.2993 22.3359 16.0793C22.5559 15.8593 22.6795 15.5609 22.6795 15.2498C22.6795 14.9387 22.5559 14.6403 22.3359 14.4203C22.1159 14.2003 21.8175 14.0767 21.5064 14.0767Z" fill="#EE3338"/>
</svg>
