<svg width="131" height="131" viewBox="0 0 131 131" fill="none" xmlns="http://www.w3.org/2000/svg">
<path d="M65.4066 127.518C49.4469 127.518 34.8133 124.625 23.4874 115.047C9.37949 103.114 0.406601 85.2881 0.406601 65.4067C0.406601 29.5657 29.5656 0.406738 65.4066 0.406738C101.248 0.406738 130.407 29.5657 130.407 65.4067C130.407 85.2895 121.434 103.114 107.326 115.047C96.0014 124.626 81.3663 127.518 65.4066 127.518Z" fill="#D6D6D6"/>
<path d="M65.4066 88.0989C48.8258 88.0989 35.3362 74.6093 35.3362 58.0299C35.3362 41.4491 48.8258 27.9595 65.4066 27.9595C81.9874 27.9595 95.4756 41.4491 95.4756 58.0299C95.4756 74.6093 81.9874 88.0989 65.4066 88.0989Z" fill="#A5A4A4"/>
<path d="M65.4066 130.407C50.0767 130.407 35.1859 124.957 23.4773 115.06C22.5413 114.268 22.2062 112.974 22.6409 111.828C29.3446 94.1787 46.532 82.3213 65.4066 82.3213C84.2812 82.3213 101.469 94.1787 108.172 111.828C108.607 112.974 108.272 114.268 107.336 115.06C95.6273 124.957 80.7365 130.407 65.4066 130.407Z" fill="#A5A4A4"/>
</svg>
