<svg width="138" height="127" viewBox="0 0 138 127" fill="none" xmlns="http://www.w3.org/2000/svg">
<path d="M17.5568 112.273C17.5568 114.176 17.196 115.795 16.4744 117.131C15.7585 118.466 14.7813 119.486 13.5426 120.19C12.3097 120.889 10.9233 121.239 9.38352 121.239C7.83239 121.239 6.44034 120.886 5.20739 120.182C3.97443 119.477 3 118.457 2.28409 117.122C1.56818 115.787 1.21023 114.17 1.21023 112.273C1.21023 110.369 1.56818 108.75 2.28409 107.415C3 106.08 3.97443 105.062 5.20739 104.364C6.44034 103.659 7.83239 103.307 9.38352 103.307C10.9233 103.307 12.3097 103.659 13.5426 104.364C14.7813 105.062 15.7585 106.08 16.4744 107.415C17.196 108.75 17.5568 110.369 17.5568 112.273ZM13.8153 112.273C13.8153 111.04 13.6307 110 13.2614 109.153C12.8977 108.307 12.3835 107.665 11.7188 107.227C11.054 106.79 10.2756 106.571 9.38352 106.571C8.49148 106.571 7.71307 106.79 7.0483 107.227C6.38352 107.665 5.86648 108.307 5.49716 109.153C5.13352 110 4.9517 111.04 4.9517 112.273C4.9517 113.506 5.13352 114.545 5.49716 115.392C5.86648 116.239 6.38352 116.881 7.0483 117.318C7.71307 117.756 8.49148 117.974 9.38352 117.974C10.2756 117.974 11.054 117.756 11.7188 117.318C12.3835 116.881 12.8977 116.239 13.2614 115.392C13.6307 114.545 13.8153 113.506 13.8153 112.273ZM31.0717 103.545H34.7621V114.881C34.7621 116.153 34.4581 117.267 33.8501 118.222C33.2479 119.176 32.4041 119.92 31.3189 120.455C30.2337 120.983 28.9695 121.247 27.5263 121.247C26.0774 121.247 24.8104 120.983 23.7251 120.455C22.6399 119.92 21.7962 119.176 21.1939 118.222C20.5916 117.267 20.2905 116.153 20.2905 114.881V103.545H23.9808V114.565C23.9808 115.23 24.1257 115.821 24.4155 116.338C24.7109 116.855 25.1257 117.261 25.6598 117.557C26.1939 117.852 26.8161 118 27.5263 118C28.2422 118 28.8643 117.852 29.3928 117.557C29.9268 117.261 30.3388 116.855 30.6286 116.338C30.924 115.821 31.0717 115.23 31.0717 114.565V103.545ZM40.9517 103.545L45.1705 116.807H45.3324L49.5597 103.545H53.6506L47.6335 121H42.8778L36.8523 103.545H40.9517ZM59.4418 103.545V121H55.7514V103.545H59.4418ZM68.6655 121H62.478V103.545H68.7166C70.4723 103.545 71.9837 103.895 73.2507 104.594C74.5178 105.287 75.4922 106.284 76.174 107.585C76.8615 108.886 77.2053 110.443 77.2053 112.256C77.2053 114.074 76.8615 115.636 76.174 116.943C75.4922 118.25 74.5121 119.253 73.2337 119.952C71.9609 120.651 70.4382 121 68.6655 121ZM66.1683 117.838H68.5121C69.603 117.838 70.5206 117.645 71.2649 117.259C72.0149 116.866 72.5774 116.261 72.9524 115.443C73.3331 114.619 73.5234 113.557 73.5234 112.256C73.5234 110.966 73.3331 109.912 72.9524 109.094C72.5774 108.276 72.0178 107.673 71.2734 107.287C70.5291 106.901 69.6115 106.707 68.5206 106.707H66.1683V117.838ZM95.9787 112.273C95.9787 114.176 95.6179 115.795 94.8963 117.131C94.1804 118.466 93.2031 119.486 91.9645 120.19C90.7315 120.889 89.3452 121.239 87.8054 121.239C86.2543 121.239 84.8622 120.886 83.6293 120.182C82.3963 119.477 81.4219 118.457 80.706 117.122C79.9901 115.787 79.6321 114.17 79.6321 112.273C79.6321 110.369 79.9901 108.75 80.706 107.415C81.4219 106.08 82.3963 105.062 83.6293 104.364C84.8622 103.659 86.2543 103.307 87.8054 103.307C89.3452 103.307 90.7315 103.659 91.9645 104.364C93.2031 105.062 94.1804 106.08 94.8963 107.415C95.6179 108.75 95.9787 110.369 95.9787 112.273ZM92.2372 112.273C92.2372 111.04 92.0526 110 91.6832 109.153C91.3196 108.307 90.8054 107.665 90.1406 107.227C89.4759 106.79 88.6974 106.571 87.8054 106.571C86.9134 106.571 86.1349 106.79 85.4702 107.227C84.8054 107.665 84.2884 108.307 83.919 109.153C83.5554 110 83.3736 111.04 83.3736 112.273C83.3736 113.506 83.5554 114.545 83.919 115.392C84.2884 116.239 84.8054 116.881 85.4702 117.318C86.1349 117.756 86.9134 117.974 87.8054 117.974C88.6974 117.974 89.4759 117.756 90.1406 117.318C90.8054 116.881 91.3196 116.239 91.6832 115.392C92.0526 114.545 92.2372 113.506 92.2372 112.273ZM98.7124 121V103.545H105.599C106.917 103.545 108.042 103.781 108.974 104.253C109.911 104.719 110.624 105.381 111.113 106.239C111.607 107.091 111.854 108.094 111.854 109.247C111.854 110.406 111.604 111.403 111.104 112.239C110.604 113.068 109.88 113.705 108.931 114.148C107.988 114.591 106.846 114.812 105.505 114.812H100.894V111.847H104.908C105.613 111.847 106.198 111.75 106.664 111.557C107.13 111.364 107.477 111.074 107.704 110.688C107.937 110.301 108.053 109.821 108.053 109.247C108.053 108.668 107.937 108.179 107.704 107.781C107.477 107.384 107.127 107.082 106.656 106.878C106.19 106.668 105.602 106.562 104.891 106.562H102.403V121H98.7124ZM108.138 113.057L112.477 121H108.403L104.158 113.057H108.138ZM118.153 103.545V121H114.462V103.545H118.153ZM124.197 121H120.243L126.268 103.545H131.024L137.041 121H133.087L128.714 107.534H128.578L124.197 121ZM123.95 114.139H133.291V117.02H123.95V114.139Z" fill="white"/>
<path d="M114.246 64.4493C114.246 75.6391 105.156 84.7435 93.9662 84.7435H89.3401C88.3899 87.7935 85.5438 90 82.1832 90H69.0837C64.9443 90 61.5744 86.6301 61.5744 82.4769V82.2404C61.5744 78.101 64.9443 74.7312 69.0837 74.7312H82.1832C85.5392 74.7312 88.3992 76.9515 89.3495 80.0016H93.9663C99.1857 80.0016 103.816 77.415 106.616 73.4518C105.74 73.7022 104.813 73.8319 103.863 73.8319H103.496C97.7764 73.8319 93.1271 69.1688 93.1271 63.4487V45.8162C93.1271 40.1101 97.781 35.4562 103.496 35.4562H103.863C105.559 35.4562 107.163 35.8733 108.572 36.5965C104.646 18.4169 88.4454 4.76091 69.116 4.76091C49.7866 4.76091 33.5864 18.4217 29.6597 36.5965C31.0735 35.8733 32.6728 35.4562 34.3693 35.4562H34.7355C40.4556 35.4562 45.1049 40.1101 45.1049 45.8162V63.4487C45.1049 69.1688 40.4509 73.8319 34.7355 73.8319H34.3693C28.6493 73.8319 24 69.1688 24 63.4487V45.8162C24 45.6725 24 45.5335 24.0139 45.3898C24.0139 45.3527 24 45.3202 24.0139 45.2832C24 45.2461 24 45.1997 24 45.1534C24 20.2574 44.2467 0 69.1166 0C93.99 0 114.233 20.2431 114.233 45.1296C114.233 45.176 114.233 45.2223 114.219 45.2733V45.366C114.233 45.5097 114.233 45.6627 114.233 45.8064V63.4389C114.233 63.6521 114.219 63.8421 114.21 64.0554C114.233 64.1852 114.247 64.315 114.247 64.4447L114.246 64.4493Z" fill="white"/>
<path d="M40.6261 31.0558C40.2228 31.0558 39.8195 30.9492 39.4394 30.7359C38.2991 30.0823 37.9191 28.6223 38.5726 27.4958C44.8628 16.6119 56.5765 9.86328 69.1147 9.86328C81.6577 9.86328 93.3581 16.617 99.6568 27.4958C100.31 28.6361 99.9303 30.0823 98.79 30.7359C97.6497 31.3895 96.2035 31.0094 95.5498 29.8691C90.1033 20.4593 79.9703 14.6099 69.11 14.6099C58.254 14.6099 48.1169 20.4598 42.6702 29.8691C42.2298 30.6293 41.4371 31.0558 40.6167 31.0558H40.6261Z" fill="white"/>
</svg>
