<svg width="299" height="31" viewBox="0 0 299 31" fill="none" xmlns="http://www.w3.org/2000/svg">
<path d="M39.517 24V6.54545H46.4034C47.7273 6.54545 48.8551 6.7983 49.7869 7.30398C50.7188 7.80398 51.429 8.5 51.9176 9.39204C52.4119 10.2784 52.6591 11.3011 52.6591 12.4602C52.6591 13.6193 52.4091 14.642 51.9091 15.5284C51.4091 16.4148 50.6847 17.1051 49.7358 17.5994C48.7926 18.0937 47.6506 18.3409 46.3097 18.3409H41.9205V15.3835H45.7131C46.4233 15.3835 47.0085 15.2614 47.4688 15.017C47.9347 14.767 48.2813 14.4233 48.5085 13.9858C48.7415 13.5426 48.858 13.0341 48.858 12.4602C48.858 11.8807 48.7415 11.375 48.5085 10.9432C48.2813 10.5057 47.9347 10.1676 47.4688 9.92898C47.0028 9.68466 46.4119 9.5625 45.696 9.5625H43.2074V24H39.517ZM58.7464 6.54545V24H55.0561V6.54545H58.7464ZM65.2429 6.54545L68.7628 12.4943H68.8991L72.4361 6.54545H76.6037L71.277 15.2727L76.723 24H72.4787L68.8991 18.0426H68.7628L65.1832 24H60.956L66.419 15.2727L61.0582 6.54545H65.2429Z" fill="#3395EE"/>
<path d="M11.1067 2.3198L2.31986 11.1066C-0.106538 13.533 -0.106538 17.467 2.31986 19.8934L11.1067 28.6802C13.5332 31.1066 17.467 31.1066 19.8935 28.6802L28.6806 19.8934C31.1068 17.4669 31.1068 13.5327 28.6806 11.1066L19.8935 2.3198C17.4671 -0.106599 13.5331 -0.106599 11.1067 2.3198ZM17.6968 4.51651L26.4839 13.3033C27.697 14.5165 27.697 16.4837 26.4838 17.6969L17.697 26.4837C16.4838 27.6969 14.517 27.6969 13.3035 26.4837L4.51667 17.6969C3.30342 16.4836 3.30342 14.5165 4.51667 13.3033L13.3035 4.51651C14.5167 3.30327 16.4835 3.30327 17.697 4.51651H17.6968Z" fill="#3395EE"/>
<path d="M0.74359 15.6562C0.74359 20.8757 7.83147 25.709 11.8134 21.5534L12.673 20.6199C13.9762 19.203 14.6228 18.7606 15.4962 18.7628C16.2674 18.7646 16.8738 19.117 17.9063 20.1754L19.0269 21.3785C22.9264 25.8729 30.2567 20.9641 30.2567 15.6563C30.2567 10.4368 23.1691 5.60345 19.1868 9.7591L18.2628 10.7594L17.809 11.2303C16.8138 12.2297 16.2366 12.5497 15.5001 12.5497C14.7067 12.5497 14.0417 12.1319 12.9079 10.9426L11.9745 9.93523C8.07352 5.43998 0.74353 10.3484 0.74353 15.6563L0.74359 15.6562ZM27.1502 15.6562C27.1502 18.4092 23.2388 21.101 21.4717 19.442L21.0872 19.0318L20.6628 18.5695C18.7764 16.5197 17.5329 15.661 15.5039 15.6562C13.5932 15.6514 12.3839 16.4061 10.6898 18.192L9.70353 19.2575C7.97605 21.2463 3.85046 18.4836 3.85046 15.6563C3.85046 12.9033 7.7619 10.2118 9.52892 11.8705L10.3742 12.782C12.2195 14.7768 13.5078 15.6563 15.5004 15.6563C17.4677 15.6563 18.6405 14.8911 20.4858 12.9305L21.3332 12.0146C23.0246 10.0663 27.1503 12.8289 27.1503 15.6563L27.1502 15.6562Z" fill="#3395EE"/>
<path d="M286.369 1.00035C286.777 1.00035 287.141 1.18142 287.414 1.50095L298.548 15.1338C298.956 15.6344 298.956 16.3604 298.548 16.861L287.414 30.4938C286.914 31.0849 286.097 31.1754 285.506 30.6748C284.915 30.2204 284.825 29.3577 285.325 28.7666L295.775 15.9963L285.323 3.22597C284.869 2.63485 284.915 1.77217 285.504 1.31774C285.778 1.09053 286.097 1.00035 286.369 1.00035Z" fill="#3395EE"/>
</svg>
