<svg width="56" height="21" viewBox="0 0 56 21" fill="none" xmlns="http://www.w3.org/2000/svg">
<path d="M31.9482 16V5.09091H36.2521C37.0795 5.09091 37.7844 5.24893 38.3668 5.56499C38.9492 5.87749 39.3931 6.3125 39.6985 6.87003C40.0075 7.42401 40.1619 8.06321 40.1619 8.78764C40.1619 9.51207 40.0057 10.1513 39.6932 10.7053C39.3807 11.2592 38.9279 11.6907 38.3349 11.9996C37.7454 12.3086 37.0316 12.4631 36.1935 12.4631H33.4503V10.6147H35.8207C36.2646 10.6147 36.6303 10.5384 36.918 10.3857C37.2092 10.2294 37.4258 10.0146 37.5678 9.74112C37.7134 9.46413 37.7862 9.14631 37.7862 8.78764C37.7862 8.42543 37.7134 8.10937 37.5678 7.83949C37.4258 7.56605 37.2092 7.35476 36.918 7.20561C36.6268 7.05291 36.2575 6.97656 35.81 6.97656H34.2546V16H31.9482ZM43.9665 5.09091V16H41.6601V5.09091H43.9665ZM48.0268 5.09091L50.2267 8.80895H50.312L52.5226 5.09091H55.1273L51.7981 10.5455L55.2019 16H52.5492L50.312 12.2766H50.2267L47.9895 16H45.3475L48.7619 10.5455L45.4114 5.09091H48.0268Z" fill="#3395EE"/>
<path d="M7.57113 1.7132L1.71326 7.57107C0.0956614 9.18866 0.0956614 11.8113 1.71326 13.4289L7.57113 19.2868C9.1888 20.9044 11.8114 20.9044 13.429 19.2868L19.2871 13.4289C20.9046 11.8113 20.9046 9.18848 19.2871 7.57107L13.429 1.7132C11.8114 0.0956003 9.18874 0.0956003 7.57113 1.7132ZM11.9646 3.17768L17.8226 9.03554C18.6313 9.84431 18.6313 11.1558 17.8226 11.9646L11.9647 17.8224C11.1559 18.6313 9.84468 18.6313 9.03567 17.8224L3.1778 11.9646C2.36897 11.1557 2.36897 9.84435 3.1778 9.03554L9.03567 3.17768C9.8445 2.36885 11.1557 2.36885 11.9647 3.17768H11.9646Z" fill="#3395EE"/>
<path d="M0.662394 10.6041C0.662394 14.0838 5.38765 17.306 8.04228 14.5356L8.61533 13.9132C9.48416 12.9687 9.91518 12.6738 10.4974 12.6752C11.0116 12.6764 11.4159 12.9114 12.1042 13.6169L12.8513 14.419C15.4509 17.4153 20.3378 14.1427 20.3378 10.6042C20.3378 7.12454 15.6127 3.9023 12.9579 6.67273L12.3419 7.33962L12.0394 7.65353C11.3758 8.31977 10.9911 8.53314 10.5 8.53314C9.97114 8.53314 9.52778 8.25461 8.77191 7.46172L8.14964 6.79016C5.54901 3.79332 0.662354 7.06562 0.662354 10.6042L0.662394 10.6041ZM18.2668 10.6041C18.2668 12.4395 15.6592 14.234 14.4812 13.128L14.2248 12.8545L13.9419 12.5463C12.6843 11.1798 11.8552 10.6073 10.5026 10.6041C9.22879 10.6009 8.4226 11.104 7.29319 12.2947L6.63568 13.005C5.48403 14.3309 2.73364 12.4891 2.73364 10.6042C2.73364 8.76884 5.34127 6.97454 6.51928 8.08035L7.08281 8.68802C8.31298 10.0179 9.17183 10.6042 10.5002 10.6042C11.8118 10.6042 12.5937 10.0941 13.8239 8.78702L14.3888 8.17639C15.5164 6.87756 18.2669 8.7193 18.2669 10.6042L18.2668 10.6041Z" fill="#3395EE"/>
</svg>
