<svg width="78" height="78" viewBox="0 0 78 78" fill="none" xmlns="http://www.w3.org/2000/svg">
<path d="M69.625 74H74M56.5 74H47.75V60.875M60.875 60.875H74V47.75H69.625M47.75 47.75H56.5M4 60.8737C4 56.7971 4 54.7583 4.66605 53.1505C5.55413 51.0063 7.2564 49.304 9.40041 48.4159C11.0084 47.75 13.0469 47.75 17.1239 47.75C21.2009 47.75 23.2416 47.75 24.8496 48.4159C26.9936 49.304 28.6954 51.0063 29.5835 53.1505C30.2496 54.7583 30.2496 56.7979 30.2496 60.875C30.2496 64.9521 30.2496 66.9904 29.5835 68.5986C28.6954 70.7424 26.9936 72.4456 24.8496 73.3337C23.2416 73.9996 21.2008 73.9996 17.1239 73.9996C13.0469 73.9996 11.0084 73.9996 9.40041 73.3337C7.2564 72.4456 5.55413 70.7437 4.66605 68.5995C4 66.9917 4 64.9508 4 60.8737ZM47.75 17.1239C47.75 13.0469 47.75 11.0084 48.4159 9.40041C49.304 7.2564 51.0063 5.55413 53.1505 4.66605C54.7583 4 56.7971 4 60.8737 4C64.9508 4 66.9917 4 68.5995 4.66605C70.7437 5.55413 72.4456 7.2564 73.3337 9.40041C73.9996 11.0084 73.9996 13.048 73.9996 17.125C73.9996 21.202 73.9996 23.2405 73.3337 24.8485C72.4456 26.9925 70.7437 28.6954 68.5995 29.5835C66.9917 30.2496 64.9508 30.2496 60.8737 30.2496C56.7971 30.2496 54.7583 30.2496 53.1505 29.5835C51.0063 28.6954 49.304 26.9936 48.4159 24.8496C47.75 23.2416 47.75 21.2009 47.75 17.1239ZM4 17.1239C4 13.0469 4 11.0084 4.66605 9.40041C5.55413 7.2564 7.2564 5.55413 9.40041 4.66605C11.0084 4 13.0469 4 17.1239 4C21.2009 4 23.2416 4 24.8496 4.66605C26.9936 5.55413 28.6954 7.2564 29.5835 9.40041C30.2496 11.0084 30.2496 13.048 30.2496 17.125C30.2496 21.202 30.2496 23.2405 29.5835 24.8485C28.6954 26.9925 26.9936 28.6954 24.8496 29.5835C23.2416 30.2496 21.2008 30.2496 17.1239 30.2496C13.0469 30.2496 11.0084 30.2496 9.40041 29.5835C7.2564 28.6954 5.55413 26.9936 4.66605 24.8496C4 23.2416 4 21.2009 4 17.1239Z" stroke="white" stroke-width="8" stroke-linecap="round" stroke-linejoin="round"/>
</svg>
