<svg width="800" height="800" viewBox="0 0 800 800" fill="none" xmlns="http://www.w3.org/2000/svg">
<path d="M66.6667 563.333C66.6667 519.687 66.6667 497.863 76.4907 481.833C81.9877 472.863 89.5297 465.32 98.5 459.823C114.531 450 136.354 450 180 450H216.667C279.521 450 310.948 450 330.474 469.527C350 489.053 350 520.48 350 583.333V620C350 663.647 350 685.47 340.177 701.5C334.68 710.47 327.137 718.013 318.167 723.51C302.135 733.333 280.312 733.333 236.667 733.333C171.198 733.333 138.464 733.333 114.417 718.597C100.961 710.353 89.6484 699.04 81.4027 685.583" stroke="#EE3338" stroke-width="50" stroke-linecap="round"/>
<path d="M733.333 236.667C733.333 280.312 733.333 302.135 723.51 318.167C718.013 327.137 710.47 334.68 701.5 340.177C685.47 350 663.647 350 620 350H583.333C520.48 350 489.053 350 469.527 330.474C450 310.948 450 279.521 450 216.667V180C450 136.354 450 114.531 459.823 98.5001C465.32 89.5297 472.863 81.9877 481.833 76.4907C497.863 66.6667 519.687 66.6667 563.333 66.6667C628.803 66.6667 661.537 66.6667 685.583 81.4027C699.04 89.6484 710.353 100.961 718.597 114.417" stroke="#EE3338" stroke-width="50" stroke-linecap="round"/>
<path d="M550 208.333C550 191.153 550 182.563 554.303 176.498C555.823 174.357 557.69 172.489 559.83 170.97C565.897 166.667 574.487 166.667 591.667 166.667C608.847 166.667 617.437 166.667 623.503 170.97C625.643 172.489 627.51 174.357 629.03 176.498C633.333 182.563 633.333 191.153 633.333 208.333C633.333 225.514 633.333 234.104 629.03 240.169C627.51 242.309 625.643 244.178 623.503 245.696C617.437 250 608.847 250 591.667 250C574.487 250 565.897 250 559.83 245.696C557.69 244.178 555.823 242.309 554.303 240.169C550 234.104 550 225.514 550 208.333Z" fill="#EE3338"/>
<path d="M425 733.333C425 747.14 436.193 758.333 450 758.333C463.807 758.333 475 747.14 475 733.333H425ZM633.333 425H566.667V475H633.333V425ZM425 633.333V733.333H475V633.333H425ZM566.667 425C543.78 425 524.733 424.97 509.367 426.533C493.583 428.137 478.94 431.63 465.74 440.45L493.517 482.023C497.133 479.607 502.6 477.48 514.427 476.277C526.673 475.03 542.74 475 566.667 475V425ZM475 566.667C475 542.74 475.03 526.673 476.277 514.427C477.48 502.6 479.607 497.133 482.023 493.517L440.45 465.74C431.63 478.94 428.137 493.583 426.533 509.367C424.97 524.733 425 543.78 425 566.667H475ZM465.74 440.45C455.73 447.137 447.137 455.73 440.45 465.74L482.023 493.517C485.063 488.967 488.967 485.063 493.517 482.023L465.74 440.45Z" fill="#EE3338"/>
<path d="M758.333 450C758.333 436.193 747.14 425 733.333 425C719.527 425 708.333 436.193 708.333 450H758.333ZM566.667 758.333H633.333V708.333H566.667V758.333ZM758.333 566.667V450H708.333V566.667H758.333ZM633.333 758.333C648.523 758.333 661.167 758.347 671.513 757.64C682.083 756.92 692.067 755.367 701.747 751.357L682.613 705.16C680.04 706.227 676.133 707.21 668.11 707.757C659.86 708.32 649.207 708.333 633.333 708.333V758.333ZM708.333 633.333C708.333 649.207 708.32 659.86 707.757 668.11C707.21 676.133 706.227 680.04 705.16 682.613L751.357 701.747C755.367 692.067 756.92 682.083 757.64 671.513C758.347 661.167 758.333 648.523 758.333 633.333H708.333ZM701.747 751.357C724.207 742.053 742.053 724.207 751.357 701.747L705.16 682.613C700.933 692.82 692.82 700.93 682.613 705.16L701.747 751.357Z" fill="#EE3338"/>
<path d="M66.6667 236.667C66.6667 171.198 66.6667 138.464 81.4027 114.417C89.6484 100.961 100.961 89.6484 114.417 81.4027C138.464 66.6667 171.198 66.6667 236.667 66.6667C280.312 66.6667 302.135 66.6667 318.167 76.4907C327.137 81.9877 334.68 89.5297 340.177 98.5001C350 114.531 350 136.354 350 180V216.667C350 279.521 350 310.948 330.474 330.474C310.948 350 279.521 350 216.667 350H180C136.354 350 114.531 350 98.5 340.177C89.5297 334.68 81.9877 327.137 76.4907 318.167C66.6667 302.135 66.6667 280.312 66.6667 236.667Z" stroke="#EE3338" stroke-width="50"/>
<path d="M166.667 208.333C166.667 191.153 166.667 182.563 170.97 176.498C172.489 174.357 174.357 172.489 176.498 170.97C182.563 166.667 191.153 166.667 208.333 166.667C225.514 166.667 234.104 166.667 240.169 170.97C242.309 172.489 244.178 174.357 245.696 176.498C250 182.563 250 191.153 250 208.333C250 225.514 250 234.104 245.696 240.169C244.178 242.309 242.309 244.178 240.169 245.696C234.104 250 225.514 250 208.333 250C191.153 250 182.563 250 176.498 245.696C174.357 244.178 172.489 242.309 170.97 240.169C166.667 234.104 166.667 225.514 166.667 208.333Z" fill="#EE3338"/>
<path d="M166.667 591.667C166.667 574.487 166.667 565.897 170.97 559.83C172.489 557.69 174.357 555.823 176.498 554.303C182.563 550 191.153 550 208.333 550C225.514 550 234.104 550 240.169 554.303C242.309 555.823 244.178 557.69 245.696 559.83C250 565.897 250 574.487 250 591.667C250 608.847 250 617.437 245.696 623.503C244.178 625.643 242.309 627.51 240.169 629.03C234.104 633.333 225.514 633.333 208.333 633.333C191.153 633.333 182.563 633.333 176.498 629.03C174.357 627.51 172.489 625.643 170.97 623.503C166.667 617.437 166.667 608.847 166.667 591.667Z" fill="#EE3338"/>
<path d="M533.333 591.667C533.333 568.26 533.333 556.557 538.95 548.147C541.383 544.507 544.507 541.383 548.147 538.95C556.557 533.333 568.26 533.333 591.667 533.333C615.073 533.333 626.777 533.333 635.187 538.95C638.827 541.383 641.95 544.507 644.383 548.147C650 556.557 650 568.26 650 591.667C650 615.073 650 626.777 644.383 635.187C641.95 638.827 638.827 641.95 635.187 644.383C626.777 650 615.073 650 591.667 650C568.26 650 556.557 650 548.147 644.383C544.507 641.95 541.383 638.827 538.95 635.187C533.333 626.777 533.333 615.073 533.333 591.667Z" fill="#EE3338"/>
</svg>
