<svg width="370" height="161" viewBox="0 0 370 161" fill="none" xmlns="http://www.w3.org/2000/svg">
<path d="M0 24.35C0 16.0907 0 11.9611 1.58183 8.79532C3.03373 5.88962 5.38962 3.53373 8.29532 2.08183C11.4611 0.5 15.5907 0.5 23.85 0.5H346.15C354.409 0.5 358.539 0.5 361.705 2.08183C364.61 3.53373 366.966 5.88962 368.418 8.79532C370 11.9611 370 16.0907 370 24.35V136.65C370 144.909 370 149.039 368.418 152.205C366.966 155.11 364.61 157.466 361.705 158.918C358.539 160.5 354.409 160.5 346.15 160.5H23.85C15.5907 160.5 11.4611 160.5 8.29532 158.918C5.38962 157.466 3.03373 155.11 1.58183 152.205C0 149.039 0 144.909 0 136.65V24.35Z" fill="#968D89"/>
<path d="M0 123.5H370V136.65C370 144.909 370 149.039 368.418 152.205C366.966 155.11 364.61 157.466 361.705 158.918C358.539 160.5 354.409 160.5 346.15 160.5H23.85C15.5907 160.5 11.4611 160.5 8.29532 158.918C5.38962 157.466 3.03373 155.11 1.58183 152.205C0 149.039 0 144.909 0 136.65V123.5Z" fill="#696462"/>
<path d="M132.552 138.117C132.477 137.858 132.373 137.629 132.238 137.43C132.103 137.228 131.938 137.057 131.742 136.919C131.551 136.777 131.33 136.668 131.082 136.594C130.837 136.519 130.565 136.482 130.267 136.482C129.709 136.482 129.219 136.62 128.797 136.897C128.378 137.174 128.051 137.577 127.816 138.107C127.582 138.632 127.465 139.275 127.465 140.035C127.465 140.795 127.58 141.441 127.811 141.974C128.042 142.506 128.369 142.913 128.791 143.194C129.214 143.471 129.713 143.609 130.288 143.609C130.81 143.609 131.256 143.517 131.625 143.332C131.998 143.144 132.282 142.879 132.477 142.538C132.676 142.197 132.776 141.794 132.776 141.329L133.244 141.398H130.432V139.662H134.997V141.036C134.997 141.995 134.794 142.819 134.39 143.508C133.985 144.193 133.427 144.722 132.717 145.095C132.007 145.464 131.194 145.649 130.277 145.649C129.255 145.649 128.356 145.424 127.582 144.973C126.808 144.518 126.204 143.874 125.771 143.039C125.341 142.201 125.127 141.207 125.127 140.056C125.127 139.172 125.254 138.384 125.51 137.691C125.769 136.995 126.131 136.406 126.597 135.923C127.062 135.44 127.603 135.072 128.221 134.82C128.839 134.568 129.509 134.442 130.229 134.442C130.847 134.442 131.423 134.532 131.955 134.713C132.488 134.891 132.96 135.143 133.372 135.47C133.788 135.797 134.127 136.185 134.39 136.636C134.652 137.084 134.821 137.577 134.896 138.117H132.552ZM140.415 145.66C139.574 145.66 138.849 145.489 138.242 145.148C137.638 144.804 137.173 144.317 136.847 143.689C136.52 143.057 136.357 142.309 136.357 141.446C136.357 140.605 136.52 139.866 136.847 139.23C137.173 138.595 137.633 138.099 138.226 137.744C138.823 137.389 139.522 137.212 140.325 137.212C140.865 137.212 141.367 137.299 141.832 137.473C142.301 137.643 142.71 137.901 143.058 138.245C143.409 138.589 143.683 139.023 143.878 139.545C144.073 140.063 144.171 140.67 144.171 141.366V141.99H137.262V140.583H142.035C142.035 140.257 141.964 139.967 141.822 139.715C141.68 139.463 141.483 139.266 141.23 139.124C140.982 138.978 140.692 138.906 140.362 138.906C140.018 138.906 139.712 138.985 139.446 139.145C139.183 139.301 138.977 139.513 138.828 139.779C138.679 140.042 138.603 140.335 138.599 140.658V141.995C138.599 142.4 138.674 142.75 138.823 143.044C138.975 143.339 139.19 143.566 139.467 143.726C139.744 143.886 140.073 143.966 140.453 143.966C140.705 143.966 140.936 143.93 141.145 143.859C141.355 143.788 141.534 143.682 141.683 143.54C141.832 143.398 141.946 143.224 142.024 143.018L144.123 143.156C144.016 143.661 143.798 144.101 143.468 144.477C143.141 144.85 142.718 145.141 142.2 145.351C141.685 145.557 141.09 145.66 140.415 145.66ZM145.652 145.5V137.318H147.852V138.746H147.937C148.086 138.238 148.336 137.854 148.688 137.595C149.039 137.332 149.444 137.201 149.902 137.201C150.016 137.201 150.138 137.208 150.27 137.222C150.401 137.237 150.517 137.256 150.616 137.281V139.294C150.51 139.262 150.362 139.234 150.174 139.209C149.986 139.184 149.814 139.172 149.657 139.172C149.324 139.172 149.025 139.245 148.762 139.39C148.503 139.532 148.297 139.731 148.145 139.987C147.995 140.243 147.921 140.537 147.921 140.871V145.5H145.652ZM153.888 145.654C153.366 145.654 152.901 145.564 152.492 145.383C152.084 145.198 151.761 144.926 151.523 144.568C151.289 144.206 151.171 143.755 151.171 143.215C151.171 142.76 151.255 142.379 151.422 142.07C151.589 141.761 151.816 141.512 152.104 141.324C152.391 141.136 152.718 140.994 153.084 140.898C153.453 140.802 153.84 140.734 154.245 140.695C154.721 140.646 155.104 140.599 155.396 140.557C155.687 140.511 155.898 140.443 156.029 140.354C156.161 140.266 156.226 140.134 156.226 139.96V139.928C156.226 139.591 156.12 139.33 155.907 139.145C155.697 138.961 155.399 138.868 155.012 138.868C154.604 138.868 154.279 138.959 154.037 139.14C153.796 139.317 153.636 139.541 153.558 139.811L151.459 139.641C151.566 139.143 151.775 138.714 152.088 138.352C152.4 137.986 152.803 137.705 153.297 137.51C153.794 137.311 154.369 137.212 155.023 137.212C155.477 137.212 155.912 137.265 156.328 137.371C156.747 137.478 157.118 137.643 157.441 137.867C157.768 138.091 158.025 138.378 158.213 138.73C158.402 139.078 158.496 139.495 158.496 139.982V145.5H156.344V144.365H156.28C156.148 144.621 155.973 144.847 155.752 145.042C155.532 145.234 155.268 145.385 154.959 145.495C154.65 145.601 154.293 145.654 153.888 145.654ZM154.538 144.088C154.872 144.088 155.166 144.023 155.422 143.891C155.678 143.756 155.878 143.575 156.024 143.348C156.17 143.121 156.242 142.863 156.242 142.576V141.707C156.171 141.754 156.074 141.796 155.949 141.835C155.829 141.871 155.692 141.904 155.539 141.936C155.387 141.965 155.234 141.991 155.081 142.016C154.929 142.038 154.79 142.057 154.666 142.075C154.399 142.114 154.167 142.176 153.968 142.261C153.769 142.347 153.615 142.462 153.505 142.608C153.394 142.75 153.339 142.927 153.339 143.14C153.339 143.449 153.451 143.685 153.675 143.849C153.902 144.009 154.19 144.088 154.538 144.088ZM160.256 145.5V137.318H162.456V138.746H162.541C162.69 138.238 162.941 137.854 163.292 137.595C163.644 137.332 164.049 137.201 164.507 137.201C164.62 137.201 164.743 137.208 164.874 137.222C165.006 137.237 165.121 137.256 165.221 137.281V139.294C165.114 139.262 164.967 139.234 164.778 139.209C164.59 139.184 164.418 139.172 164.262 139.172C163.928 139.172 163.63 139.245 163.367 139.39C163.108 139.532 162.902 139.731 162.749 139.987C162.6 140.243 162.525 140.537 162.525 140.871V145.5H160.256ZM174.026 141.707H175.986L176.971 142.975L177.941 144.104L179.768 146.395H177.616L176.359 144.85L175.714 143.934L174.026 141.707ZM179.933 140.045C179.933 141.235 179.707 142.247 179.256 143.082C178.809 143.916 178.198 144.554 177.424 144.994C176.653 145.431 175.787 145.649 174.825 145.649C173.855 145.649 172.985 145.429 172.215 144.989C171.444 144.548 170.835 143.911 170.388 143.076C169.94 142.242 169.716 141.232 169.716 140.045C169.716 138.856 169.94 137.844 170.388 137.009C170.835 136.175 171.444 135.539 172.215 135.102C172.985 134.662 173.855 134.442 174.825 134.442C175.787 134.442 176.653 134.662 177.424 135.102C178.198 135.539 178.809 136.175 179.256 137.009C179.707 137.844 179.933 138.856 179.933 140.045ZM177.595 140.045C177.595 139.275 177.479 138.625 177.248 138.096C177.021 137.567 176.7 137.165 176.284 136.892C175.869 136.619 175.382 136.482 174.825 136.482C174.267 136.482 173.781 136.619 173.365 136.892C172.95 137.165 172.627 137.567 172.396 138.096C172.168 138.625 172.055 139.275 172.055 140.045C172.055 140.816 172.168 141.466 172.396 141.995C172.627 142.524 172.95 142.925 173.365 143.199C173.781 143.472 174.267 143.609 174.825 143.609C175.382 143.609 175.869 143.472 176.284 143.199C176.7 142.925 177.021 142.524 177.248 141.995C177.479 141.466 177.595 140.816 177.595 140.045ZM181.642 145.5V134.591H185.945C186.769 134.591 187.472 134.738 188.055 135.033C188.641 135.324 189.086 135.738 189.392 136.274C189.701 136.807 189.855 137.434 189.855 138.154C189.855 138.879 189.699 139.502 189.387 140.024C189.074 140.543 188.621 140.94 188.028 141.217C187.439 141.494 186.725 141.633 185.887 141.633H183.005V139.779H185.514C185.954 139.779 186.32 139.719 186.611 139.598C186.903 139.477 187.119 139.296 187.261 139.055C187.407 138.813 187.48 138.513 187.48 138.154C187.48 137.792 187.407 137.487 187.261 137.238C187.119 136.99 186.901 136.801 186.606 136.674C186.315 136.542 185.947 136.477 185.503 136.477H183.948V145.5H181.642ZM187.533 140.536L190.244 145.5H187.698L185.045 140.536H187.533ZM201.111 138.41H198.778C198.735 138.108 198.648 137.84 198.517 137.606C198.385 137.368 198.216 137.165 198.01 136.999C197.805 136.832 197.567 136.704 197.297 136.615C197.03 136.526 196.741 136.482 196.428 136.482C195.864 136.482 195.372 136.622 194.953 136.903C194.534 137.18 194.209 137.585 193.978 138.117C193.747 138.646 193.632 139.289 193.632 140.045C193.632 140.823 193.747 141.477 193.978 142.006C194.213 142.535 194.539 142.934 194.958 143.204C195.377 143.474 195.862 143.609 196.412 143.609C196.721 143.609 197.007 143.568 197.27 143.487C197.536 143.405 197.773 143.286 197.979 143.13C198.184 142.97 198.355 142.776 198.49 142.549C198.628 142.322 198.724 142.062 198.778 141.771L201.111 141.782C201.05 142.283 200.899 142.766 200.658 143.231C200.42 143.692 200.099 144.106 199.694 144.472C199.292 144.834 198.813 145.122 198.256 145.335C197.702 145.544 197.075 145.649 196.375 145.649C195.402 145.649 194.532 145.429 193.765 144.989C193.002 144.548 192.398 143.911 191.954 143.076C191.514 142.242 191.294 141.232 191.294 140.045C191.294 138.856 191.517 137.844 191.965 137.009C192.412 136.175 193.019 135.539 193.786 135.102C194.553 134.662 195.416 134.442 196.375 134.442C197.007 134.442 197.593 134.531 198.133 134.708C198.676 134.886 199.157 135.145 199.577 135.486C199.996 135.823 200.336 136.237 200.599 136.727C200.866 137.217 201.036 137.778 201.111 138.41ZM212.789 140.045C212.789 141.235 212.564 142.247 212.113 143.082C211.665 143.916 211.055 144.554 210.281 144.994C209.51 145.431 208.643 145.649 207.681 145.649C206.712 145.649 205.842 145.429 205.071 144.989C204.3 144.548 203.691 143.911 203.244 143.076C202.797 142.242 202.573 141.232 202.573 140.045C202.573 138.856 202.797 137.844 203.244 137.009C203.691 136.175 204.3 135.539 205.071 135.102C205.842 134.662 206.712 134.442 207.681 134.442C208.643 134.442 209.51 134.662 210.281 135.102C211.055 135.539 211.665 136.175 212.113 137.009C212.564 137.844 212.789 138.856 212.789 140.045ZM210.451 140.045C210.451 139.275 210.336 138.625 210.105 138.096C209.877 137.567 209.556 137.165 209.141 136.892C208.725 136.619 208.239 136.482 207.681 136.482C207.124 136.482 206.637 136.619 206.222 136.892C205.806 137.165 205.483 137.567 205.252 138.096C205.025 138.625 204.911 139.275 204.911 140.045C204.911 140.816 205.025 141.466 205.252 141.995C205.483 142.524 205.806 142.925 206.222 143.199C206.637 143.472 207.124 143.609 207.681 143.609C208.239 143.609 208.725 143.472 209.141 143.199C209.556 142.925 209.877 142.524 210.105 141.995C210.336 141.466 210.451 140.816 210.451 140.045ZM218.365 145.5H214.498V134.591H218.397C219.494 134.591 220.439 134.809 221.231 135.246C222.023 135.679 222.632 136.303 223.058 137.116C223.488 137.929 223.703 138.902 223.703 140.035C223.703 141.171 223.488 142.148 223.058 142.964C222.632 143.781 222.019 144.408 221.22 144.845C220.425 145.282 219.473 145.5 218.365 145.5ZM216.804 143.524H218.269C218.951 143.524 219.525 143.403 219.99 143.162C220.459 142.917 220.81 142.538 221.044 142.027C221.282 141.512 221.401 140.848 221.401 140.035C221.401 139.229 221.282 138.57 221.044 138.059C220.81 137.547 220.46 137.171 219.995 136.929C219.53 136.688 218.956 136.567 218.275 136.567H216.804V143.524ZM225.411 145.5V134.591H232.762V136.493H227.718V139.092H232.384V140.994H227.718V143.598H232.783V145.5H225.411Z" fill="black"/>
<path d="M216.222 44.7283C216.179 44.2987 215.997 43.9648 215.673 43.7269C215.35 43.489 214.912 43.37 214.358 43.37C213.981 43.37 213.663 43.4233 213.404 43.5298C213.145 43.6328 212.946 43.7766 212.808 43.9613C212.673 44.146 212.605 44.3555 212.605 44.5898C212.598 44.7852 212.639 44.9556 212.728 45.1012C212.82 45.2468 212.946 45.3729 213.106 45.4794C213.266 45.5824 213.45 45.6729 213.66 45.7511C213.869 45.8256 214.093 45.8896 214.331 45.9428L215.311 46.1772C215.787 46.2837 216.224 46.4258 216.622 46.6033C217.019 46.7809 217.364 46.9993 217.655 47.2585C217.946 47.5178 218.172 47.8232 218.331 48.1747C218.495 48.5263 218.578 48.9293 218.582 49.3839C218.578 50.0515 218.408 50.6303 218.07 51.1204C217.737 51.6069 217.254 51.9851 216.622 52.255C215.993 52.5213 215.235 52.6545 214.347 52.6545C213.466 52.6545 212.699 52.5195 212.046 52.2496C211.396 51.9798 210.888 51.5803 210.523 51.0511C210.16 50.5185 209.97 49.8597 209.953 49.0749H212.184C212.209 49.4407 212.314 49.7461 212.499 49.9911C212.687 50.2326 212.937 50.4155 213.25 50.5398C213.566 50.6605 213.923 50.7209 214.32 50.7209C214.711 50.7209 215.05 50.6641 215.338 50.5504C215.629 50.4368 215.855 50.2788 216.014 50.0763C216.174 49.8739 216.254 49.6413 216.254 49.3786C216.254 49.1335 216.181 48.9276 216.036 48.7607C215.894 48.5937 215.684 48.4517 215.407 48.3345C215.134 48.2173 214.798 48.1108 214.4 48.0149L213.212 47.7166C212.293 47.4929 211.567 47.1431 211.034 46.6673C210.501 46.1914 210.237 45.5504 210.24 44.7443C210.237 44.0838 210.412 43.5067 210.768 43.0131C211.126 42.5195 211.618 42.1342 212.243 41.8572C212.868 41.5803 213.578 41.4418 214.374 41.4418C215.183 41.4418 215.89 41.5803 216.494 41.8572C217.101 42.1342 217.573 42.5195 217.911 43.0131C218.248 43.5067 218.422 44.0785 218.433 44.7283H216.222ZM222.424 52.6545C221.902 52.6545 221.436 52.5639 221.028 52.3828C220.62 52.1982 220.297 51.9265 220.059 51.5678C219.824 51.2056 219.707 50.7546 219.707 50.2148C219.707 49.7603 219.791 49.3786 219.957 49.0696C220.124 48.7607 220.352 48.5121 220.639 48.3239C220.927 48.1357 221.254 47.9936 221.619 47.8977C221.989 47.8018 222.376 47.7344 222.781 47.6953C223.256 47.6456 223.64 47.5994 223.931 47.5568C224.222 47.5107 224.434 47.4432 224.565 47.3544C224.696 47.2656 224.762 47.1342 224.762 46.9602V46.9283C224.762 46.5909 224.656 46.3299 224.443 46.1452C224.233 45.9606 223.935 45.8683 223.548 45.8683C223.139 45.8683 222.814 45.9588 222.573 46.1399C222.331 46.3175 222.172 46.5412 222.093 46.8111L219.995 46.6406C220.101 46.1435 220.311 45.7138 220.623 45.3516C220.936 44.9858 221.339 44.7053 221.832 44.5099C222.33 44.3111 222.905 44.2116 223.558 44.2116C224.013 44.2116 224.448 44.2649 224.863 44.3714C225.282 44.478 225.653 44.6431 225.977 44.8668C226.303 45.0906 226.561 45.3782 226.749 45.7298C226.937 46.0778 227.031 46.495 227.031 46.9815V52.5H224.879V51.3654H224.815C224.684 51.6211 224.508 51.8466 224.288 52.0419C224.068 52.2337 223.803 52.3846 223.494 52.4947C223.185 52.6012 222.829 52.6545 222.424 52.6545ZM223.074 51.0884C223.407 51.0884 223.702 51.0227 223.958 50.8913C224.213 50.7564 224.414 50.5753 224.56 50.348C224.705 50.1207 224.778 49.8633 224.778 49.5756V48.7074C224.707 48.7536 224.609 48.7962 224.485 48.8352C224.364 48.8707 224.228 48.9045 224.075 48.9364C223.922 48.9648 223.77 48.9915 223.617 49.0163C223.464 49.0376 223.326 49.0572 223.201 49.0749C222.935 49.114 222.702 49.1761 222.504 49.2614C222.305 49.3466 222.15 49.462 222.04 49.6076C221.93 49.7496 221.875 49.9272 221.875 50.1403C221.875 50.4492 221.987 50.6854 222.211 50.8487C222.438 51.0085 222.726 51.0884 223.074 51.0884ZM231.061 41.5909V52.5H228.792V41.5909H231.061ZM235.894 52.6332C235.272 52.6332 234.709 52.4734 234.205 52.1538C233.704 51.8306 233.307 51.3565 233.012 50.7315C232.721 50.103 232.575 49.3324 232.575 48.4197C232.575 47.4822 232.726 46.7028 233.028 46.0813C233.33 45.4563 233.731 44.9893 234.232 44.6804C234.736 44.3679 235.288 44.2116 235.888 44.2116C236.346 44.2116 236.728 44.2898 237.034 44.446C237.342 44.5987 237.591 44.7905 237.779 45.0213C237.971 45.2486 238.117 45.4723 238.216 45.6925H238.285V41.5909H240.549V52.5H238.312V51.1896H238.216C238.11 51.4169 237.959 51.6424 237.763 51.8661C237.572 52.0863 237.321 52.2692 237.012 52.4148C236.707 52.5604 236.334 52.6332 235.894 52.6332ZM236.613 50.8274C236.978 50.8274 237.287 50.728 237.54 50.5291C237.795 50.3267 237.991 50.0444 238.125 49.6822C238.264 49.32 238.333 48.8956 238.333 48.4091C238.333 47.9226 238.266 47.5 238.131 47.1413C237.996 46.7827 237.801 46.5057 237.545 46.3104C237.289 46.1151 236.978 46.0174 236.613 46.0174C236.24 46.0174 235.926 46.1186 235.67 46.321C235.414 46.5234 235.221 46.804 235.089 47.1626C234.958 47.5213 234.892 47.9368 234.892 48.4091C234.892 48.8849 234.958 49.3058 235.089 49.6715C235.224 50.0337 235.418 50.3178 235.67 50.5238C235.926 50.7262 236.24 50.8274 236.613 50.8274ZM246.112 52.6598C245.284 52.6598 244.569 52.484 243.965 52.1325C243.365 51.7773 242.901 51.2837 242.575 50.6516C242.248 50.016 242.085 49.2791 242.085 48.4411C242.085 47.5959 242.248 46.8572 242.575 46.2251C242.901 45.5895 243.365 45.0959 243.965 44.7443C244.569 44.3892 245.284 44.2116 246.112 44.2116C246.939 44.2116 247.653 44.3892 248.253 44.7443C248.857 45.0959 249.322 45.5895 249.648 46.2251C249.975 46.8572 250.139 47.5959 250.139 48.4411C250.139 49.2791 249.975 50.016 249.648 50.6516C249.322 51.2837 248.857 51.7773 248.253 52.1325C247.653 52.484 246.939 52.6598 246.112 52.6598ZM246.122 50.902C246.499 50.902 246.813 50.7955 247.065 50.5824C247.317 50.3658 247.507 50.071 247.635 49.6982C247.766 49.3253 247.832 48.9009 247.832 48.4251C247.832 47.9492 247.766 47.5249 247.635 47.152C247.507 46.7791 247.317 46.4844 247.065 46.2678C246.813 46.0511 246.499 45.9428 246.122 45.9428C245.742 45.9428 245.423 46.0511 245.163 46.2678C244.908 46.4844 244.714 46.7791 244.583 47.152C244.455 47.5249 244.391 47.9492 244.391 48.4251C244.391 48.9009 244.455 49.3253 244.583 49.6982C244.714 50.071 244.908 50.3658 245.163 50.5824C245.423 50.7955 245.742 50.902 246.122 50.902ZM259.246 48.7074H261.206L262.192 49.9751L263.161 51.1044L264.988 53.3949H262.836L261.579 51.8501L260.934 50.9339L259.246 48.7074ZM265.153 47.0455C265.153 48.2351 264.928 49.2472 264.477 50.0817C264.029 50.9162 263.418 51.5536 262.644 51.994C261.874 52.4308 261.007 52.6491 260.045 52.6491C259.075 52.6491 258.205 52.429 257.435 51.9886C256.664 51.5483 256.055 50.9109 255.608 50.0763C255.16 49.2418 254.937 48.2315 254.937 47.0455C254.937 45.8558 255.16 44.8438 255.608 44.0092C256.055 43.1747 256.664 42.5391 257.435 42.1023C258.205 41.6619 259.075 41.4418 260.045 41.4418C261.007 41.4418 261.874 41.6619 262.644 42.1023C263.418 42.5391 264.029 43.1747 264.477 44.0092C264.928 44.8438 265.153 45.8558 265.153 47.0455ZM262.815 47.0455C262.815 46.2749 262.699 45.625 262.469 45.0959C262.241 44.5668 261.92 44.1655 261.504 43.892C261.089 43.6186 260.602 43.4819 260.045 43.4819C259.487 43.4819 259.001 43.6186 258.585 43.892C258.17 44.1655 257.847 44.5668 257.616 45.0959C257.389 45.625 257.275 46.2749 257.275 47.0455C257.275 47.8161 257.389 48.4659 257.616 48.995C257.847 49.5241 258.17 49.9254 258.585 50.1989C259.001 50.4723 259.487 50.609 260.045 50.609C260.602 50.609 261.089 50.4723 261.504 50.1989C261.92 49.9254 262.241 49.5241 262.469 48.995C262.699 48.4659 262.815 47.8161 262.815 47.0455ZM266.862 52.5V41.5909H271.166C271.99 41.5909 272.693 41.7383 273.275 42.033C273.861 42.3242 274.307 42.7379 274.612 43.2741C274.921 43.8068 275.076 44.4336 275.076 45.1545C275.076 45.8789 274.919 46.5021 274.607 47.0241C274.294 47.5426 273.841 47.9403 273.248 48.2173C272.659 48.4943 271.945 48.6328 271.107 48.6328H268.225V46.7791H270.734C271.175 46.7791 271.54 46.7187 271.832 46.598C272.123 46.4773 272.339 46.2962 272.481 46.0547C272.627 45.8132 272.7 45.5131 272.7 45.1545C272.7 44.7923 272.627 44.4869 272.481 44.2383C272.339 43.9897 272.121 43.8015 271.826 43.6737C271.535 43.5423 271.167 43.4766 270.724 43.4766H269.168V52.5H266.862ZM272.753 47.5355L275.464 52.5H272.918L270.265 47.5355H272.753ZM289.803 45.4102H287.469C287.427 45.1083 287.34 44.8402 287.208 44.6058C287.077 44.3679 286.908 44.1655 286.702 43.9986C286.496 43.8317 286.258 43.7038 285.989 43.6151C285.722 43.5263 285.433 43.4819 285.12 43.4819C284.556 43.4819 284.064 43.6222 283.645 43.9027C283.226 44.1797 282.901 44.5845 282.67 45.1172C282.439 45.6463 282.324 46.2891 282.324 47.0455C282.324 47.8232 282.439 48.4766 282.67 49.0057C282.904 49.5348 283.231 49.9343 283.65 50.2042C284.069 50.4741 284.554 50.609 285.104 50.609C285.413 50.609 285.699 50.5682 285.962 50.4865C286.228 50.4048 286.464 50.2859 286.67 50.1296C286.876 49.9698 287.047 49.7763 287.182 49.549C287.32 49.3217 287.416 49.0625 287.469 48.7713L289.803 48.782C289.742 49.2827 289.591 49.7656 289.35 50.2308C289.112 50.6925 288.79 51.1062 288.386 51.4719C287.984 51.8342 287.505 52.1218 286.947 52.3349C286.393 52.5444 285.767 52.6491 285.067 52.6491C284.094 52.6491 283.224 52.429 282.457 51.9886C281.693 51.5483 281.09 50.9109 280.646 50.0763C280.206 49.2418 279.985 48.2315 279.985 47.0455C279.985 45.8558 280.209 44.8438 280.657 44.0092C281.104 43.1747 281.711 42.5391 282.478 42.1023C283.245 41.6619 284.108 41.4418 285.067 41.4418C285.699 41.4418 286.285 41.5305 286.825 41.7081C287.368 41.8857 287.849 42.1449 288.268 42.4858C288.687 42.8232 289.028 43.2369 289.291 43.7269C289.557 44.217 289.728 44.7781 289.803 45.4102ZM295.111 52.6598C294.283 52.6598 293.568 52.484 292.964 52.1325C292.364 51.7773 291.9 51.2837 291.574 50.6516C291.247 50.016 291.084 49.2791 291.084 48.4411C291.084 47.5959 291.247 46.8572 291.574 46.2251C291.9 45.5895 292.364 45.0959 292.964 44.7443C293.568 44.3892 294.283 44.2116 295.111 44.2116C295.938 44.2116 296.652 44.3892 297.252 44.7443C297.856 45.0959 298.321 45.5895 298.648 46.2251C298.974 46.8572 299.138 47.5959 299.138 48.4411C299.138 49.2791 298.974 50.016 298.648 50.6516C298.321 51.2837 297.856 51.7773 297.252 52.1325C296.652 52.484 295.938 52.6598 295.111 52.6598ZM295.121 50.902C295.498 50.902 295.812 50.7955 296.064 50.5824C296.316 50.3658 296.506 50.071 296.634 49.6982C296.765 49.3253 296.831 48.9009 296.831 48.4251C296.831 47.9492 296.765 47.5249 296.634 47.152C296.506 46.7791 296.316 46.4844 296.064 46.2678C295.812 46.0511 295.498 45.9428 295.121 45.9428C294.741 45.9428 294.422 46.0511 294.162 46.2678C293.907 46.4844 293.713 46.7791 293.582 47.152C293.454 47.5249 293.39 47.9492 293.39 48.4251C293.39 48.9009 293.454 49.3253 293.582 49.6982C293.713 50.071 293.907 50.3658 294.162 50.5824C294.422 50.7955 294.741 50.902 295.121 50.902ZM303.628 52.6332C303.007 52.6332 302.444 52.4734 301.939 52.1538C301.439 51.8306 301.041 51.3565 300.746 50.7315C300.455 50.103 300.309 49.3324 300.309 48.4197C300.309 47.4822 300.46 46.7028 300.762 46.0813C301.064 45.4563 301.465 44.9893 301.966 44.6804C302.47 44.3679 303.023 44.2116 303.623 44.2116C304.081 44.2116 304.462 44.2898 304.768 44.446C305.077 44.5987 305.325 44.7905 305.514 45.0213C305.705 45.2486 305.851 45.4723 305.95 45.6925H306.02V41.5909H308.284V52.5H306.046V51.1896H305.95C305.844 51.4169 305.693 51.6424 305.498 51.8661C305.306 52.0863 305.056 52.2692 304.747 52.4148C304.441 52.5604 304.068 52.6332 303.628 52.6332ZM304.347 50.8274C304.713 50.8274 305.022 50.728 305.274 50.5291C305.53 50.3267 305.725 50.0444 305.86 49.6822C305.998 49.32 306.068 48.8956 306.068 48.4091C306.068 47.9226 306 47.5 305.865 47.1413C305.73 46.7827 305.535 46.5057 305.279 46.3104C305.024 46.1151 304.713 46.0174 304.347 46.0174C303.974 46.0174 303.66 46.1186 303.404 46.321C303.149 46.5234 302.955 46.804 302.824 47.1626C302.692 47.5213 302.627 47.9368 302.627 48.4091C302.627 48.8849 302.692 49.3058 302.824 49.6715C302.959 50.0337 303.152 50.3178 303.404 50.5238C303.66 50.7262 303.974 50.8274 304.347 50.8274ZM313.878 52.6598C313.036 52.6598 312.312 52.4893 311.705 52.1484C311.101 51.804 310.636 51.3175 310.309 50.6889C309.982 50.0568 309.819 49.3093 309.819 48.4464C309.819 47.6048 309.982 46.8661 310.309 46.2305C310.636 45.5948 311.096 45.0994 311.689 44.7443C312.285 44.3892 312.985 44.2116 313.787 44.2116C314.327 44.2116 314.83 44.2987 315.295 44.4727C315.764 44.6431 316.172 44.9006 316.52 45.245C316.871 45.5895 317.145 46.0227 317.34 46.5447C317.536 47.0632 317.633 47.6705 317.633 48.3665V48.9897H310.724V47.5835H315.497C315.497 47.2567 315.426 46.9673 315.284 46.7152C315.142 46.4631 314.945 46.266 314.693 46.1239C314.444 45.9783 314.155 45.9055 313.825 45.9055C313.48 45.9055 313.175 45.9854 312.908 46.1452C312.646 46.3015 312.44 46.5128 312.291 46.7791C312.141 47.0419 312.065 47.3349 312.061 47.658V48.995C312.061 49.3999 312.136 49.7496 312.285 50.0444C312.438 50.3391 312.653 50.5664 312.93 50.7262C313.207 50.886 313.535 50.9659 313.915 50.9659C314.167 50.9659 314.398 50.9304 314.608 50.8594C314.817 50.7884 314.996 50.6818 315.146 50.5398C315.295 50.3977 315.408 50.2237 315.487 50.0178L317.585 50.1562C317.479 50.6605 317.26 51.1009 316.93 51.4773C316.603 51.8501 316.181 52.1413 315.662 52.3509C315.147 52.5568 314.553 52.6598 313.878 52.6598Z" fill="white"/>
<path d="M185.469 91.5V68.2273H194.65C196.408 68.2273 197.908 68.5417 199.15 69.1705C200.4 69.7917 201.351 70.6742 202.003 71.8182C202.662 72.9545 202.991 74.2917 202.991 75.8295C202.991 77.375 202.658 78.7045 201.991 79.8182C201.325 80.9242 200.359 81.7727 199.094 82.3636C197.836 82.9545 196.313 83.25 194.525 83.25H188.378V79.2955H193.73C194.669 79.2955 195.45 79.1667 196.071 78.9091C196.692 78.6515 197.154 78.2652 197.457 77.75C197.768 77.2348 197.923 76.5947 197.923 75.8295C197.923 75.0568 197.768 74.4053 197.457 73.875C197.154 73.3447 196.688 72.9432 196.059 72.6705C195.438 72.3902 194.654 72.25 193.707 72.25H190.389V91.5H185.469ZM198.037 80.9091L203.821 91.5H198.389L192.73 80.9091H198.037ZM214.15 94.4091V65.3182H216.014V94.4091H214.15ZM219.094 74.9205C219.003 74.0038 218.612 73.2917 217.923 72.7841C217.234 72.2765 216.298 72.0227 215.116 72.0227C214.313 72.0227 213.635 72.1364 213.082 72.3636C212.529 72.5833 212.105 72.8902 211.809 73.2841C211.522 73.678 211.378 74.125 211.378 74.625C211.362 75.0417 211.45 75.4053 211.639 75.7159C211.836 76.0265 212.105 76.2955 212.446 76.5227C212.787 76.7424 213.181 76.9356 213.628 77.1023C214.075 77.2614 214.552 77.3977 215.059 77.5114L217.15 78.0114C218.165 78.2386 219.097 78.5417 219.946 78.9205C220.794 79.2992 221.529 79.7652 222.15 80.3182C222.772 80.8712 223.253 81.5227 223.594 82.2727C223.942 83.0227 224.12 83.8826 224.128 84.8523C224.12 86.2765 223.756 87.5114 223.037 88.5568C222.325 89.5947 221.294 90.4015 219.946 90.9773C218.605 91.5455 216.987 91.8295 215.094 91.8295C213.215 91.8295 211.578 91.5417 210.184 90.9659C208.798 90.3902 207.715 89.5379 206.934 88.4091C206.162 87.2727 205.756 85.8674 205.719 84.1932H210.48C210.533 84.9735 210.756 85.625 211.15 86.1477C211.552 86.6629 212.086 87.053 212.753 87.3182C213.427 87.5758 214.188 87.7045 215.037 87.7045C215.87 87.7045 216.594 87.5833 217.207 87.3409C217.828 87.0985 218.309 86.7614 218.65 86.3295C218.991 85.8977 219.162 85.4015 219.162 84.8409C219.162 84.3182 219.006 83.8788 218.696 83.5227C218.393 83.1667 217.946 82.8636 217.355 82.6136C216.772 82.3636 216.056 82.1364 215.207 81.9318L212.673 81.2955C210.711 80.8182 209.162 80.072 208.025 79.0568C206.889 78.0417 206.325 76.6742 206.332 74.9545C206.325 73.5455 206.7 72.3144 207.457 71.2614C208.222 70.2083 209.272 69.3864 210.605 68.7955C211.938 68.2045 213.453 67.9091 215.15 67.9091C216.878 67.9091 218.385 68.2045 219.673 68.7955C220.969 69.3864 221.976 70.2083 222.696 71.2614C223.415 72.3144 223.787 73.5341 223.809 74.9205H219.094ZM227.301 91.5V87.9545L235.585 80.2841C236.29 79.6023 236.88 78.9886 237.358 78.4432C237.843 77.8977 238.21 77.3636 238.46 76.8409C238.71 76.3106 238.835 75.7386 238.835 75.125C238.835 74.4432 238.68 73.8561 238.369 73.3636C238.058 72.8636 237.634 72.4811 237.096 72.2159C236.558 71.9432 235.949 71.8068 235.267 71.8068C234.555 71.8068 233.933 71.9508 233.403 72.2386C232.873 72.5265 232.464 72.9394 232.176 73.4773C231.888 74.0152 231.744 74.6553 231.744 75.3977H227.074C227.074 73.875 227.418 72.553 228.108 71.4318C228.797 70.3106 229.763 69.4432 231.005 68.8295C232.248 68.2159 233.68 67.9091 235.301 67.9091C236.968 67.9091 238.418 68.2045 239.653 68.7955C240.896 69.3788 241.862 70.1894 242.551 71.2273C243.24 72.2652 243.585 73.4545 243.585 74.7955C243.585 75.6742 243.411 76.5417 243.062 77.3977C242.721 78.2538 242.112 79.2045 241.233 80.25C240.354 81.2879 239.115 82.5341 237.517 83.9886L234.119 87.3182V87.4773H243.892V91.5H227.301ZM256.582 92.0114C254.628 92.0038 252.946 91.5227 251.537 90.5682C250.135 89.6136 249.056 88.2311 248.298 86.4205C247.548 84.6098 247.177 82.4318 247.184 79.8864C247.184 77.3485 247.559 75.1856 248.309 73.3977C249.067 71.6098 250.147 70.25 251.548 69.3182C252.957 68.3788 254.635 67.9091 256.582 67.9091C258.529 67.9091 260.203 68.3788 261.605 69.3182C263.014 70.2576 264.097 71.6212 264.855 73.4091C265.612 75.1894 265.987 77.3485 265.98 79.8864C265.98 82.4394 265.601 84.6212 264.844 86.4318C264.094 88.2424 263.018 89.625 261.616 90.5795C260.215 91.5341 258.537 92.0114 256.582 92.0114ZM256.582 87.9318C257.915 87.9318 258.98 87.2614 259.775 85.9205C260.571 84.5795 260.965 82.5682 260.957 79.8864C260.957 78.1212 260.775 76.6515 260.412 75.4773C260.056 74.303 259.548 73.4205 258.889 72.8295C258.237 72.2386 257.469 71.9432 256.582 71.9432C255.256 71.9432 254.196 72.6061 253.4 73.9318C252.605 75.2576 252.203 77.2424 252.196 79.8864C252.196 81.6742 252.374 83.1667 252.73 84.3636C253.094 85.553 253.605 86.447 254.264 87.0455C254.923 87.6364 255.696 87.9318 256.582 87.9318ZM273.858 88.3182L273.733 89.5682C273.634 90.5682 273.445 91.5644 273.165 92.5568C272.892 93.5568 272.604 94.4621 272.301 95.2727C272.005 96.0833 271.767 96.7197 271.585 97.1818H268.449C268.562 96.7348 268.718 96.1098 268.915 95.3068C269.112 94.5114 269.297 93.6174 269.471 92.625C269.646 91.6326 269.755 90.6212 269.801 89.5909L269.858 88.3182H273.858ZM286.426 92.0114C284.471 92.0038 282.79 91.5227 281.38 90.5682C279.979 89.6136 278.899 88.2311 278.142 86.4205C277.392 84.6098 277.021 82.4318 277.028 79.8864C277.028 77.3485 277.403 75.1856 278.153 73.3977C278.911 71.6098 279.99 70.25 281.392 69.3182C282.801 68.3788 284.479 67.9091 286.426 67.9091C288.373 67.9091 290.047 68.3788 291.449 69.3182C292.858 70.2576 293.941 71.6212 294.699 73.4091C295.456 75.1894 295.831 77.3485 295.824 79.8864C295.824 82.4394 295.445 84.6212 294.687 86.4318C293.937 88.2424 292.862 89.625 291.46 90.5795C290.058 91.5341 288.38 92.0114 286.426 92.0114ZM286.426 87.9318C287.759 87.9318 288.824 87.2614 289.619 85.9205C290.415 84.5795 290.808 82.5682 290.801 79.8864C290.801 78.1212 290.619 76.6515 290.255 75.4773C289.899 74.303 289.392 73.4205 288.733 72.8295C288.081 72.2386 287.312 71.9432 286.426 71.9432C285.1 71.9432 284.04 72.6061 283.244 73.9318C282.449 75.2576 282.047 77.2424 282.04 79.8864C282.04 81.6742 282.218 83.1667 282.574 84.3636C282.937 85.553 283.449 86.447 284.108 87.0455C284.767 87.6364 285.54 87.9318 286.426 87.9318ZM308.457 92.0114C306.503 92.0038 304.821 91.5227 303.412 90.5682C302.01 89.6136 300.931 88.2311 300.173 86.4205C299.423 84.6098 299.052 82.4318 299.059 79.8864C299.059 77.3485 299.434 75.1856 300.184 73.3977C300.942 71.6098 302.022 70.25 303.423 69.3182C304.832 68.3788 306.51 67.9091 308.457 67.9091C310.404 67.9091 312.078 68.3788 313.48 69.3182C314.889 70.2576 315.972 71.6212 316.73 73.4091C317.487 75.1894 317.862 77.3485 317.855 79.8864C317.855 82.4394 317.476 84.6212 316.719 86.4318C315.969 88.2424 314.893 89.625 313.491 90.5795C312.09 91.5341 310.412 92.0114 308.457 92.0114ZM308.457 87.9318C309.79 87.9318 310.855 87.2614 311.65 85.9205C312.446 84.5795 312.84 82.5682 312.832 79.8864C312.832 78.1212 312.65 76.6515 312.287 75.4773C311.931 74.303 311.423 73.4205 310.764 72.8295C310.112 72.2386 309.344 71.9432 308.457 71.9432C307.131 71.9432 306.071 72.6061 305.275 73.9318C304.48 75.2576 304.078 77.2424 304.071 79.8864C304.071 81.6742 304.249 83.1667 304.605 84.3636C304.969 85.553 305.48 86.447 306.139 87.0455C306.798 87.6364 307.571 87.9318 308.457 87.9318Z" fill="white"/>
<path d="M113.617 94.5H118.152M100.014 94.5H90.9457V81.375M104.549 81.375H118.152V68.25H113.617M90.9457 68.25H100.014M45.6025 81.3737C45.6025 77.2971 45.6025 75.2583 46.2928 73.6505C47.2133 71.5063 48.9775 69.804 51.1996 68.9159C52.8661 68.25 54.9789 68.25 59.2043 68.25C63.4298 68.25 65.5448 68.25 67.2114 68.9159C69.4334 69.804 71.1972 71.5063 72.1177 73.6505C72.808 75.2583 72.808 77.2979 72.808 81.375C72.808 85.4521 72.808 87.4904 72.1177 89.0986C71.1972 91.2424 69.4334 92.9456 67.2114 93.8337C65.5448 94.4996 63.4297 94.4996 59.2043 94.4996C54.9789 94.4996 52.8661 94.4996 51.1996 93.8337C48.9775 92.9456 47.2133 91.2437 46.2928 89.0995C45.6025 87.4917 45.6025 85.4508 45.6025 81.3737ZM90.9457 37.6239C90.9457 33.5469 90.9457 31.5084 91.6358 29.9004C92.5563 27.7564 94.3206 26.0541 96.5428 25.166C98.2092 24.5 100.322 24.5 104.547 24.5C108.773 24.5 110.888 24.5 112.554 25.166C114.777 26.0541 116.541 27.7564 117.461 29.9004C118.151 31.5084 118.151 33.548 118.151 37.625C118.151 41.702 118.151 43.7405 117.461 45.3485C116.541 47.4925 114.777 49.1954 112.554 50.0835C110.888 50.7496 108.773 50.7496 104.547 50.7496C100.322 50.7496 98.2092 50.7496 96.5428 50.0835C94.3206 49.1954 92.5563 47.4936 91.6358 45.3496C90.9457 43.7416 90.9457 41.7009 90.9457 37.6239ZM45.6025 37.6239C45.6025 33.5469 45.6025 31.5084 46.2928 29.9004C47.2133 27.7564 48.9775 26.0541 51.1996 25.166C52.8661 24.5 54.9789 24.5 59.2043 24.5C63.4298 24.5 65.5448 24.5 67.2114 25.166C69.4334 26.0541 71.1972 27.7564 72.1177 29.9004C72.808 31.5084 72.808 33.548 72.808 37.625C72.808 41.702 72.808 43.7405 72.1177 45.3485C71.1972 47.4925 69.4334 49.1954 67.2114 50.0835C65.5448 50.7496 63.4297 50.7496 59.2043 50.7496C54.9789 50.7496 52.8661 50.7496 51.1996 50.0835C48.9775 49.1954 47.2133 47.4936 46.2928 45.3496C45.6025 43.7416 45.6025 41.7009 45.6025 37.6239Z" stroke="white" stroke-width="8" stroke-linecap="round" stroke-linejoin="round"/>
</svg>
