<svg width="88" height="127" viewBox="0 0 88 127" fill="none" xmlns="http://www.w3.org/2000/svg">
<path d="M6.08962 72.4159C7.61918 73.1749 9.25717 73.5582 10.9552 73.5582C15.1547 73.5582 18.9186 71.2252 20.7831 67.4671C23.0213 62.9559 21.8441 57.6392 18.2622 54.4329L42.4796 21.6404C43.2986 21.834 44.1388 21.9327 44.9966 21.9327C48.0073 21.9327 50.7818 20.7168 52.807 18.649L67.7405 30.0452C67.423 30.5002 67.1306 30.9765 66.877 31.4857C64.5768 36.1169 65.8799 41.6021 69.6902 44.7754L62.2535 68.2144C61.7036 68.1273 61.1479 68.0712 60.5826 68.0712C56.385 68.0712 52.6211 70.4042 50.7566 74.1623C48.0692 79.5816 50.2919 86.1703 55.7073 88.8577C57.235 89.6147 58.8749 90 60.5729 90C64.7724 90 68.5343 87.6669 70.4008 83.9089C72.699 79.2757 71.3979 73.7925 67.5876 70.6191L75.0243 47.1801C75.5742 47.2672 76.1299 47.3234 76.6971 47.3234C80.8928 47.3234 84.6586 44.9903 86.5231 41.2323C89.2105 35.8188 86.9878 29.2262 81.5724 26.5388C80.0409 25.7798 78.4029 25.3945 76.7049 25.3945C75.1811 25.3945 73.7193 25.7101 72.3834 26.2813L55.657 13.5163C56.8187 8.6604 54.534 3.45796 49.8757 1.14426C48.3422 0.385294 46.7062 0 45.0082 0C40.8106 0 37.0467 2.335 35.1803 6.09306C33.0176 10.4533 34.0399 15.5744 37.3488 18.8078L12.963 51.8269C12.3085 51.7068 11.6444 51.6255 10.9687 51.6255C6.77115 51.6255 3.00727 53.9624 1.14276 57.7205C-1.54655 63.1359 0.674214 69.7285 6.08962 72.4159ZM65.1925 81.3299C64.3155 83.0976 62.5419 84.1954 60.5651 84.1954C59.7713 84.1954 59.0007 84.0134 58.2785 83.6572C55.7344 82.3948 54.6889 79.295 55.9552 76.7471C56.8303 74.9813 58.5999 73.8816 60.5787 73.8816C61.3745 73.8816 62.145 74.0655 62.8633 74.4217C65.4113 75.6822 66.4568 78.78 65.1925 81.3299ZM78.9876 31.7412C81.5317 33.0056 82.5772 36.1053 81.3149 38.6494C80.4397 40.4171 78.6662 41.5149 76.6894 41.5149C75.8936 41.5149 75.1211 41.3329 74.4028 40.9767C71.8568 39.7143 70.8132 36.6145 72.0736 34.0685C72.9507 32.3008 74.7242 31.203 76.701 31.203C77.5006 31.2011 78.2654 31.3831 78.9876 31.7412ZM40.3827 8.67782C41.2598 6.91012 43.0314 5.81232 45.0082 5.81232C45.8039 5.81232 46.5745 5.99432 47.2928 6.35057C49.8389 7.61488 50.8844 10.7147 49.622 13.2588C48.7449 15.0265 46.9753 16.1243 44.9966 16.1243C44.2008 16.1243 43.4302 15.9423 42.71 15.586C40.162 14.3236 39.1184 11.2239 40.3827 8.67782ZM6.3452 60.3014C7.22227 58.5356 8.99191 57.4359 10.9687 57.4359C11.7645 57.4359 12.5331 57.6198 13.2534 57.9761C15.7994 59.2365 16.843 62.3363 15.5806 64.8843C14.3492 67.3625 11.1875 68.4584 8.67051 67.2115C6.12254 65.9491 5.08089 62.8494 6.3452 60.3014Z" fill="#D51217"/>
<path d="M5.51705 121V103.545H12.4034C13.7216 103.545 14.8466 103.781 15.7784 104.253C16.7159 104.719 17.429 105.381 17.9176 106.239C18.4119 107.091 18.6591 108.094 18.6591 109.247C18.6591 110.406 18.4091 111.403 17.9091 112.239C17.4091 113.068 16.6847 113.705 15.7358 114.148C14.7926 114.591 13.6506 114.812 12.3097 114.812H7.69886V111.847H11.7131C12.4176 111.847 13.0028 111.75 13.4688 111.557C13.9347 111.364 14.2813 111.074 14.5085 110.688C14.7415 110.301 14.858 109.821 14.858 109.247C14.858 108.668 14.7415 108.179 14.5085 107.781C14.2813 107.384 13.9318 107.082 13.4602 106.878C12.9943 106.668 12.4063 106.562 11.696 106.562H9.20739V121H5.51705ZM14.9432 113.057L19.2812 121H15.2074L10.9631 113.057H14.9432ZM37.3068 112.273C37.3068 114.176 36.946 115.795 36.2244 117.131C35.5085 118.466 34.5313 119.486 33.2926 120.19C32.0597 120.889 30.6733 121.239 29.1335 121.239C27.5824 121.239 26.1903 120.886 24.9574 120.182C23.7244 119.477 22.75 118.457 22.0341 117.122C21.3182 115.787 20.9602 114.17 20.9602 112.273C20.9602 110.369 21.3182 108.75 22.0341 107.415C22.75 106.08 23.7244 105.062 24.9574 104.364C26.1903 103.659 27.5824 103.307 29.1335 103.307C30.6733 103.307 32.0597 103.659 33.2926 104.364C34.5313 105.062 35.5085 106.08 36.2244 107.415C36.946 108.75 37.3068 110.369 37.3068 112.273ZM33.5653 112.273C33.5653 111.04 33.3807 110 33.0114 109.153C32.6477 108.307 32.1335 107.665 31.4688 107.227C30.804 106.79 30.0256 106.571 29.1335 106.571C28.2415 106.571 27.4631 106.79 26.7983 107.227C26.1335 107.665 25.6165 108.307 25.2472 109.153C24.8835 110 24.7017 111.04 24.7017 112.273C24.7017 113.506 24.8835 114.545 25.2472 115.392C25.6165 116.239 26.1335 116.881 26.7983 117.318C27.4631 117.756 28.2415 117.974 29.1335 117.974C30.0256 117.974 30.804 117.756 31.4688 117.318C32.1335 116.881 32.6477 116.239 33.0114 115.392C33.3807 114.545 33.5653 113.506 33.5653 112.273ZM38.5788 106.588V103.545H52.9141V106.588H47.5703V121H43.9226V106.588H38.5788ZM56.1506 121H52.196L58.2216 103.545H62.9773L68.9943 121H65.0398L60.6676 107.534H60.5312L56.1506 121ZM55.9034 114.139H65.2443V117.02H55.9034V114.139ZM80.1655 108.565C80.0973 107.878 79.8047 107.344 79.2876 106.963C78.7706 106.582 78.0689 106.392 77.1825 106.392C76.5803 106.392 76.0717 106.477 75.657 106.648C75.2422 106.812 74.924 107.043 74.7024 107.338C74.4865 107.634 74.3786 107.969 74.3786 108.344C74.3672 108.656 74.4325 108.929 74.5746 109.162C74.7223 109.395 74.924 109.597 75.1797 109.767C75.4354 109.932 75.7308 110.077 76.0661 110.202C76.4013 110.321 76.7592 110.423 77.1399 110.509L78.7081 110.884C79.4695 111.054 80.1683 111.281 80.8047 111.565C81.4411 111.849 81.9922 112.199 82.4581 112.614C82.924 113.028 83.2848 113.517 83.5405 114.08C83.8018 114.642 83.9354 115.287 83.9411 116.014C83.9354 117.082 83.6626 118.009 83.1229 118.793C82.5888 119.571 81.8161 120.176 80.8047 120.608C79.799 121.034 78.5859 121.247 77.1655 121.247C75.7564 121.247 74.5291 121.031 73.4837 120.599C72.4439 120.168 71.6314 119.528 71.0462 118.682C70.4666 117.83 70.1626 116.776 70.1342 115.52H73.7053C73.745 116.105 73.9126 116.594 74.2081 116.986C74.5092 117.372 74.9098 117.665 75.4098 117.864C75.9155 118.057 76.4865 118.153 77.1229 118.153C77.7479 118.153 78.2905 118.062 78.7507 117.881C79.2166 117.699 79.5774 117.446 79.8331 117.122C80.0888 116.798 80.2166 116.426 80.2166 116.006C80.2166 115.614 80.1001 115.284 79.8672 115.017C79.6399 114.75 79.3047 114.523 78.8615 114.335C78.424 114.148 77.8871 113.977 77.2507 113.824L75.3501 113.347C73.8786 112.989 72.7166 112.429 71.8643 111.668C71.0121 110.906 70.5888 109.881 70.5945 108.591C70.5888 107.534 70.87 106.611 71.4382 105.821C72.0121 105.031 72.799 104.415 73.799 103.972C74.799 103.528 75.9354 103.307 77.2081 103.307C78.5036 103.307 79.6342 103.528 80.6001 103.972C81.5717 104.415 82.3274 105.031 82.8672 105.821C83.407 106.611 83.6854 107.526 83.7024 108.565H80.1655Z" fill="#D51217"/>
</svg>
