<svg width="60" height="60" viewBox="0 0 60 60" fill="none" xmlns="http://www.w3.org/2000/svg">
<path d="M9.61872 0.000292969C4.36812 0.000292969 0 4.12323 0 9.60029C0 10.9376 0.2985 12.6739 0.75 13.894C3.3243 19.4273 5.92416 24.9717 8.5125 30.5065C8.67756 30.8602 9.02898 31.0975 9.4125 31.1628V31.1814C19.3322 32.8034 23.5964 35.0482 25.1813 37.1251C25.9736 38.1636 26.208 39.1912 26.2125 40.3876C26.2185 41.5841 25.937 42.9303 25.6875 44.3626C25.438 45.795 25.2089 47.3251 25.4625 48.9189C25.7161 50.5127 26.4991 52.132 28.0687 53.5314C31.2083 56.3302 37.2347 58.4417 49.05 59.9814C49.0992 59.988 49.1499 60 49.2 60C49.6537 60 50.0956 59.7174 50.2875 59.3063C53.2085 53.0739 56.261 46.886 59.1563 40.65C59.6492 39.3384 60 37.4802 60 36C60 29.9061 55.1079 25.2 49.1813 25.2C43.2545 25.2 38.4 29.9096 38.4 36C38.4 37.4812 38.7546 39.3416 39.2437 40.65C41.8669 46.1912 44.5177 51.7376 47.1563 57.2813C36.999 55.7855 31.9348 53.759 29.6813 51.75C28.4762 50.6757 28.0037 49.6673 27.825 48.5438C27.6463 47.4203 27.8106 46.1506 28.05 44.775C28.2896 43.3994 28.6183 41.9179 28.6125 40.3687C28.6065 38.8196 28.2133 37.1731 27.075 35.6812C24.9205 32.8576 20.4378 30.7109 11.3625 29.0812C13.7155 24.0147 16.135 18.9678 18.45 13.8938C18.8978 12.6769 19.2 10.9383 19.2 9.6C19.2 4.1264 14.8695 0.000292969 9.61872 0.000292969ZM9.61872 2.40029C13.6472 2.40029 16.8 5.36229 16.8 9.60029C16.8 10.4876 16.4731 12.2982 16.2 13.0503C14.0138 17.7523 11.8021 22.4522 9.6 27.1503C7.45008 22.4287 5.2242 17.8631 3 13.0503C2.7264 12.3008 2.4 10.4896 2.4 9.60029C2.4 5.36575 5.59044 2.40029 9.61872 2.40029ZM9.60012 5.40029C7.2948 5.40029 5.40012 7.29488 5.40012 9.60029C5.40012 11.9057 7.2948 13.8003 9.60012 13.8003C11.9055 13.8003 13.8001 11.9057 13.8001 9.60029C13.8001 7.29491 11.9055 5.40029 9.60012 5.40029ZM9.60012 7.80029C10.6084 7.80029 11.4001 8.59199 11.4001 9.60029C11.4001 10.6086 10.6084 11.4003 9.60012 11.4003C8.59188 11.4003 7.80012 10.6086 7.80012 9.60029C7.80012 8.59202 8.59188 7.80029 9.60012 7.80029ZM49.1814 27.6003C53.8596 27.6003 57.6001 31.1686 57.6001 36.0003C57.6001 37.0253 57.2415 38.8871 56.9064 39.7878C54.3514 45.1899 51.7709 50.5897 49.2001 55.9878C46.6822 50.5654 43.9901 45.0988 41.4938 39.7878C41.1594 38.8846 40.8 37.0232 40.8 36.0003C40.8 31.1651 44.5031 27.6003 49.1814 27.6003ZM49.2 30.6003C46.2319 30.6003 43.8 33.0322 43.8 36.0003C43.8 38.9684 46.2319 41.4003 49.2 41.4003C52.1681 41.4003 54.6 38.9684 54.6 36.0003C54.6 33.0322 52.1681 30.6003 49.2 30.6003ZM49.2 33.0003C50.8711 33.0003 52.2 34.3292 52.2 36.0003C52.2 37.6713 50.8711 39.0003 49.2 39.0003C47.529 39.0003 46.2 37.6712 46.2 36.0003C46.2 34.3292 47.529 33.0003 49.2 33.0003Z" fill="white"/>
</svg>
