<svg width="95" height="127" viewBox="0 0 95 127" fill="none" xmlns="http://www.w3.org/2000/svg">
<path d="M47 0C22.2 0 2 20.2 2 45C2 69.8 22.2 90 47 90C71.8 90 92 69.8 92 45C92 20.2 71.8 0 47 0ZM47 81C27.1 81 11 64.9 11 45C11 25.1 27.1 9 47 9C66.9 9 83 25.1 83 45C83 64.9 66.9 81 47 81Z" fill="white"/>
<path d="M47 72C49.4853 72 51.5 69.9853 51.5 67.5C51.5 65.0147 49.4853 63 47 63C44.5147 63 42.5 65.0147 42.5 67.5C42.5 69.9853 44.5147 72 47 72Z" fill="white"/>
<path d="M46.4 19.7C42.7 20 39.9 23.3 40.2 27L42.5 54C42.7 56.2 44.4 57.9 46.6 58.1C49.1 58.3 51.3 56.5 51.5 54L53.8 27C53.8 26.6 53.8 26.2 53.8 25.9C53.4 22.1 50.2 19.4 46.4 19.7Z" fill="white"/>
<path d="M10.9858 108.565C10.9176 107.878 10.625 107.344 10.108 106.963C9.59091 106.582 8.8892 106.392 8.00284 106.392C7.40057 106.392 6.89205 106.477 6.47727 106.648C6.0625 106.812 5.74432 107.043 5.52273 107.338C5.30682 107.634 5.19886 107.969 5.19886 108.344C5.1875 108.656 5.25284 108.929 5.39489 109.162C5.54261 109.395 5.74432 109.597 6 109.767C6.25568 109.932 6.55114 110.077 6.88636 110.202C7.22159 110.321 7.57955 110.423 7.96023 110.509L9.52841 110.884C10.2898 111.054 10.9886 111.281 11.625 111.565C12.2614 111.849 12.8125 112.199 13.2784 112.614C13.7443 113.028 14.1051 113.517 14.3608 114.08C14.6222 114.642 14.7557 115.287 14.7614 116.014C14.7557 117.082 14.483 118.009 13.9432 118.793C13.4091 119.571 12.6364 120.176 11.625 120.608C10.6193 121.034 9.40625 121.247 7.9858 121.247C6.5767 121.247 5.34943 121.031 4.30398 120.599C3.2642 120.168 2.4517 119.528 1.86648 118.682C1.28693 117.83 0.982955 116.776 0.954545 115.52H4.52557C4.56534 116.105 4.73295 116.594 5.02841 116.986C5.32955 117.372 5.73011 117.665 6.23011 117.864C6.7358 118.057 7.30682 118.153 7.94318 118.153C8.56818 118.153 9.1108 118.062 9.57102 117.881C10.0369 117.699 10.3977 117.446 10.6534 117.122C10.9091 116.798 11.0369 116.426 11.0369 116.006C11.0369 115.614 10.9205 115.284 10.6875 115.017C10.4602 114.75 10.125 114.523 9.68182 114.335C9.24432 114.148 8.70739 113.977 8.07102 113.824L6.17045 113.347C4.69886 112.989 3.53693 112.429 2.68466 111.668C1.83239 110.906 1.40909 109.881 1.41477 108.591C1.40909 107.534 1.69034 106.611 2.25852 105.821C2.83239 105.031 3.61932 104.415 4.61932 103.972C5.61932 103.528 6.75568 103.307 8.02841 103.307C9.32386 103.307 10.4545 103.528 11.4205 103.972C12.392 104.415 13.1477 105.031 13.6875 105.821C14.2273 106.611 14.5057 107.526 14.5227 108.565H10.9858ZM16.5788 106.588V103.545H30.9141V106.588H25.5703V121H21.9226V106.588H16.5788ZM34.1506 121H30.196L36.2216 103.545H40.9773L46.9943 121H43.0398L38.6676 107.534H38.5312L34.1506 121ZM33.9034 114.139H43.2443V117.02H33.9034V114.139ZM46.2976 106.588V103.545H60.6328V106.588H55.2891V121H51.6413V106.588H46.2976ZM73.7749 103.545H77.4652V114.881C77.4652 116.153 77.1612 117.267 76.5533 118.222C75.951 119.176 75.1072 119.92 74.022 120.455C72.9368 120.983 71.6726 121.247 70.2294 121.247C68.7805 121.247 67.5135 120.983 66.4283 120.455C65.343 119.92 64.4993 119.176 63.897 118.222C63.2947 117.267 62.9936 116.153 62.9936 114.881V103.545H66.6839V114.565C66.6839 115.23 66.8288 115.821 67.1186 116.338C67.4141 116.855 67.8288 117.261 68.3629 117.557C68.897 117.852 69.5192 118 70.2294 118C70.9453 118 71.5675 117.852 72.0959 117.557C72.63 117.261 73.0419 116.855 73.3317 116.338C73.6271 115.821 73.7749 115.23 73.7749 114.565V103.545ZM89.9702 108.565C89.902 107.878 89.6094 107.344 89.0923 106.963C88.5753 106.582 87.8736 106.392 86.9872 106.392C86.3849 106.392 85.8764 106.477 85.4616 106.648C85.0469 106.812 84.7287 107.043 84.5071 107.338C84.2912 107.634 84.1832 107.969 84.1832 108.344C84.1719 108.656 84.2372 108.929 84.3793 109.162C84.527 109.395 84.7287 109.597 84.9844 109.767C85.2401 109.932 85.5355 110.077 85.8707 110.202C86.206 110.321 86.5639 110.423 86.9446 110.509L88.5128 110.884C89.2741 111.054 89.973 111.281 90.6094 111.565C91.2457 111.849 91.7969 112.199 92.2628 112.614C92.7287 113.028 93.0895 113.517 93.3452 114.08C93.6065 114.642 93.7401 115.287 93.7457 116.014C93.7401 117.082 93.4673 118.009 92.9276 118.793C92.3935 119.571 91.6207 120.176 90.6094 120.608C89.6037 121.034 88.3906 121.247 86.9702 121.247C85.5611 121.247 84.3338 121.031 83.2884 120.599C82.2486 120.168 81.4361 119.528 80.8509 118.682C80.2713 117.83 79.9673 116.776 79.9389 115.52H83.5099C83.5497 116.105 83.7173 116.594 84.0128 116.986C84.3139 117.372 84.7145 117.665 85.2145 117.864C85.7202 118.057 86.2912 118.153 86.9276 118.153C87.5526 118.153 88.0952 118.062 88.5554 117.881C89.0213 117.699 89.3821 117.446 89.6378 117.122C89.8935 116.798 90.0213 116.426 90.0213 116.006C90.0213 115.614 89.9048 115.284 89.6719 115.017C89.4446 114.75 89.1094 114.523 88.6662 114.335C88.2287 114.148 87.6918 113.977 87.0554 113.824L85.1548 113.347C83.6832 112.989 82.5213 112.429 81.669 111.668C80.8168 110.906 80.3935 109.881 80.3991 108.591C80.3935 107.534 80.6747 106.611 81.2429 105.821C81.8168 105.031 82.6037 104.415 83.6037 103.972C84.6037 103.528 85.7401 103.307 87.0128 103.307C88.3082 103.307 89.4389 103.528 90.4048 103.972C91.3764 104.415 92.1321 105.031 92.6719 105.821C93.2116 106.611 93.4901 107.526 93.5071 108.565H89.9702Z" fill="white"/>
</svg>
