<svg width="79" height="88" viewBox="0 0 79 88" fill="none" xmlns="http://www.w3.org/2000/svg">
<path d="M79.0001 36.7209C79.0001 16.6738 64.8459 0.195752 47.4408 0C45.2395 0 43.4754 2.01534 43.4497 4.50503C43.424 7.0064 45.1881 9.07515 47.3587 9.10474C60.4482 9.25885 71.0995 21.6415 71.0995 36.7209C71.0995 44.0948 68.6102 51.0478 64.0842 56.2642L55.2995 66.3885V50.0759C55.2995 47.5745 53.5199 45.5235 51.3495 45.5235C49.1791 45.5235 47.3995 47.5745 47.3995 50.0759V68.2854C47.3995 75.8133 52.7176 81.9425 59.2495 81.9425H75.0495C77.2199 81.9425 78.9995 79.8915 78.9995 77.3901C78.9995 74.8887 77.2199 72.8377 75.0495 72.8377H60.869L69.664 62.7016C75.6815 55.7664 79.0001 46.5434 79.0001 36.7209Z" fill="white"/>
<path d="M0 51.2552C0 71.3024 14.1542 87.7804 31.5592 87.9762C33.7606 87.9762 35.5247 85.9608 35.5503 83.4712C35.576 80.9698 33.8119 78.901 31.6414 78.8714C18.5519 78.7173 7.90054 66.3347 7.90054 51.2552C7.90054 43.8813 10.3898 36.9283 14.9159 31.7119L23.7006 21.5876V37.9003C23.7006 40.4016 25.4802 42.4526 27.6506 42.4526C29.821 42.4526 31.6006 40.4016 31.6006 37.9003V19.6908C31.6006 12.1628 26.2824 6.03369 19.7506 6.03369H3.95053C1.78014 6.03369 0.000527383 8.08469 0.000527383 10.5861C0.000527383 13.0874 1.78014 15.1384 3.95053 15.1384H18.1311L9.33611 25.2746C3.31853 32.2098 0 41.4328 0 51.2552Z" fill="white"/>
</svg>
