<svg width="116" height="127" viewBox="0 0 116 127" fill="none" xmlns="http://www.w3.org/2000/svg">
<path d="M1.51705 121V103.545H8.50568C9.78977 103.545 10.8608 103.736 11.7188 104.116C12.5767 104.497 13.2216 105.026 13.6534 105.702C14.0852 106.372 14.3011 107.145 14.3011 108.02C14.3011 108.702 14.1648 109.301 13.892 109.818C13.6193 110.33 13.2443 110.75 12.767 111.08C12.2955 111.403 11.7557 111.634 11.1477 111.77V111.94C11.8125 111.969 12.4347 112.156 13.0142 112.503C13.5994 112.849 14.0739 113.335 14.4375 113.96C14.8011 114.58 14.983 115.318 14.983 116.176C14.983 117.102 14.7528 117.929 14.2926 118.656C13.8381 119.378 13.1648 119.949 12.2727 120.369C11.3807 120.79 10.2813 121 8.97443 121H1.51705ZM5.20739 117.983H8.21591C9.24432 117.983 9.99432 117.787 10.4659 117.395C10.9375 116.997 11.1733 116.469 11.1733 115.81C11.1733 115.327 11.0568 114.901 10.8239 114.531C10.5909 114.162 10.2585 113.872 9.8267 113.662C9.40057 113.452 8.89205 113.347 8.30114 113.347H5.20739V117.983ZM5.20739 110.849H7.94318C8.44886 110.849 8.89773 110.761 9.28977 110.585C9.6875 110.403 10 110.148 10.2273 109.818C10.4602 109.489 10.5767 109.094 10.5767 108.634C10.5767 108.003 10.3523 107.494 9.90341 107.108C9.46023 106.722 8.82955 106.528 8.01136 106.528H5.20739V110.849ZM21.0746 103.545V121H17.3842V103.545H21.0746ZM24.1108 121V103.545H27.8011V117.957H35.2841V121H24.1108ZM37.728 121V103.545H41.4183V110.747H48.9098V103.545H52.5916V121H48.9098V113.79H41.4183V121H37.728ZM55.6342 121V103.545H67.3956V106.588H59.3246V110.747H66.7905V113.79H59.3246V117.957H67.4297V121H55.6342ZM69.6648 106.588V103.545H84V106.588H78.6562V121H75.0085V106.588H69.6648ZM86.3608 121V103.545H98.1222V106.588H90.0511V110.747H97.517V113.79H90.0511V117.957H98.1562V121H86.3608ZM110.525 108.565C110.457 107.878 110.164 107.344 109.647 106.963C109.13 106.582 108.428 106.392 107.542 106.392C106.94 106.392 106.431 106.477 106.016 106.648C105.602 106.812 105.283 107.043 105.062 107.338C104.846 107.634 104.738 107.969 104.738 108.344C104.727 108.656 104.792 108.929 104.934 109.162C105.082 109.395 105.283 109.597 105.539 109.767C105.795 109.932 106.09 110.077 106.425 110.202C106.761 110.321 107.119 110.423 107.499 110.509L109.067 110.884C109.829 111.054 110.528 111.281 111.164 111.565C111.8 111.849 112.352 112.199 112.817 112.614C113.283 113.028 113.644 113.517 113.9 114.08C114.161 114.642 114.295 115.287 114.3 116.014C114.295 117.082 114.022 118.009 113.482 118.793C112.948 119.571 112.175 120.176 111.164 120.608C110.158 121.034 108.945 121.247 107.525 121.247C106.116 121.247 104.888 121.031 103.843 120.599C102.803 120.168 101.991 119.528 101.406 118.682C100.826 117.83 100.522 116.776 100.494 115.52H104.065C104.104 116.105 104.272 116.594 104.567 116.986C104.869 117.372 105.269 117.665 105.769 117.864C106.275 118.057 106.846 118.153 107.482 118.153C108.107 118.153 108.65 118.062 109.11 117.881C109.576 117.699 109.937 117.446 110.192 117.122C110.448 116.798 110.576 116.426 110.576 116.006C110.576 115.614 110.46 115.284 110.227 115.017C109.999 114.75 109.664 114.523 109.221 114.335C108.783 114.148 108.246 113.977 107.61 113.824L105.71 113.347C104.238 112.989 103.076 112.429 102.224 111.668C101.371 110.906 100.948 109.881 100.954 108.591C100.948 107.534 101.229 106.611 101.798 105.821C102.371 105.031 103.158 104.415 104.158 103.972C105.158 103.528 106.295 103.307 107.567 103.307C108.863 103.307 109.994 103.528 110.96 103.972C111.931 104.415 112.687 105.031 113.227 105.821C113.766 106.611 114.045 107.526 114.062 108.565H110.525Z" fill="white"/>
<path d="M25 0C18.3738 0 13 5.37379 13 12V21C13 22.6575 14.3425 24 16 24C21.7975 24 26.5005 28.7025 26.5005 34.5005C26.5005 40.2985 21.798 45.001 16 45.001C14.3425 45.001 13 46.3434 13 48.001V57.001C13 63.6272 18.3738 69.001 25 69.001H49V63.001H25C21.685 63.001 19 60.3159 19 57.001V50.7272C26.68 49.3171 32.4995 42.5896 32.4995 34.5013C32.4995 26.4129 26.6795 19.6846 19 18.2753V12.0015C19 8.68656 21.685 6.00154 25 6.00154H91C94.315 6.00154 97 8.68656 97 12.0015V18.2753C89.32 19.6854 83.5005 26.4129 83.5005 34.5013C83.5005 35.0075 83.523 35.5063 83.568 36.0013H89.6055C89.538 35.51 89.5005 35.0113 89.5005 34.5013C89.5005 28.7037 94.203 24.0008 100.001 24.0008C100.796 24.0008 101.561 23.6858 102.123 23.1233C102.686 22.5608 103.001 21.7958 103.001 21.0008V12.0008C103.001 5.3746 97.6272 0.000806351 91.001 0.000806351L25 0Z" fill="white"/>
<path d="M40 19.5005C40 21.158 41.3425 22.5005 43 22.5005C44.6575 22.5005 46 21.158 46 19.5005V13.5005C46 11.843 44.6575 10.5005 43 10.5005C41.3425 10.5005 40 11.843 40 13.5005V19.5005Z" fill="white"/>
<path d="M43 40.4995C41.3425 40.4995 40 39.157 40 37.4995V31.4995C40 29.842 41.3425 28.4995 43 28.4995C44.6575 28.4995 46 29.842 46 31.4995V37.4995C46 39.157 44.6575 40.4995 43 40.4995Z" fill="white"/>
<path d="M43 58.4995C41.3425 58.4995 40 57.157 40 55.4995V49.4995C40 47.842 41.3425 46.4995 43 46.4995C44.6575 46.4995 46 47.842 46 49.4995V55.4995C46 57.157 44.6575 58.4995 43 58.4995Z" fill="white"/>
<path d="M80.5005 70.4995C80.5005 72.157 79.158 73.4995 77.5005 73.4995H68.5005C66.8429 73.4995 65.5005 72.157 65.5005 70.4995C65.5005 68.842 66.8429 67.4995 68.5005 67.4995H77.5005C79.158 67.4995 80.5005 68.842 80.5005 70.4995Z" fill="white"/>
<path d="M89.4995 58.4995C91.1571 58.4995 92.4995 59.842 92.4995 61.4995C92.4995 63.157 91.1571 64.4995 89.4995 64.4995H68.4995C66.842 64.4995 65.4995 63.157 65.4995 61.4995C65.4995 59.842 66.842 58.4995 68.4995 58.4995H89.4995Z" fill="white"/>
<path fill-rule="evenodd" clip-rule="evenodd" d="M103 51C103 46.0312 98.9688 42 94 42H64C59.0312 42 55 46.0312 55 51V81C55 85.9688 59.0312 90 64 90H94C98.9688 90 103 85.9688 103 81V51ZM94 48C95.6575 48 97 49.3425 97 51V81C97 82.6575 95.6575 84 94 84H64C62.3425 84 61 82.6575 61 81V51C61 49.3425 62.3425 48 64 48H94Z" fill="white"/>
</svg>
